<?xml version="1.0" encoding="utf-8"?>
<!-- Generator: Adobe Illustrator 28.0.0, SVG Export Plug-In . SVG Version: 6.00 Build 0)  -->
<svg version="1.1" xmlns="http://www.w3.org/2000/svg" xmlns:xlink="http://www.w3.org/1999/xlink" x="0px" y="0px"
	 viewBox="0 0 233.6 64.6" style="enable-background:new 0 0 233.6 64.6;" xml:space="preserve">
<style type="text/css">
	.st0{fill:#DF2B2A;}
	.st1{fill:#242C58;}
</style>
<g>
	<g>
		<path class="st0" d="M29,60.5c0.7-3.9,1.1-7.8-0.4-11.6c-3.2-1.8-6.3-3.7-9.5-5.5c-5.5-3.2-10.9-6.3-16.4-9.5
			C2.3,33.7,2,33.5,1.8,33c-1.2-2.7-1.9-5.5-1.8-8.5c0.2-2.8,0.8-5.4,1.7-8c0.4-1.1,1.3-1.5,2.4-1c1.5,0.7,2.9,1.6,4.3,2.4
			c7.1,4.1,14,8.3,21.1,12.4c0.1,0.1,0.2,0.1,0.4,0.2c0.4-0.2,0.8-0.5,1.2-0.7c8.1-4.7,16.2-9.4,24.3-14c0.5-0.3,1-0.5,1.6-0.4
			c0.7,0.2,1.1,0.6,1.2,1.3c0.2,0.7-0.1,1.2-0.6,1.6c-0.5,0.3-0.9,0.6-1.4,0.9c-8.1,4.7-16.2,9.3-24.2,14c-0.4,0.3-0.8,0.6-0.9,1.1
			c-0.6,1.7-1.2,3.5-1,5.3c0.1,1.9,0.4,3.8,1,5.8c1.8-1,3.6-2,5.3-3.1c6.4-3.7,12.8-7.4,19.2-11.1c1.2-0.7,2.4-0.3,2.8,1
			c1.7,5.3,1.7,10.7,0,16c-0.2,0.7-0.7,1-1.3,1.4c-2.1,1.2-4.1,2.4-6.2,3.5c-6.4,3.7-12.8,7.4-19.2,11.1c-1.2,0.7-2.1,0.7-3.3,0
			c-8.4-4.9-16.8-9.8-25.3-14.6c-0.3-0.2-0.5-0.3-0.8-0.5c-0.6-0.5-0.8-1.3-0.4-2c0.3-0.7,1-1,1.8-0.9c0.3,0,0.6,0.2,0.8,0.3
			c4.2,2.4,8.4,4.9,12.6,7.3c3.7,2.2,7.5,4.3,11.2,6.5C28.5,60.4,28.6,60.5,29,60.5L29,60.5z M55.6,34.8
			c-7.9,4.6-15.8,9.1-23.6,13.6c0,0.2,0.1,0.3,0.1,0.4c0.8,2.6,1,5.3,0.7,8c-0.1,0.9-0.2,1.8-0.3,2.8c0.4-0.2,0.6-0.3,0.8-0.5
			c7.1-4.1,14.1-8.2,21.2-12.2c0.5-0.3,0.8-0.6,0.9-1.2c0.6-2.3,0.9-4.7,0.8-7.1C56.2,37.5,56,36.2,55.6,34.8L55.6,34.8z M4.3,19.4
			c-1.2,3.8-1.5,7.4-0.1,11.1c0.2,0.5,0.5,0.9,1,1.1c7.1,4.1,14.2,8.2,21.4,12.3c0.2,0.1,0.3,0.3,0.6,0.1c-0.3-1.8-0.6-3.6-0.6-5.5
			c0.1-1.9,0.6-3.6,1.2-5.4C20,28.6,12.2,24,4.3,19.4z"/>
		<path class="st0" d="M29.9,3.5c-3.7,2.1-7.3,4.2-11,6.3c-2.2,1.3-4.5,2.6-6.7,3.9c-0.2,0.1-0.3,0.2-0.5,0.3
			c-0.8,0.4-1.7,0.1-2.1-0.6c-0.5-0.7-0.3-1.6,0.4-2.2c0.2-0.1,0.4-0.2,0.5-0.3c6.1-3.5,12.1-7,18.2-10.5c0.8-0.5,1.5-0.5,2.3,0
			c6,3.5,12.1,7,18.1,10.5c0.2,0.1,0.4,0.2,0.5,0.3c0.7,0.6,0.9,1.4,0.4,2.1c-0.5,0.8-1.4,1.1-2.2,0.6c-1.2-0.7-2.5-1.4-3.7-2.1
			C39.9,9.3,35.5,6.7,31,4.1C30.7,3.9,30.3,3.7,29.9,3.5L29.9,3.5z"/>
		<path class="st1" d="M98.6,40.1c-1,0.1-1.9,0.1-2.8,0v-9.4c-1.5,1.9-3,3.7-4.4,5.6c-1.4-1.8-2.8-3.5-4.1-5.2
			c-0.4,0.3-0.3,0.6-0.3,0.9c0,2.4,0,4.9,0,7.3c0,0.3-0.1,0.5-0.1,0.9h-2.7v-15c0.5,0,1.1,0,1.8,0c1.8,2.3,3.6,4.6,5.5,6.9
			c1.8-2.3,3.6-4.6,5.4-6.9h1.9V40.1L98.6,40.1z"/>
		<path class="st1" d="M124.6,35.4c1.2,1.4,2.1,3.1,3.3,4.8h-3.4c-0.4-0.7-0.9-1.3-1.3-2c-0.3-0.4-0.5-0.8-0.9-1.2
			c-0.3-0.3-0.7-0.5-1.1-0.5c-0.9,0-1.8,0-2.7,0v3.7c-1,0.1-1.9,0.1-2.9,0v-15c0.6,0,1.2,0,1.8,0c1.6,0,3.2-0.1,4.8,0.1
			c2,0.3,3.6,1.2,4.5,3.1c1,2,0.7,5-1.8,6.6C124.8,35.1,124.7,35.2,124.6,35.4L124.6,35.4z M118.5,33.6c1.2,0,2.4,0.1,3.6-0.1
			c0.4-0.1,0.8-0.2,1.1-0.4c0.5-0.3,0.9-0.8,1.1-1.3c0.5-1.6-0.3-3.1-2-3.5c-1.2-0.3-2.5-0.2-3.8-0.2V33.6z"/>
		<path class="st1" d="M196,25.1c3.8,0,7.6,3,7.6,7.6c0,4.3-3.4,7.6-7.6,7.6c-4.2,0-7.6-3.4-7.6-7.6C188.4,28.3,192,25,196,25.1z
			 M191.3,32.7c0,2.8,2,4.8,4.7,4.8c2.7,0,4.8-2.1,4.8-4.8c0-2.8-2.1-4.9-4.8-4.9C193.3,27.8,191.3,29.9,191.3,32.7L191.3,32.7z"/>
		<path class="st1" d="M205,32.7c-0.1-3.9,3.2-7.6,7.6-7.6c4.5,0,7.6,3.8,7.6,7.6c0,3.7-3,7.6-7.6,7.6
			C207.7,40.3,204.8,36.1,205,32.7z M212.6,27.8c-2.1,0-4.7,1.6-4.7,4.9c0,2.8,1.9,4.8,4.7,4.8c3.2,0,4.8-2.5,4.8-4.8
			C217.4,29.5,214.9,27.8,212.6,27.8L212.6,27.8z"/>
		<path class="st1" d="M174.6,25.2h2.8v5.9h5.9v-5.9h2.8v14.9h-2.8V34h-5.9v6.1h-2.9L174.6,25.2L174.6,25.2z"/>
		<path class="st1" d="M147.9,34.7c0.2,0.1,0.3,0.4,0.3,0.5c0.5,1.2,1.4,1.8,2.6,2.1c1,0.2,2.1,0.3,3.1-0.1c0.9-0.4,1.4-1.2,1.2-2
			c-0.1-0.5-0.5-0.8-0.9-1c-0.7-0.3-1.4-0.4-2.1-0.5c-1-0.1-2-0.2-2.9-0.6c-1.3-0.5-2.4-1.2-2.7-2.7c-0.3-1.6,0.2-3,1.4-4.1
			c0.8-0.7,1.8-1.1,2.8-1.3c2.9-0.4,5.3,0.5,7.1,2.9c-0.6,0.6-1.2,1.2-1.9,1.7c-0.4-0.2-0.5-0.5-0.8-0.7c-1.3-1.1-2.8-1.5-4.5-1
			c-0.2,0.1-0.4,0.2-0.6,0.3c-0.5,0.3-0.8,0.7-0.7,1.3c0.1,0.6,0.5,0.8,1,0.9c1.1,0.3,2.2,0.3,3.4,0.6c0.6,0.1,1.2,0.3,1.8,0.5
			c1.5,0.6,2.4,1.7,2.6,3.4c0.2,1.7-0.4,3.1-1.8,4.1c-1.1,0.8-2.4,1.1-3.7,1.2c-1.6,0-3.1-0.3-4.5-1.2c-0.9-0.6-1.6-1.5-2.1-2.6
			C146.6,35.9,147.3,35.3,147.9,34.7L147.9,34.7z"/>
		<path class="st1" d="M80.2,29.8c-0.3-0.1-0.4-0.2-0.5-0.4c-1.2-1.4-2.8-1.8-4.5-1.5c-0.6,0.1-1.1,0.3-1.4,0.8
			c-0.5,0.7-0.3,1.4,0.4,1.7c0.5,0.2,1,0.3,1.6,0.4c1.1,0.1,2.2,0.2,3.3,0.6c1.5,0.5,2.6,1.3,3,2.8c0.5,2.2-0.1,3.8-1.9,5
			c-2.5,1.7-6.5,1.3-8.7-0.7c-0.6-0.5-1-1.2-1.4-2c0.6-0.7,1.3-1.3,2-1.9c0.1,0.2,0.2,0.2,0.2,0.3c0.6,1.6,1.9,2.3,3.5,2.5
			c0.8,0.1,1.6,0,2.3-0.3c0.5-0.2,0.9-0.6,1.1-1.2c0.2-0.7,0-1.3-0.6-1.7c-0.5-0.3-1.1-0.4-1.8-0.5c-0.9-0.1-1.8-0.2-2.6-0.4
			c-0.6-0.1-1.1-0.3-1.7-0.6c-2.6-1.3-2.6-4.7-0.6-6.4c1-0.9,2.3-1.3,3.6-1.4c2.6-0.1,4.8,0.8,6.4,3C81.4,28.7,80.8,29.2,80.2,29.8
			L80.2,29.8z"/>
		<path class="st1" d="M103.1,40.1h-3.1c0.6-1.7,1.3-3.3,2-4.9c0.7-1.7,1.4-3.3,2.1-5c0.7-1.6,1.4-3.3,2-4.9c0.6-0.1,1.1,0,1.7-0.1
			c0.4,0.6,5.8,13.6,6.2,14.9H111c-0.5-1.2-1-2.3-1.5-3.5h-4.9C104.1,37.7,103.6,38.9,103.1,40.1L103.1,40.1z M107.1,30.4
			c-0.5,1.2-0.9,2.3-1.4,3.4c0.9,0,1.8,0.1,2.7-0.1C108,32.6,107.6,31.6,107.1,30.4z"/>
		<path class="st1" d="M170.9,35.6c0.7,0.6,1.3,1.2,1.9,1.8c-1.9,2.6-5.5,3.6-8.5,2.6c-2.9-1-5.2-3.7-5.2-7.2c0-3.4,2.2-6.2,5.1-7.2
			c3.1-1.1,6.5-0.1,8.6,2.6c-0.6,0.6-1.2,1.2-2,1.7c-1.2-1.4-2.8-2.2-4.7-1.9c-1.2,0.1-2.2,0.6-3,1.5c-1.7,2-1.6,5.1,0.3,6.9
			C165.5,38.2,168.4,37.9,170.9,35.6L170.9,35.6z"/>
		<path class="st1" d="M132,27.9h-4.2c-0.1-0.9-0.1-1.8,0-2.7h11.2v2.6c-1.3,0.2-2.7,0-4.1,0.1c-0.1,1,0,2,0,3c0,1,0,2,0,3.1v3
			c0,1,0,2,0,3.2c-0.9,0.1-1.9,0-2.9,0V27.9L132,27.9z"/>
		<path class="st1" d="M232.3,40.2h-9.7c-0.2-0.7-0.3-12.6-0.1-14.9c0.9-0.1,1.9,0,2.9,0v12.2h6.9C232.3,38.4,232.3,39.2,232.3,40.2
			L232.3,40.2z"/>
	</g>
</g>
</svg>
