<?xml version="1.0" encoding="utf-8"?>
<!-- Generator: Adobe Illustrator 28.0.0, SVG Export Plug-In . SVG Version: 6.00 Build 0)  -->
<svg version="1.1" id="Слой_1" xmlns="http://www.w3.org/2000/svg" xmlns:xlink="http://www.w3.org/1999/xlink" x="0px" y="0px"
	 viewBox="0 0 75 75" style="enable-background:new 0 0 75 75;" xml:space="preserve">
<style type="text/css">
	.st0{fill:url(#SVGID_1_);}
	.st1{fill:#FFFFFF;stroke:#FFFFFF;stroke-miterlimit:10;}
	.st2{fill:#88C0FE;}
	.st3{fill:#3998FE;}
	.st4{fill:#2486DF;}
	.st5{fill:#424450;}
	.st6{fill:#FCE574;}
	.st7{fill:none;stroke:#FFFFFF;stroke-miterlimit:10;}
</style>
<linearGradient id="SVGID_1_" gradientUnits="userSpaceOnUse" x1="53.817" y1="64.9673" x2="16.9889" y2="2.1473">
	<stop  offset="0" style="stop-color:#F4AF33"/>
	<stop  offset="0.5211" style="stop-color:#FA9B5D"/>
	<stop  offset="1" style="stop-color:#FF8A80"/>
</linearGradient>
<path class="st0" d="M65.3,74.5H10.1c-5.2,0-9.4-4.2-9.4-9.4V9.9c0-5.2,4.2-9.4,9.4-9.4h55.1c5.2,0,9.4,4.2,9.4,9.4v55.1
	C74.7,70.3,70.5,74.5,65.3,74.5z"/>
<g>
	<g>
		<path class="st1" d="M54.9,38.9c1.9,1.4,3.3,3.1,4.4,5.2c1.1,2.1,1.6,4.5,1.6,7.3c0,3.6-1,6.7-2.9,9.4c-2,2.7-4.6,4.8-8,6.2
			c-3.4,1.4-7.1,2.1-11.2,2.1c-4.1,0-7.8-0.7-11.1-2.1c-3.3-1.4-6-3.5-7.9-6.2c-2-2.7-2.9-5.9-2.9-9.4c0-2.7,0.5-5.1,1.6-7.2
			c1.1-2.1,2.6-3.9,4.4-5.3c1.9-1.4,4-2.5,6.4-3.2c-2-0.8-3.8-1.8-5.2-3.1c-1.4-1.3-2.5-2.8-3.2-4.6c-0.7-1.7-1.1-3.6-1.1-5.6
			c0-3,0.8-5.6,2.5-8c1.6-2.4,3.9-4.2,6.8-5.6c2.9-1.3,6.2-2,9.9-2c3.7,0,7,0.7,9.9,2c2.9,1.3,5.2,3.2,6.8,5.6c1.6,2.4,2.5,5,2.5,8
			c0,2.1-0.4,4-1.1,5.8c-0.8,1.8-1.9,3.3-3.3,4.5c-1.4,1.3-3.1,2.3-5.1,3C50.9,36.5,53,37.6,54.9,38.9z M46,60.5
			c2.1-0.9,3.8-2.2,5-3.9c1.2-1.7,1.8-3.6,1.8-5.9c0-2.2-0.6-4.1-1.9-5.7c-1.3-1.7-2.9-3-5.1-3.9c-2.1-0.9-4.5-1.4-7-1.4
			c-2.6,0-4.9,0.5-7,1.4c-2.1,0.9-3.8,2.2-5,3.9c-1.2,1.7-1.8,3.6-1.8,5.7c0,2.2,0.6,4.2,1.8,5.9c1.2,1.7,2.9,3,5,3.9
			s4.5,1.4,7.1,1.4C41.5,61.8,43.9,61.4,46,60.5z M29.4,28.2c1,1.4,2.4,2.6,4.1,3.4c1.7,0.8,3.5,1.2,5.4,1.2c2,0,3.8-0.4,5.5-1.2
			c1.7-0.8,3-1.9,4.1-3.4c1-1.4,1.5-3,1.5-4.8c0-2.7-1-5-3.1-6.7c-2-1.7-4.7-2.5-8.1-2.5c-3.3,0-5.9,0.8-8,2.5
			c-2,1.7-3.1,3.9-3.1,6.7C27.8,25.1,28.3,26.7,29.4,28.2z"/>
	</g>
</g>
<g>
	<path class="st2" d="M6.3,13.1c14.1,0,28.1,0,42.2,0c0.5,0,1.1,0,1.6,0.3c0.1,0.1,0.2,0.1,0.3,0.1c0,0,0,0,0,0
		c0,0.1,0.1,0.2,0.1,0.3c0.7,0.8,0.7,1.6,0.3,2.5c-0.4,0.9-1.2,1.1-2.1,1.1c-2.2,0-4.5,0.1-6.7,0.2c-2.8,0.1-5.5,0.4-8.3,0.8
		c-2.8,0.5-5.6,1.2-8.2,2.4c-2.4,1.1-4.5,2.8-6.1,4.9c-0.4-0.3-0.8-0.7-1.2-1c-1-0.8-1-0.8-0.1-1.8c0.3-0.4,0.8-0.8,0.7-1.3
		c-0.2-1.3-0.4-2.6-0.6-3.9c-0.2-0.8-1-1.1-1.7-0.7c-0.6,0.4-0.7,1-0.6,1.6c0.1,0.8,0.3,1.6,0.4,2.4c0.1,0.4-0.7,1.4-0.9,1.2
		c-0.5-0.5-1.3-0.8-1.5-1.6c-0.1-0.9-0.3-1.8-0.5-2.8c-0.1-0.7-0.7-1.1-1.3-1c-0.7,0.1-1.1,0.6-1,1.3c0,0.5,0.2,1,0.2,1.5
		c0,1.7,0.6,3.2,2.2,4.1c0.4,0.2,0.5,0.5,0.1,0.8c-1.1,1-1.4,2.2-0.9,3.6c0,0.1,0,0.2,0,0.3c0.1,1.4,0.5,2.6,1.8,3.5
		c0.8,0.5,0.7,0.6,0.1,1.4c-0.3,0.4-0.9,0.8-0.9,1.4c0.2,1.5,0.3,3.1,0.8,4.5c-0.8,0.6-1.6,0.8-2.5,0.6c-1-0.2-1.7-0.9-2.2-1.7
		c-0.3-0.9-0.4-1.9-0.5-2.9C9,33.2,8.7,31,8.4,28.9c-0.3-2.1-0.5-4.1-0.8-6.2c-0.3-2-0.6-4.1-0.9-6.1c-0.1-0.9-0.2-1.9-0.4-2.8
		C6.3,13.6,6.3,13.3,6.3,13.1z"/>
	<path class="st3" d="M19.5,25.8c1.6-2.1,3.7-3.7,6.1-4.9c2.6-1.2,5.4-2,8.2-2.4c2.7-0.4,5.5-0.7,8.3-0.8c2.2-0.1,4.5-0.2,6.7-0.2
		c0.9,0,1.7-0.2,2.1-1.1c0.4-0.9,0.4-1.7-0.3-2.5c-0.1-0.1-0.2-0.2-0.1-0.3c1.6,0.3,3,1.9,3.3,3.7c0.3,1.8,0.5,3.7,0.8,5.5
		c0.1,1,0.3,2,0.4,3c0.2,1.7,0.5,3.5,0.7,5.2c0.2,1.7,0.5,3.4,0.7,5.1c0.2,1.8,0.5,3.6,0.7,5.3c0.2,1.1,0.4,2.2,0,3.4
		c-0.3,0.9-0.9,1.6-1.4,2.4c-1.5,1-3.1,1.1-4.8,1.1c-1.7-0.1-3.5,0-5.2,0c-0.3,0-0.6,0-0.8,0c-10.9,0-21.9,0-32.8,0
		c-0.6,0-0.8-0.2-0.8-0.7c-0.4-3-0.7-6.1-1.3-9.1c0,0,0.1-0.1,0.1-0.2c0.5,0.8,1.2,1.5,2.2,1.7c1,0.2,1.8,0,2.5-0.6
		c0.6,0.5,1.2,1,1.8,1.5c0.3,0.2,0.2,0.4,0,0.6c-0.3,0.4-0.7,0.8-1,1.1c-0.4,0.6-0.4,1.3,0.1,1.7c0.5,0.5,1.2,0.4,1.7-0.1
		c0.3-0.3,0.6-0.7,0.9-1.1c0.2-0.3,0.4-0.3,0.7,0c0.4,0.4,0.9,0.8,1.4,1.2c0.6,0.5,1.3,0.5,1.8,0c0.5-0.5,0.4-1.3-0.2-1.8
		c-0.4-0.4-0.8-0.7-1.2-1c-0.5-0.4-0.5-0.7-0.1-1.1c0.9-0.8,1.3-1.8,0.9-3c0-0.1,0-0.2,0-0.3c-0.3-1.3-0.1-2.8-1.6-3.7
		c-1.2-0.8-1.1-0.9-0.2-2c0.3-0.4,0.7-0.8,0.6-1.3C20,28.5,19.9,27.1,19.5,25.8z M45,32.4c2.1,0,3.7-1.3,4.1-3.2
		c0.6-2.8-1.7-5.9-4.8-6.3c-2.4-0.4-4.4,1-4.8,3.2C38.9,29.2,41.7,32.4,45,32.4z M45.7,38.5c2.9,0,5.3-1,7.2-3.1
		c0.5-0.6,0.5-1.3,0-1.8c-0.5-0.5-1.2-0.4-1.7,0.1c-0.6,0.6-1.3,1.2-2,1.6c-1.6,0.8-3.4,0.9-5.1,0.6c-0.8-0.1-1.4,0.3-1.5,1
		c-0.1,0.7,0.3,1.2,1.1,1.4C44.3,38.4,45,38.5,45.7,38.5z M41.3,35.5c0-0.3-0.1-0.6-0.4-0.8c-0.6-0.5-1.2-1-1.9-1.4
		c-0.5-0.3-1.2-0.1-1.5,0.3c-0.4,0.5-0.4,1.1,0.1,1.5c0.6,0.6,1.2,1.1,2,1.4C40.4,37.1,41.3,36.4,41.3,35.5z"/>
	<path class="st3" d="M59.1,22.8c2,0,4.1-0.1,6.1,0c2.6,0.1,4.1,1.8,4.5,4.4c0.6,4.6,1.3,9.3,1.9,13.9c0.5,3.9,1.1,7.9,1.6,11.8
		c0,0.1,0,0.1,0,0.2c-2.1,0-4.1,0-6.2,0c-1.9,0-3.9-1.6-4.2-3.5c-0.3-1.9-0.5-3.8-0.8-5.7c-0.2-1.7-0.5-3.4-0.7-5.1
		c-0.3-2.1-0.6-4.1-0.9-6.2c-0.2-1.8-0.5-3.5-0.7-5.3C59.4,25.8,59.3,24.3,59.1,22.8z"/>
	<path class="st4" d="M59.1,22.8c0.2,1.5,0.4,3,0.6,4.6c0.2,1.8,0.5,3.5,0.7,5.3c0.3,2.1,0.6,4.1,0.9,6.2c0.2,1.7,0.5,3.4,0.7,5.1
		c0.3,1.9,0.5,3.8,0.8,5.7c0.3,1.9,2.3,3.4,4.2,3.5c2.1,0,4.1,0,6.2,0c0.1,2.3-1.8,4.5-4.1,4.6c-4.3,0.1-8.6,0-12.9,0
		c-1.9,0-3.9,0-5.8,0c-0.6,0-1.2-0.2-1.7-0.5c1.7-2.4,3.3-4.9,5-7.3c0.6-0.9,1.4-1.8,1.9-2.9c0.5-0.8,1.2-1.5,1.4-2.4
		c0.3-1.1,0.1-2.2,0-3.4c-0.3-1.8-0.5-3.6-0.7-5.3c-0.2-1.7-0.5-3.4-0.7-5.1c-0.2-1.7-0.5-3.5-0.7-5.2c-0.1-1-0.3-2-0.4-3
		C55.9,22.8,57.5,22.7,59.1,22.8z"/>
	<path class="st5" d="M55.6,47c-0.5,1-1.3,1.9-1.9,2.9c-1.7,2.4-3.3,4.9-5,7.3c-1.4-0.7-2.1-1.9-2.4-3.4c-0.3-1.9-0.5-3.8-0.8-5.7
		c1.7,0,3.5-0.1,5.2,0C52.4,48.2,54.1,48.1,55.6,47z"/>
	<path class="st5" d="M12.4,55.6c0-0.8,0.4-1.3,1-1.4c0.7-0.1,1.2,0.4,1.3,1.1c0.4,3.1,0.9,6.2,1.3,9.3c0.4,2.7,0.7,5.4,1.1,8.1
		c0,0.3,0.1,0.5,0.1,0.8c0,0.7-0.4,1.1-1,1.2c-0.7,0.1-1.2-0.3-1.3-1c-0.2-1.5-0.4-3-0.6-4.5c-0.6-4.4-1.2-8.8-1.8-13.2
		C12.4,55.8,12.4,55.7,12.4,55.6z"/>
	<path class="st3" d="M50.3,13.5c-0.1,0-0.2,0-0.3-0.1C50.2,13.3,50.3,13.3,50.3,13.5z"/>
	<path class="st6" d="M19.5,25.8c0.4,1.4,0.5,2.8,0.7,4.2c0.1,0.6-0.3,0.9-0.6,1.3c-0.9,1.1-1,1.2,0.2,2c1.4,1,1.3,2.4,1.6,3.7
		c0,0.1,0,0.2,0,0.3c0.4,1.2,0,2.2-0.9,3c-0.5,0.4-0.5,0.7,0.1,1.1c0.4,0.3,0.8,0.7,1.2,1c0.6,0.6,0.7,1.3,0.2,1.8
		c-0.5,0.5-1.2,0.5-1.8,0c-0.5-0.4-0.9-0.8-1.4-1.2c-0.3-0.2-0.4-0.3-0.7,0c-0.3,0.4-0.6,0.7-0.9,1.1c-0.5,0.6-1.2,0.6-1.7,0.1
		c-0.5-0.4-0.5-1.1-0.1-1.7c0.3-0.4,0.6-0.8,1-1.1c0.2-0.2,0.3-0.4,0-0.6c-0.6-0.5-1.2-1-1.8-1.5c-0.5-1.5-0.6-3-0.8-4.5
		c-0.1-0.6,0.5-1,0.9-1.4c0.6-0.8,0.7-0.9-0.1-1.4c-1.3-0.9-1.7-2.1-1.8-3.5c0-0.1,0-0.2,0-0.3c-0.5-1.4-0.2-2.6,0.9-3.6
		c0.4-0.3,0.3-0.6-0.1-0.8c-1.5-0.9-2.1-2.4-2.2-4.1c0-0.5-0.2-1-0.2-1.5c-0.1-0.7,0.4-1.2,1-1.3c0.6-0.1,1.2,0.3,1.3,1
		c0.2,0.9,0.3,1.8,0.5,2.8c0.1,0.9,0.9,1.1,1.5,1.6c0.2,0.2,1-0.8,0.9-1.2c-0.1-0.8-0.2-1.6-0.4-2.4c-0.1-0.6-0.1-1.2,0.6-1.6
		c0.7-0.4,1.5-0.1,1.7,0.7c0.3,1.3,0.5,2.6,0.6,3.9c0.1,0.6-0.4,0.9-0.7,1.3c-0.8,1-0.8,1,0.1,1.8C18.7,25,19.1,25.4,19.5,25.8z
		 M19,37.8c0,0,0-0.1,0-0.1c-0.1-0.6-0.2-1.2-0.3-1.7c-0.1-0.4-1.2-1.6-1.5-1.7c0,0-0.1,0-0.1,0c-0.2,0-0.9,1-0.8,1.2
		c0.1,0.7,0.2,1.4,0.4,2.1c0.2,0.7,1,1,1.5,1.5c0,0,0.1,0,0.1,0C18.5,38.7,19,38.4,19,37.8z M17.7,29.3c-0.1-0.5-0.2-1-0.2-1.5
		c0-1.1-1-1.3-1.5-1.9c0,0-0.1,0-0.2,0c-0.3,0.4-0.8,0.6-0.8,1.1c0.1,1.3,0.1,2.8,1.6,3.5c0.1,0.1,0.2,0.3,0.4,0.1
		C17.3,30.2,17.7,29.9,17.7,29.3z"/>
	<path class="st6" d="M45,32.4c-3.3,0-6.1-3.2-5.5-6.4c0.4-2.2,2.4-3.6,4.8-3.2c3,0.5,5.3,3.5,4.8,6.3C48.7,31.1,47.1,32.4,45,32.4z
		"/>
	<path class="st6" d="M45.7,38.5c-0.7,0-1.4-0.1-2.1-0.2c-0.7-0.1-1.2-0.7-1.1-1.4c0.1-0.7,0.7-1.1,1.5-1c1.8,0.3,3.5,0.2,5.1-0.6
		c0.8-0.4,1.4-0.9,2-1.6c0.5-0.6,1.2-0.6,1.7-0.1c0.5,0.5,0.5,1.2,0,1.8C51,37.5,48.6,38.5,45.7,38.5z"/>
	<path class="st6" d="M41.3,35.5c0,0.9-0.9,1.5-1.7,1.2c-0.7-0.4-1.4-0.9-2-1.4c-0.4-0.4-0.4-1.1-0.1-1.5c0.4-0.5,1-0.6,1.5-0.3
		c0.7,0.4,1.3,0.9,1.9,1.4C41.2,35,41.3,35.3,41.3,35.5z"/>
	<path class="st3" d="M19,37.8c0,0.6-0.5,0.9-0.8,1.3c0,0-0.1,0-0.1,0c-0.5-0.5-1.3-0.8-1.5-1.5c-0.2-0.7-0.3-1.4-0.4-2.1
		c0-0.2,0.6-1.2,0.8-1.2c0,0,0.1,0,0.1,0c0.3,0.1,1.5,1.3,1.5,1.7c0.1,0.6,0.2,1.2,0.3,1.7C19,37.7,19,37.8,19,37.8z"/>
	<path class="st2" d="M17.7,29.3c0,0.6-0.4,1-0.7,1.3c-0.2,0.2-0.3-0.1-0.4-0.1c-1.5-0.7-1.4-2.2-1.6-3.5c0-0.5,0.5-0.8,0.8-1.1
		c0,0,0.1,0,0.2,0c0.5,0.6,1.5,0.8,1.5,1.9C17.4,28.3,17.6,28.8,17.7,29.3z"/>
</g>
<g>
	<g>
		<g>
			<path class="st7" d="M54.9,38.9c1.9,1.4,3.3,3.1,4.4,5.2c1.1,2.1,1.6,4.5,1.6,7.3c0,3.6-1,6.7-2.9,9.4c-2,2.7-4.6,4.8-8,6.2
				c-3.4,1.4-7.1,2.1-11.2,2.1c-4.1,0-7.8-0.7-11.1-2.1c-3.3-1.4-6-3.5-7.9-6.2c-2-2.7-2.9-5.9-2.9-9.4c0-2.7,0.5-5.1,1.6-7.2
				c1.1-2.1,2.6-3.9,4.4-5.3c1.9-1.4,4-2.5,6.4-3.2c-2-0.8-3.8-1.8-5.2-3.1c-1.4-1.3-2.5-2.8-3.2-4.6c-0.7-1.7-1.1-3.6-1.1-5.6
				c0-3,0.8-5.6,2.5-8c1.6-2.4,3.9-4.2,6.8-5.6c2.9-1.3,6.2-2,9.9-2c3.7,0,7,0.7,9.9,2c2.9,1.3,5.2,3.2,6.8,5.6c1.6,2.4,2.5,5,2.5,8
				c0,2.1-0.4,4-1.1,5.8c-0.8,1.8-1.9,3.3-3.3,4.5c-1.4,1.3-3.1,2.3-5.1,3C50.9,36.5,53,37.6,54.9,38.9z M46,60.5
				c2.1-0.9,3.8-2.2,5-3.9c1.2-1.7,1.8-3.6,1.8-5.9c0-2.2-0.6-4.1-1.9-5.7c-1.3-1.7-2.9-3-5.1-3.9c-2.1-0.9-4.5-1.4-7-1.4
				c-2.6,0-4.9,0.5-7,1.4c-2.1,0.9-3.8,2.2-5,3.9c-1.2,1.7-1.8,3.6-1.8,5.7c0,2.2,0.6,4.2,1.8,5.9c1.2,1.7,2.9,3,5,3.9
				s4.5,1.4,7.1,1.4C41.5,61.8,43.9,61.4,46,60.5z M29.4,28.2c1,1.4,2.4,2.6,4.1,3.4c1.7,0.8,3.5,1.2,5.4,1.2c2,0,3.8-0.4,5.5-1.2
				c1.7-0.8,3-1.9,4.1-3.4c1-1.4,1.5-3,1.5-4.8c0-2.7-1-5-3.1-6.7c-2-1.7-4.7-2.5-8.1-2.5c-3.3,0-5.9,0.8-8,2.5
				c-2,1.7-3.1,3.9-3.1,6.7C27.8,25.1,28.3,26.7,29.4,28.2z"/>
		</g>
	</g>
</g>
</svg>
