<?xml version="1.0" encoding="utf-8"?>
<!-- Generator: Adobe Illustrator 28.0.0, SVG Export Plug-In . SVG Version: 6.00 Build 0)  -->
<svg version="1.1" id="Слой_1" xmlns="http://www.w3.org/2000/svg" xmlns:xlink="http://www.w3.org/1999/xlink" x="0px" y="0px"
	 viewBox="0 0 75 75" style="enable-background:new 0 0 75 75;" xml:space="preserve">
<style type="text/css">
	.st0{fill:url(#SVGID_1_);}
	.st1{fill:#FFFFFF;}
	.st2{fill:#FF1D1D;}
</style>
<linearGradient id="SVGID_1_" gradientUnits="userSpaceOnUse" x1="53.5655" y1="10.0109" x2="16.7374" y2="72.8309" gradientTransform="matrix(1 0 0 -1 0 75)">
	<stop  offset="0" style="stop-color:#F4AF33"/>
	<stop  offset="0.5211" style="stop-color:#FA9B5D"/>
	<stop  offset="1" style="stop-color:#FF8A80"/>
</linearGradient>
<path class="st0" d="M65.1,74.5H9.9c-5.2,0-9.4-4.2-9.4-9.4V9.9c0-5.2,4.2-9.4,9.4-9.4H65c5.2,0,9.4,4.2,9.4,9.4V65
	C74.5,70.3,70.3,74.5,65.1,74.5z"/>
<g>
	<path class="st1" d="M31.5,35.1c0.7,0,1.1,0.3,1.3,1s0.1,1.3-0.4,1.9c-0.4,0.4-1,0.6-1.8,0.6h-2.4L22,48c-0.6,1-1.5,1.5-2.5,1.4
		c-0.9,0-1.4-0.4-1.8-1.1c-0.3-0.6-0.2-1.4,0.3-2.2l4.9-7.5h-1.6c-0.7,0-1.2-0.3-1.4-1c-0.2-0.7,0-1.3,0.5-1.8
		c0.4-0.4,1-0.6,1.7-0.6h3.1c0.4-0.5,0.7-1,0.9-1.4c0.2-0.4,0.5-0.8,0.9-1.3c0.3-0.5,0.6-1,0.9-1.4h-5.6c-0.8,0-1.3-0.4-1.6-1.1
		c-0.3-0.8-0.1-1.5,0.4-2.1s1.2-0.8,2.1-0.8h11.7c0.3,0,0.4,0.1,0.6,0.3c0.1,0.2,0.1,0.4-0.1,0.7l-4.8,7.3h0.9V35.1z"/>
	<path class="st1" d="M36.3,45.8c0.4-0.4,1-0.7,1.6-0.7s1.2,0.2,1.6,0.7c0.4,0.4,0.7,1,0.7,1.6S40,48.6,39.5,49
		c-0.4,0.4-1,0.7-1.6,0.7s-1.2-0.2-1.6-0.7c-0.4-0.4-0.7-1-0.7-1.6S35.8,46.2,36.3,45.8z"/>
	<path class="st1" d="M51.5,33.5l0.6-0.1c0.4,0,0.8-0.1,1-0.1c1.9,0,3.4,0.6,4.6,1.8c1.2,1.2,1.8,2.6,1.8,4.2c0,0.6-0.4,2.1-1.2,4.7
		c-0.6,1.8-1.7,3.2-3.3,4.2s-3.4,1.5-5.2,1.5c-2,0-3.6-0.5-4.8-1.6c-1.3-1.1-2-2.5-2-4.1c-0.1-1.6,0.4-2.6,1.3-3.1
		c0.7-0.4,1.4-0.4,2,0.1c0.8,0.5,1,1.3,0.7,2.5c-0.1,0.7,0.1,1.3,0.6,1.7s1.2,0.7,2.1,0.7c2.3,0,3.8-0.8,4.3-2.5
		c0-0.1,0.1-0.4,0.3-0.8c0.2-0.4,0.3-0.8,0.4-1c0.1-0.2,0.2-0.5,0.2-0.9s0.1-0.7,0.1-1c0-0.8-0.3-1.5-0.9-2
		c-0.6-0.5-1.4-0.7-2.4-0.6l-3.1,0.6c-0.7,0-1.2-0.2-1.5-0.6c-0.3-0.4-0.5-0.8-0.5-1.2c0-0.5,0.2-1.2,0.5-2.1l2.5-7.2
		c0.1-0.3,0.3-0.4,0.6-0.4h9.2c0.6,0,1,0.3,1.3,1c0.2,0.8,0.1,1.5-0.4,2c-0.4,0.5-1.1,0.7-1.9,0.7h-5.7L51.5,33.5z"/>
</g>
<g>
	<g>
		<g>
			<g>
				<g>
					<path class="st2" d="M68.1,18.8c0.1,0.4,0.5,0.1,0.6,0.1C68.3,18.3,68,18.8,68.1,18.8z"/>
					<path class="st2" d="M63.9,14h0.2c-0.3-0.1-0.6-0.3-0.9-0.4C63.5,13.7,63.7,13.9,63.9,14z"/>
					<path class="st2" d="M60,9.9c0,0.4,0.4,0.8,0.8,1.1c0.5,0.3,1,0.7,1.3,1.1v0.2h0.7C61.9,11.5,60.5,10.6,60,9.9z"/>
					<path class="st2" d="M58.5,6.8c0,0.3-0.7-0.2,0.5,0.5c0-0.1,0-0.1-0.1-0.1C58.9,7.1,58.8,7,58.5,6.8z"/>
					<path class="st2" d="M59,7.1C59.5,7.5,58.8,6.7,59,7.1L59,7.1z"/>
					<path class="st2" d="M56.5,5.6l0.8,0.2c-0.1-0.2-0.7-0.7-0.4-0.6C56.2,4.9,56.2,5.1,56.5,5.6z"/>
					<path class="st2" d="M55.6,5.7L56,5.8C56,5.7,55.9,5.6,55.6,5.7z"/>
					<path class="st2" d="M56.9,6.1L56,5.8C56,6,55.9,6.2,56.4,6C56.2,6.1,56.5,6,56.9,6.1z"/>
					<path class="st2" d="M57.2,6.4c0.3,0.4,0.8,0.9,0,0.6C58.5,7.8,58.6,7.3,57.2,6.4z"/>
					<path class="st2" d="M59.3,10.3l0.3,0.5l0.5,0.2C59.8,10.9,59.4,10.1,59.3,10.3z"/>
					<path class="st2" d="M51.9,2.9C51.8,3,52,3.4,52,3.6l0.6,0.1C52.4,3.5,51.9,3.1,51.9,2.9z"/>
					<path class="st2" d="M52.1,3.6c-0.3,0-0.7,0-1-0.1C51.9,3.8,52,3.8,52.1,3.6z"/>
					<path class="st2" d="M55.1,6.3l1.5,0.3c-0.6-0.2-1.2-0.3-1.8-0.4C54.9,6.2,55,6.2,55.1,6.3z"/>
					<path class="st2" d="M48.4,1.9c0.2-0.1,0.4-0.1,0.6-0.2c-0.4,0.1-0.7,0.2-1.1,0.3L48.4,1.9z"/>
					<path class="st2" d="M45.8,1.6c0.5-0.3-0.6-0.5-0.1-0.7c-0.4,0-0.7,0.1-1,0.2s-0.6,0.2-0.8,0.4C44.4,1.3,45,1.4,45.8,1.6z"/>
					<path class="st2" d="M43,1.9c0.3-0.1,0.5-0.2,0.8-0.4C43.6,1.6,43.3,1.7,43,1.9z"/>
					<path class="st2" d="M49.6,3c0-0.1-0.1-0.4-0.6-0.6l0.3,0.5C49.3,2.9,49.5,2.9,49.6,3z"/>
					<path class="st2" d="M49.2,2.9L49.2,2.9c-0.4-0.1-0.7-0.2-0.8-0.2C48.5,2.7,48.8,2.8,49.2,2.9z"/>
					<path class="st2" d="M49.7,3C49.6,3,49.6,3,49.7,3C49.6,3,49.6,3,49.7,3z"/>
					<path class="st2" d="M53.2,4.8c-0.6,0-1.7-0.2-0.9,0.6C52.7,5.3,52.3,4.8,53.2,4.8z"/>
					<path class="st2" d="M50,3.6L50.9,4c0-0.1-0.1-0.3,0.2-0.4H50z"/>
					<polygon class="st2" points="49.5,3.6 50,3.6 49.6,3.5 					"/>
					<path class="st2" d="M44.8,2.2c-0.4,0.2-0.9,0.2-1.4,0.3c0.6,0.1,1.1,0,1.7,0.1C45.1,2.4,45.4,2.2,44.8,2.2z"/>
					<path class="st2" d="M47,2.4L47,2.4C46.9,2.5,47,2.5,47,2.4z"/>
					<polygon class="st2" points="38.4,3.3 38.5,3.4 38.5,3.3 					"/>
					<path class="st2" d="M45.2,2.6c0.4,0.1,0.7,0,1-0.1C45.8,2.5,45.4,2.6,45.2,2.6S45,2.7,45.2,2.6z"/>
					<path class="st2" d="M41.6,2.2c0.2,0.1,0.5,0.1,0.8,0.1C42.1,2.3,41.7,2.1,41.6,2.2z"/>
					<path class="st2" d="M46.7,2.3L46.7,2.3C46.7,2.2,46.7,2.2,46.7,2.3z"/>
					<path class="st2" d="M46.7,2.3c-0.2,0-0.4,0.1-0.6,0.2c0.3,0,0.5,0,0.7-0.1C46.8,2.4,46.8,2.4,46.7,2.3z"/>
					<path class="st2" d="M37.7,6.3c-0.1-0.4,0.8-1,1.8-0.8c0.8-0.5,0-1.6-1-2.2c0,0.2,0,0.3-0.8,0.8c0.4,0.1,2.1,0,1.4,0.5
						c-1.1,0.5-1,0.1-1.6,0.1c0.6,0.3-1.2,1.1-0.8,1.7l0.9-0.5C37.7,6,37.4,6.3,37.7,6.3z"/>
					<path class="st2" d="M40.2,3l0.4-0.1c-0.4,0-0.8-0.1-1.4-0.3c-0.6,0.3-0.7,0.5-0.7,0.6c0.6-0.1,1.2-0.2,1.9-0.3L40.2,3z"/>
					<path class="st2" d="M42.3,2.6c-0.3,0.5-1.1,0.8-0.5,1.2c1.1-0.2,0.7-0.5,1.4-0.7C41.4,3.4,43.7,2.8,42.3,2.6
						c0.4-0.1,0.7-0.1,1-0.2c-0.3,0-0.7-0.1-1-0.1l0,0l0,0l0,0c0.1,0,0.1,0.1,0,0.1l0,0C42.4,2.5,42.4,2.6,42.3,2.6
						c-0.5,0-0.1-0.1,0.1-0.2c0,0,0,0,0-0.1l0,0c-0.6,0.1-1.2,0.3-1.8,0.5C41,2.9,41.5,2.8,42.3,2.6z"/>
					<path class="st2" d="M51.1,5.9C51.1,5.8,51.1,5.8,51.1,5.9C50.9,5.8,50.9,5.8,51.1,5.9z"/>
					<path class="st2" d="M50.5,5.4c0.1,0,0.3-0.1,0.7,0c0.3,0.3-0.1,0.2-0.1,0.3c0.3,0,0.9,0.1,0.3-0.5h-0.1
						C50.6,5,49.9,4.1,50,4.1C50.1,4.6,50.2,4.9,50.5,5.4z"/>
					<path class="st2" d="M46.6,3.6c-0.5,0-1,0.1-1.5,0.1l0.8,0.4V3.9C46.6,4,46.5,3.8,46.6,3.6z"/>
					<path class="st2" d="M38.1,3.1l0.1-0.5c-0.2,0.3-0.5,0.6-0.7,0.8L38.1,3.1z"/>
					<polygon class="st2" points="36.3,3.7 36.2,3.3 35.8,3.7 					"/>
					<path class="st2" d="M46.7,61.1l0.3-0.3C46.8,61,46.7,61.1,46.7,61.1z"/>
					<path class="st2" d="M44,62.2v0.2C44.1,62.3,44.1,62.2,44,62.2z"/>
					<path class="st2" d="M6.9,36.9c-0.4,0.6-1,1.3-0.6,1.2l0.4-0.2C6.7,37.5,6.8,37.1,6.9,36.9z"/>
					<path class="st2" d="M21.2,62.9c0-0.1-0.1-0.1-0.1-0.2c-0.2,0.1-0.4,0.1-0.6,0.1C20.7,62.9,21,62.9,21.2,62.9z"/>
					<path class="st2" d="M22.5,61.6l0.6,0.7C23,62.1,22.8,61.9,22.5,61.6z"/>
					<path class="st2" d="M58,51.2l-0.1-0.6C57.5,51.2,57.9,51.1,58,51.2z"/>
					<path class="st2" d="M18.3,12.5c-0.6,0.4-0.9,0.5-1.1,0.8c0.3-0.1,0.6-0.2,0.8-0.3C18.3,12.9,18.4,12.7,18.3,12.5z"/>
					<path class="st2" d="M47.5,65.8c0.2-0.2,0.3-0.3,0.2-0.4C47.5,65.6,47.4,65.8,47.5,65.8z"/>
					<path class="st2" d="M16.2,14.3c0.1,0,0.2-0.1,0.3-0.1c0.2-0.3,0.4-0.6,0.8-0.9C16.8,13.5,16.4,13.7,16.2,14.3z"/>
					<path class="st2" d="M43.3,9.9c0,0-0.1,0-0.1-0.1C43.2,9.8,43.3,9.9,43.3,9.9z"/>
					<path class="st2" d="M26.1,6.3c0.2-0.1,0.4-0.2,0.7-0.3C26.6,6.1,26.4,6.1,26.1,6.3z"/>
					<path class="st2" d="M29,6.1C29.4,5.9,29,6,29,6.1L29,6.1z"/>
					<path class="st2" d="M31.4,7c-0.1,0.1-0.1,0.2-0.1,0.3C31.3,7.2,31.4,7.1,31.4,7z"/>
					<path class="st2" d="M15.1,18.9L15.1,18.9C15.2,18.9,15.2,18.9,15.1,18.9z"/>
					<path class="st2" d="M29.6,6.1c-0.2,0-0.3,0-0.5,0.1C29.2,6.1,29.4,6.1,29.6,6.1z"/>
					<path class="st2" d="M29.5,5.9c0.1,0,0.2-0.1,0.3-0.1C29.8,5.7,29.8,5.7,29.5,5.9z"/>
					<path class="st2" d="M28.5,6.3c0.2-0.1,0.4-0.1,0.6-0.2c-0.1,0-0.1,0-0.1,0C28.9,6.1,28.7,6.2,28.5,6.3z"/>
					<path class="st2" d="M66.7,27.8C66.7,27.7,66.7,27.7,66.7,27.8C66.4,27.4,66.5,27.6,66.7,27.8z"/>
					<path class="st2" d="M11.5,47L11.5,47L11.5,47L11.5,47z"/>
					<path class="st2" d="M12,48.3c-0.6-0.5-0.6-0.8-0.5-1.3l-1.2,0.6C10.8,47.9,11.4,48.1,12,48.3z"/>
					<path class="st2" d="M52.4,57.6l-1,0.2c0.5-1.2,1.2-1.4,0.2-1.4c0.4,0.6-0.3,1.1-1,1.6s-1.4,1-1.1,1.6l-0.7,0.1
						c0.2-0.1,0.1-0.2,0.3-0.2c-1.3,0-0.3,1.3-1.8,1.8c-0.5,0.1-1,0.1-0.7-0.2c-0.3,0.3-0.6,0.5-1,0.8c-0.3,0.1-0.3-0.1,0-0.2
						c-0.5,0.3-1.1,0.5-1.7,0.8l0,0c-0.2,0.3-0.6,0.8-0.9,1c-0.5,0,0.2-0.2,0-0.3l-0.9,0.6c-0.5-0.2,0.2-0.8,0.9-1
						c-1.3-1-0.7,0.6-2.9,0.4l0.9-0.4c-0.8-0.6-1.4-0.1-2.5-0.4c0.3,0.2,2.3,0.7,1.4,1.3c-0.3,0-0.7,0-1.3,0.4
						c-0.1-0.5-0.6-0.3-1.3-0.1l-0.1-0.6c-0.7,0.3-0.6,0.6-1,1c-0.9,0-1.1-0.4-1.3-0.8c-1.3,0,1,0.7-0.6,1c-1.1-0.2-1.9,0.1-3.3,0.4
						c-0.8-0.3,0.2-0.4-0.1-0.6l-0.7,0.4c-0.2,0-0.1-0.2-0.1-0.3c-0.6,0.1-0.1,0.6-1.1,0.7c-0.2,0.3-0.6,0-1.1-0.4s-1.1-0.8-1.7-0.6
						c-0.2-0.3,0.3-0.3,0.3-0.6c-0.8,0-1.1-0.1-1.4-0.1s-0.6,0-1.3-0.1c-0.2-0.3-0.5-0.7-0.8-1c0.5,0.9-0.8,0.7-1.9,0.6
						c0.1,0.4,0.3,0.7,0.4,0.9L20,63.3c-0.1-0.2,0.1-0.3,0.5-0.4c-0.1,0-0.2,0-0.3,0c-0.4-0.5,0.1-0.7,0.6-0.8
						c0.1,0.2,0.2,0.4,0.3,0.6c0.5-0.1,1.1-0.3,1.2-0.7c-0.1,0-0.3,0-0.5-0.1c0.1,0,0.2-0.1,0.2-0.2c0-0.1-0.2-0.1-0.5,0l0.1-0.8
						l-0.2,0.2l-1.5-1.4c-1.6-0.2-3.3,0.1-5.3-1.1c0.8-0.1,0.6-0.6,1-1.1c0.1,0.9,1.5,0.8,2.4,1.6c-0.5-0.4-0.2-0.6,0-0.6
						c-0.7-0.2-1.4-0.4-2-0.7c0.3-0.4-0.1-0.6-0.4-1c-0.3,1-1.6-0.4-2.3-0.8c0.2-0.3,0.6-0.3,1.2,0.4c-0.1-0.6-0.5-0.7-1-0.7
						c-0.4,0-0.9-0.1-0.9-0.7c0.1,0.2,0.1,0.3,0.3,0.3c-0.2-0.1-0.5-0.5-0.6-0.8c0-0.2,0-0.3,0-0.4c0-0.1,0.1-0.2,0.2-0.1
						c0,0.1,0.1,0.1,0.1,0.2c-0.2-0.7-0.6-1.9-0.9-3c-0.3-1-0.7-1.9-1.2-2c0.1,0,1,0.1,1.2,0.1c-1.1-0.8-2.2-1.7-3.2-2.7
						c0.8,0.2,2.4-1,2.9,0.4c0.1-0.4,0.1-0.9-0.2-1.7c-0.1,0.3-1,0.8-1.1,0.4c0.8-1.1,0.4-0.8,1-2.1c-0.1,0.4-1.3,0-1.3-0.7
						c0.2,0.1,1.1-0.1,1.3,0.2c-0.4-0.5-0.8-1.1-1.1-1.6c0.2,0.4,1,0.1,1.3-0.3c-0.2,0.2,0-1.4-0.1-1.8L11,40
						c0.2-1.8-1.5-1.9-1.4-3.8c0.2,0.2,1.4,0.6,1.6-0.3c-0.5-0.5-2.6-2.1-2.9-3.8l0.4-0.3l-0.2-1.3c0.8,0.9,2.4,3.3,3,4.5
						c0.3-0.7,0.4-0.2,0.5-1.2c0.3-0.3,0.4,0.6,0.4,0.9l0.4-2.4c-0.7,0-0.5-1.9-1-1.9c0.1,0.9,0.3,1.8,0.4,2.7
						c-0.7,0-1.8-1.7-1.4-3.4c0.3-0.4,1.2,0.5,1.4,0.5C12,30,12,28.5,12.1,28.4l0.3,0.8c0.4-0.9-0.7-1.7,0.1-2.7
						c0.1-0.5,1-0.7,0.6-0.9c-0.8,0.2-3.2,0.1-3.7-0.6c0-0.1,0.4-0.6,0.8-1.1c0.4-0.5,1-1,1.3-1.1c0.4-0.1,0.6,0.3,0.8,0.6
						c0.2,0.4,0.4,0.7,0.7,0.6c-0.2-0.1-0.2-0.5-0.2-0.6c0.3-0.2,0.4,0.4,0.8-0.3c-0.5-0.5,1.1-1.3-0.3-0.6c0.4-0.8,0.6-0.6,1.3-1.3
						c-0.6-0.1-0.4-1.7,0.1-2.5c0.1,0.2,0.4,0.2,0.5,0.2c1.4-1.2,2.4-1.6,3.7-2.8c0.2,0,1-0.4,0.9,0c0.1-0.3,0.1-0.6,0.5-1
						c0.6-0.1,0.4,0.1,0.2,0.3c-0.2,0.3-0.4,0.6,0.1,0.5c-0.2-0.4,0.5-1.3,0.9-2c-0.3-0.2-0.6,0.1-0.9,0.5s-0.5,0.9-0.7,1.3
						c-0.3-0.3-0.4-0.8-0.3-1.5s0.5-1.5,1.1-2.2c1.1-1.1,0.8,0,1-0.2c1.2-0.7,1.5-1.3,1.8-1.9c0.3-0.5,0.7-1,1.8-1.2
						c1.1,0.1,0.5,1,0.8,1.2c-1,0.7-1.8,0.5-2.5,0.9l1-0.2c-0.3,0.3-0.9,0.8-1.3,0.9c0.4,0,1.4-0.5,2.6-1.1c1.2-0.5,2.5-1.1,3.6-1.2
						c0.3-0.3,0.8-0.7,0.4-0.8l-0.6,0.3c-0.7-0.2,0.9-1,0.1-0.9c0.7-0.6,1.5-1.4,2.7-1.6l0.4,0.5c-0.1-0.2-0.9-0.1-1.2,0.2
						c0.4-0.4,2.1,0.1,2.3-0.8l-1-0.1c0.7-0.6,1.6-1.6,2.7-1.7c-0.7-0.4-0.2,0.1-1.2-0.3c0.9,0.6-2.7,0.9-1.4,1.4
						c-1-0.5-1.4,0.2-2.7-0.1c0.1,0.2,0.5,0.2-0.4,0.5c0,0.1-0.1,0.2-0.1,0.2s0,0-0.1,0h0.1l0,0c0.2,0,0.4,0,0.5,0.1
						c-0.3,0.6-1.6,1.1-2,1.5c-0.6,0.1,0.1-0.3-0.2-0.4l-0.6,0.6c-0.2-0.4-1.7-0.1-0.5-0.9l-1.1,0.5c-0.6,0.2-1.6,0.5-2,1
						C23,8.6,22.5,9.5,22.8,9c-0.5,0.4-1.1,0.8-1.6,1.3l-0.1-0.1c-0.9,0.5-1.6,1.3-2.3,2.1c-0.8,0.9-1.3,1.5-2.3,1.8
						c-0.3,0.5-0.7,1-1.5,1.5l-0.4-0.2c-0.5,0.6-2.1,1.3-2,1.9c-0.7-0.1-1.5,0.6-2.2,1.6c-0.8,1-1.4,2.2-1.8,3L9,22.2
						c-0.1,0.3-0.2,0.6-0.4,0.8c-0.1,0.3-0.2,0.6-0.2,0.9c-0.1,0.3-0.1,0.6-0.1,1c0,0.2,0,0.3,0,0.5c0,0.1,0,0.3,0,0.4h0.5
						C9,26.9,8.1,28.3,8,29.9c-0.2-0.1-0.1-0.5,0.1-0.8c-1.2,1.8,0.3,4.1-0.6,5.8c0.1,0.4,0.1,0.8-0.1,1.1v-0.1c0,0,0,0.1,0,0.2
						c-0.1,0.2-0.2,0.4-0.3,0.6c0.1-0.2,0.2-0.3,0.3-0.5c0,0.3,0,0.9,0.1,1.4L7,37.8v0.1c-0.2,0.5,0.2,0.4,0.6,0.2
						c0.1,0.3,0.2,0.5,0.3,0.7c-0.8,0.4,0.2,1.3-0.6,1.9c0.4,0.3,0.3,2.5,1.2,2.8c-0.1,0-0.2,0.2-0.2-0.1C7.9,44,7.9,44.5,8.1,45
						l-0.6,0.3c0.3,0.4,0.6,0.8,0.9,1.2c-0.3,0.8-0.5,1.1-1,0.4c0.9,1.7,0.4,1.4,1.3,2.9H8.3c0.1,0.5,0.8,1.3,0.5,1.7
						c-0.2,0.7,0,2.1,0.7,4c0.4,1.1,1.1,1.9,1.7,2.7c0.6,0.8,1.3,1.5,1.8,2.1c0.2-1.3,0.9,1.4,1.5,0.7c0,0.3,0.3,0.7-0.3,0.6
						c1.5,0.7,1.8,1.7,3.1,1.7c0,0.3-0.5,0.2-0.4,0.4c0.1,0,0.6,0.1,0.6,0.3c0.1,0.2-0.3,0.1-0.6,0c1.4,0.8,2,0.1,2.5-0.5
						c0.5,0.7,0.9,0.9,1.6,0.8c0.1,0.4,0.3,0.8-0.5,0.4c0.1,0.1,0.3,0.2,0.6,0.4c0.3,0.2,0.5,0.4,0.9,0.7c0.7,0.5,1.5,0.8,1.7,0.5
						c0.1,0.2,0.7,0.4,0.9,0.4c1.2,0.5,1.3,0.6,2.6,0.9L27,67.3c0.7-0.6,1.1,0.1,2.1,0.2v0.1c1.1,0.5,1.4,0.4,1.7,0.4
						c0.3,0,0.5-0.1,1.7,0.3l-0.1-0.5c0.2-1,2,0.6,3.4,0.1l-0.5-0.2c0.7-0.4,2.2,1.2,3,1.2c0.2,0.1-0.2,0.2-0.5,0.3
						c2.1,0.3,0.2-0.7,1.6-1.1c0.3,0.3-0.2,0.9,0.8,0.8c0.3,0.1,0.9-0.3,1.7-0.8c0.7-0.4,1.6-0.9,2.3-0.8c-0.4-0.2-0.7-0.3-0.1-0.7
						c0.9-0.4,3,0,3.5-1.2c0.1,0,0.2,0.1,0.3,0.1c0.6-0.5,2.2-1.4,2.4-2.1c0.7,0.6,1.7-0.2,2.5-1s1.5-1.6,2-1c0.6-0.5,1.3-1,1.9-1.6
						l0.1,0.2c1.3-1,1.4-1.6,1.5-2.3c0.3-0.2,0.2,0.1,0.3,0.2c1.8-1.4,1.9-1.7,2.5-3.6l0.5,0.1c0.1-0.6,2.5-2.1,3.2-4.3
						c0,0,0.1,0.1,0.1,0.3c0.4-1.2,1.5-2.3,2.2-3.3c0.8-1,1.3-2,0.7-2.8c0.1-0.6,0.2-1.1,0.3-1.7c-1,1.9-0.6-0.6-1.2,0.1
						c0.2-0.8,1.3-1.7,1-0.8L67.4,42c0.4,0.4,0.7-0.2,1-0.8s0.5-1.3,0.8-1.2c0.6-2,1.2-4,1.5-6.2c0.3-2.1,0.2-4.4-0.5-6.5
						c-0.2,0.2-0.4,0.5-0.5,0.7c-0.1-0.5-0.3-0.9-0.4-1.4c0-0.4,0.3-0.7,0.7,0.3c0.2-0.7-1.1-1.5-1.2-1.4c-0.7-1.9,1.1,0.3,0.9-0.3
						l-0.5-0.7v0.2c-0.6-0.5-0.9-0.3-1.5-1.4c-0.3-0.7,0.1-0.6,0-0.8c0,0,0-0.1-0.3-0.4c-0.3-0.5-0.7-1-1-1.4v0.9
						c-0.7-0.4-1-1.3-1-0.2c0-0.8-1-2-2-3.1s-2.1-2-2.3-2.4c-1-0.4-1.8-1.1-2.6-2c0.1,0.3-0.2,0.9-0.9,0.1c1.2-0.7-1-1.8-1-3.1
						c0.1,0.5-0.6,0-1.2-0.5c-0.7-0.4-1.3-0.8-1,0C53.5,9.7,54.5,10,54,9.3c-1.1-0.5-2.2-1.1-3.4-1.8c-1.2-0.6-2.5-1.2-3.9-1.5
						c-0.1,0.2,0.3,0.5-0.3,0.6c-0.4-0.4-0.8-0.8-1.2-1.2c-0.6,0-0.7,0.9-1.5,0.1c0.1,0.2,0.3,0.4-0.1,0.4c-1.3-0.5-2.6-0.8-3.9-1
						c-0.6-0.1-1.4-0.2-2.1-0.2c-0.7,0-1.5,0-2.2,0c-2.9,0.2-5.6,0.8-8.5,0.9c0.8,0.1,0.3,0.3-0.2,0.5c0.4,0,0.1,0.4,0.3,0.6
						c-0.8,0-1.6,0.1-2.4,0.1c-0.2,0.8-2.2,0.9-2.2,1.6L23.1,8c-0.6,1,1.8,1.1,2,2c0.7-1.2,2.9,0.3,4.1-1.4c0.4,0.1-0.2,0.4,0,0.5
						c0.3-0.5,0.8-0.7,1.7-0.8l-0.1,0.1C32.1,8.2,33,8.2,34,8.2c0.9,0,1.9,0.1,3.2,0.4L37,8.1c0.6,0.1,0.7,0.3,0.9,0.4
						c0.4-0.3,0-0.4-0.4-0.4S36.6,8,37,7.6c0.4,0.5,1.3,0.6,2.5,0.8c1.1,0.2,2.1,0.4,2.3,1c1,0.2-0.2-0.6,0.8-0.4l0.2,0.3L43.1,9
						c0.6,0.2,0.9,0.6,0.8,0.9c-0.1-0.1-0.4,0-0.6,0c0.7,0.5,2.3,0.4,2.5,0.6L45,10c1.3,0.2,2.7,0.6,3.9,1.1
						c1.3,0.5,2.4,1.1,3.6,1.6v-0.3c1.7,0.8,0.9,1.1,2.7,2.5h-0.1c0.5,0.1,1,0.5,1.4,0.9c-0.6-0.2,0.4,1.1-0.3,0.8
						c1.9,1.2,1,0.5,2.6,0.9V18c0.6,0.1,0.7,0,1.6,0.7c-0.9-0.4,0.1,0.9-0.9,0.5c1,2.2,3,1.9,2.8,3.5c1.5,0.1-0.9-1.8-0.3-1.6
						c-0.1-0.6,1.2,0.1,1.6,0.7c0.5,0.6-0.2,1.8,0.9,3.2c-0.1-0.1-0.2-0.1-0.3-0.3c0.2,0.7,1,0.8,1.1,1.7c0.8,0.1,0.4,0.9,1.2,0.6
						c-0.3-0.4-0.6-0.9-1-1.3c0.3,0.3,0.8,0.6,1.2,0.9c0.4,0.4,0.8,0.9,0.8,1.7c-0.2-0.1-0.5-0.4-0.7-0.6c0,0.5,0.4,0.7,0.3,1.2
						c-0.4,0.1-0.6-0.4-0.8-0.9c-0.1-0.2-0.3-0.5-0.4-0.8c-0.2-0.2-0.4-0.4-0.6-0.6c-0.1,0.5,1.3,1.3,0.3,1.2c0.6,0,0.7,0.5,0.8,0.9
						c0,0.2,0.1,0.4,0.2,0.7c0.1,0.2,0.2,0.5,0.4,0.7h-0.5c0.1,0.2,0.4,0.5,0.4,0.8c-0.2-0.2-0.4-0.3-0.7-0.5
						c0.4,0.4,0.2,0.8,0.1,1.2c-0.1,0.4-0.3,0.8-0.2,1.2c0-0.9,0.2-1,0.3-0.9c0.2,0,0.4,0.2,0.6-0.2c0.6,2.3-1.2,1.2-1.3,3.7
						c0-0.3,0.5-1.2,0.6-0.6c-0.1,0.5-0.5,1.1-0.8,1.3c-0.3,1.7,0.5-0.1,0.7,0.6c-0.7,0.4,0,0.9-0.1,1.7l-0.5-0.1
						c-1,1.8,0.8,0.8-0.2,2.4c-0.1-0.3-0.2-0.6-0.3-1c0,0.3-0.1,0.6-0.2,1l-0.4-0.4c0,1.1-0.2,1.4-0.8,2.2c0.4-0.1,0.7,0.5,0.3,1.3
						c-0.5,0.4-0.2-0.5-0.8,0.7c-0.1-0.4-0.3-0.9,0.3-1.2c-0.1-0.1-0.1-0.4-0.3-0.5c-0.6,0.4-0.8,1.4-1,1.9c0.1-0.1,0.2-0.3,0.3-0.4
						c-0.1,0.7-0.2,1.3-0.3,2c-0.2,0.3-0.2,0-0.2-0.2c-0.1,0.4-0.1,0.7-0.3,1.2c-0.3-0.3-0.6-0.5-0.4-1.3l-0.6,1.8
						c-0.2,0-0.9,0.5-0.9,0.2c-0.7,0.7-0.7,2.5-1.7,3.4c0,0.1,0,0.3-0.1,0.5c-0.4,0.5-0.9,0.8-1.3,1.2c-0.4,0.4-0.8,0.9-1.1,1.5
						l-1.1,0.1c-0.7,0.9,1.4-0.1,0.2,1.3c-0.8,1.1-0.8-0.1-1.2,0c-0.2,0.7-0.7,2-2,2.2C51.8,57.9,52.1,57.8,52.4,57.6z M40,63.7
						c0.2-0.2,0.7-0.6,0.9-0.4C40.8,63.9,40.5,63.7,40,63.7z M19.8,61c0.3,0,0.5,0.2,0.7,0.6C20.3,61.5,20,61.3,19.8,61z M25,8.2
						L25,8.2C24.3,8.3,24.6,8.3,25,8.2z M26.4,7.8c0.1-0.1,0.1-0.2,0-0.2c0,0.2-0.3,0.3-0.7,0.4C25.8,8,26,8.1,26.4,7.8z M67.4,22.5
						l0.1,0.3C67,22.4,67.2,22.4,67.4,22.5z"/>
					<path class="st2" d="M22.3,61.8c0,0.1,0,0.2,0,0.3C22.5,62.1,22.5,62,22.3,61.8z"/>
					<path class="st2" d="M58,51.4L58,51.4C58,51.3,58,51.3,58,51.4L58,51.4z"/>
					<path class="st2" d="M13.3,23.8C13.2,23.9,13,24,12.9,24C13,24.1,13.1,24.1,13.3,23.8z"/>
					<path class="st2" d="M32.8,4.4L32,4.9c0.4-0.2,0.6-0.1,0.8-0.1C32.7,4.6,32.5,4.5,32.8,4.4z"/>
					<path class="st2" d="M40.9,5.2c0.1-0.1,0.3-0.1,0.4-0.1l-0.1-0.2C40.7,5,40.3,5.2,40.9,5.2z"/>
					<path class="st2" d="M34.1,5.7c0.2,0.4,0.7,0.1,1.2-0.2h-0.1C35.2,4.9,34.6,5.3,34.1,5.7z"/>
					<path class="st2" d="M35.4,5.4c0.2-0.1,0.4-0.1,0.5-0.2C36,5,35.7,5.3,35.4,5.4z"/>
					<path class="st2" d="M27.9,6.9c0.3,0,0-0.6,0.2-0.5C28.2,5.8,26.5,7.7,27.9,6.9z"/>
					<polygon class="st2" points="35,6.8 34.6,6.4 34.4,6.9 					"/>
					<path class="st2" d="M30.4,8.1l0.9-0.2c0-0.1,0.1-0.2,0.2-0.3C31,7.8,30.4,7.9,30.4,8.1z"/>
					<path class="st2" d="M31.5,7.6c0.3-0.1,0.6-0.2,0.7-0.3C32.1,7.3,31.8,7.5,31.5,7.6z"/>
					<polygon class="st2" points="33.8,7.4 33.5,7.4 32.9,7.6 					"/>
					<path class="st2" d="M21.1,12.6c-0.2,0.3-0.5,0.5-0.7,0.8c0,0.2,0.3,0.1,0.6-0.2C21.1,12.9,21.4,12.6,21.1,12.6z"/>
					<path class="st2" d="M24.5,12.1c-0.3,0-0.4,0-0.6-0.1l0.3,0.6L24.5,12.1z"/>
					<path class="st2" d="M22.2,13.7c0,0.2-0.8,1.3,0.1,0.5C22.3,14,23,13.3,22.2,13.7z"/>
					<path class="st2" d="M11.2,24.3c0-0.1,0.1-0.2,0.1-0.2l-1-0.3C10.6,24,10.9,24.2,11.2,24.3z"/>
					<path class="st2" d="M12,38.1c0.3-1.2-0.6-0.3-0.3-1.4c-0.2-0.3-0.3,0.9-0.5,0.6C11.5,38,11.3,38.4,12,38.1z"/>
					<path class="st2" d="M11.3,37.3c0-0.1-0.1-0.2-0.1-0.4C11.2,37.1,11.2,37.2,11.3,37.3z"/>
					<polygon class="st2" points="23.1,6.8 22.2,6.9 22.8,7.1 					"/>
					<path class="st2" d="M21.9,8.1l-0.4-0.5l-0.2,0.7C21.4,8.2,21.7,8,21.9,8.1z"/>
					<path class="st2" d="M37.8,62.8V63c0.1,0.1,0.3,0.1,0.7,0.1L37.8,62.8z"/>
					<polygon class="st2" points="47.2,60.2 47,60.2 47.6,60.6 					"/>
					<path class="st2" d="M53.5,55c-0.3,0.2-0.4,0.6-0.7,0.7C53.2,55.2,54,55.5,53.5,55z"/>
				</g>
			</g>
		</g>
	</g>
</g>
</svg>
