<?xml version="1.0" encoding="utf-8"?>
<!-- Generator: Adobe Illustrator 28.0.0, SVG Export Plug-In . SVG Version: 6.00 Build 0)  -->
<svg version="1.1" id="Слой_1" xmlns="http://www.w3.org/2000/svg" xmlns:xlink="http://www.w3.org/1999/xlink" x="0px" y="0px"
	 viewBox="0 0 75 75" style="enable-background:new 0 0 75 75;" xml:space="preserve">
<style type="text/css">
	.st0{fill:url(#SVGID_1_);}
	.st1{clip-path:url(#SVGID_00000019655649111441098720000006047968873946426793_);}
	.st2{fill:#4465F1;}
	.st3{fill:#FE6F64;}
	.st4{fill:#FE2876;}
	.st5{fill:#FEE736;}
	.st6{fill:#F7A670;}
	.st7{fill:#FAB0A8;}
	.st8{fill:#5698FA;}
	.st9{fill:#FEC733;}
	.st10{fill:#68D260;}
	.st11{fill:#01ECED;}
	.st12{fill:#02C0E7;}
	.st13{fill:#BFDF4B;}
	.st14{fill:#730E07;}
	.st15{fill:#EE8564;}
	.st16{fill:#9D3828;}
</style>
<linearGradient id="SVGID_1_" gradientUnits="userSpaceOnUse" x1="53.817" y1="64.4911" x2="16.9889" y2="1.6711">
	<stop  offset="0" style="stop-color:#F4AF33"/>
	<stop  offset="0.5211" style="stop-color:#FA9B5D"/>
	<stop  offset="1" style="stop-color:#FF8A80"/>
</linearGradient>
<path class="st0" d="M65.3,74H10.1c-5.2,0-9.4-4.2-9.4-9.4V9.5C0.7,4.2,4.9,0,10.1,0h55.1c5.2,0,9.4,4.2,9.4,9.4v55.1
	C74.7,69.8,70.5,74,65.3,74z"/>
<g>
	<defs>
		<path id="SVGID_00000170277547249372449030000012548020618425117090_" d="M65.3,74H10.1c-5.2,0-9.4-4.2-9.4-9.4V9.5
			C0.7,4.2,4.9,0,10.1,0h55.1c5.2,0,9.4,4.2,9.4,9.4v55.1C74.7,69.8,70.5,74,65.3,74z"/>
	</defs>
	<clipPath id="SVGID_00000100384332965542983960000017130258446827807908_">
		<use xlink:href="#SVGID_00000170277547249372449030000012548020618425117090_"  style="overflow:visible;"/>
	</clipPath>
	<g style="clip-path:url(#SVGID_00000100384332965542983960000017130258446827807908_);">
		<path class="st2" d="M64.8,51.2C73,51.8,79.6,57.9,80.8,66c0,0.1,0,0.2,0.2,0.3c0,1.9,0,3.8,0,5.8c-0.7,1.5-1.9,1.9-3.4,1.9
			c-4.3-0.1-8.6,0-12.9,0c-0.3,0-0.6,0-0.9,0c0-7.5,0-15.1,0-22.6C64,51.2,64.4,51.2,64.8,51.2z"/>
		<path class="st3" d="M37.5,73.9c-5.8,0-11.6,0-17.5,0c0-1.8,0-3.6,0-5.4c0-1.2,0.1-2.3,0.3-3.4c0.6-3,2-5.7,4-8.1
			c0.1-0.1,0.1-0.1,0.2-0.2c0.2-0.2,0.4-0.3,0.6-0.5c2.4-2.4,5.3-4,8.7-4.8c0.9-0.2,1.8-0.1,2.6-0.5c0.4,0.1,0.8,0.1,1.2,0.2
			C37.5,58.8,37.5,66.3,37.5,73.9z"/>
		<path class="st4" d="M37.5,73.9c0-7.6,0-15.1,0-22.7c0.4,0,0.8,0,1.2,0c1.2,0.1,2.4,0.3,3.6,0.6c3.3,0.9,5.9,2.8,8.3,5.2
			c0,0.1,0,0.1,0.1,0.1c0.1,0.1,0.2,0.3,0.3,0.4c2.1,2.6,3.4,5.6,3.7,9c0.3,2.4,0.1,4.9,0.1,7.3c-1.6,0-3.1,0-4.7,0
			C45.9,73.9,41.7,73.9,37.5,73.9z"/>
		<path class="st5" d="M11.4,73.9c-4.9,0-9.8,0-14.7,0c-1.4,0-2.6-1-2.6-2.3C-6,68.4-6,65.2-4.7,62.1C-2.1,56,2.5,52.4,9,51.4
			c0.3-0.1,0.7-0.1,1-0.2c0.5,0,0.9,0,1.4,0C11.4,58.8,11.4,66.3,11.4,73.9z"/>
		<path class="st6" d="M38.7,51.2c-0.4,0-0.8,0-1.2,0c-0.4-0.1-0.8-0.1-1.2-0.2c-4.9-0.6-8.4-5.6-7.2-10.5c1-4,3.8-6.1,7.8-6.7
			c0.4,0,0.8,0,1.2,0c2.6,0.3,4.7,1.4,6.3,3.5c2.7,3.4,2.1,8.8-1.2,11.6C41.9,50.1,40.4,50.8,38.7,51.2z"/>
		<path class="st7" d="M64.8,51.2c-0.4,0-0.8,0-1.2,0.1c-0.4,0-0.7,0-1.1-0.1c-0.1,0-0.3-0.1-0.4-0.1c-5.7-1-8.8-7.2-6.2-12.4
			c1.5-2.9,3.9-4.4,7.1-4.8c3.7-0.1,6.5,1.4,8.2,4.6c2.8,5.1-0.4,11.5-6.2,12.5C65,51.1,64.9,51.1,64.8,51.2z"/>
		<path class="st8" d="M62.6,51.2c0.4,0,0.7,0,1.1,0.1c0,7.5,0,15.1,0,22.6c-2.9,0-5.9,0-8.8,0c-0.1-2.4,0.1-4.9-0.1-7.3
			c-0.4-3.4-1.6-6.3-3.7-9c-0.1-0.1-0.2-0.3-0.3-0.4C53.8,53.6,57.8,51.6,62.6,51.2z"/>
		<path class="st9" d="M11.4,73.9c0-7.5,0-15.1,0-22.6c0.2,0,0.5,0,0.7,0c0.2,0,0.3,0,0.5,0c4.7,0.4,8.6,2.3,11.8,5.8
			c-2,2.4-3.4,5-4,8.1c-0.2,1.1-0.3,2.3-0.3,3.4c0,1.8,0,3.6,0,5.4C17.2,73.9,14.3,73.9,11.4,73.9z"/>
		<path class="st10" d="M62.6,51.2c-4.8,0.4-8.8,2.4-11.9,6c0,0-0.1-0.1-0.1-0.1c0-0.4,0-0.7,0-1.1c0-9.1,0-18.3,0-27.4
			c0.5,0,1-0.1,1.4-0.1c0.9,0.4,1.9,0.3,2.8,0.6c3.2,0.9,6,2.4,8.3,4.9c-3.2,0.4-5.6,1.9-7.1,4.8C53.4,43.9,56.5,50,62.2,51
			C62.3,51.1,62.4,51.1,62.6,51.2z"/>
		<path class="st11" d="M24.3,57c-3.2-3.5-7.1-5.4-11.8-5.8c0.2,0,0.3-0.1,0.5-0.1c4.5-0.9,7.5-5.1,7-9.3c-0.5-4.5-3.5-7.3-8-7.9
			c2.8-3,6.2-4.6,10.2-5.2c0.4-0.1,0.8-0.1,1.2-0.2c0.4,0,0.8,0,1.2,0l0,0.1c0,9.4,0,18.9,0,28.3C24.4,56.9,24.4,56.9,24.3,57z"/>
		<path class="st12" d="M24.5,56.8c0-9.4,0-18.9,0-28.3c0.4,0,0.9,0,1.3,0c3.9,0.5,7.4,1.9,10.3,4.5c0.3,0.3,0.7,0.5,0.9,0.9
			c-4.1,0.5-6.8,2.7-7.8,6.7c-1.3,4.8,2.2,9.8,7.2,10.5c-0.8,0.4-1.7,0.3-2.6,0.5c-3.3,0.8-6.2,2.3-8.7,4.8
			C24.8,56.5,24.6,56.7,24.5,56.8z"/>
		<path class="st13" d="M50.6,28.5c0,9.1,0,18.3,0,27.4c0,0.4,0,0.7,0,1.1c-2.3-2.4-5-4.3-8.3-5.2c-1.2-0.3-2.4-0.5-3.6-0.6
			c1.7-0.4,3.2-1.1,4.6-2.2c3.3-2.8,3.9-8.2,1.2-11.6c-1.6-2.1-3.7-3.2-6.3-3.5c2.7-3,6.2-4.7,10.2-5.2c0.3,0,0.7,0,0.9-0.3
			C49.7,28.4,50.1,28.4,50.6,28.5L50.6,28.5z"/>
		<path class="st14" d="M52,28.4c-0.5,0-1,0.1-1.4,0.1c0,0,0,0,0,0c0-5.7,0-11.5,0-17.2c3.8-0.2,7.7,2.9,8.5,6.8
			C60,22.9,57,27.5,52,28.4z"/>
		<path class="st15" d="M12.1,51.2c-0.2,0-0.5,0-0.7,0c-0.5,0-0.9,0-1.4,0c-1.6-0.5-3.2-1-4.4-2.2c-2.5-2.4-3.5-5.3-2.6-8.6
			c0.9-3.4,3.2-5.5,6.6-6.3c0.6-0.1,1.2-0.3,1.8-0.2c0,5.5,0,11,0,16.5C11.3,51.1,11.7,51,12.1,51.2z"/>
		<path class="st15" d="M25.8,28.5c-0.4,0-0.9,0-1.3,0c0,0,0-0.1,0-0.1c0-5.7,0-11.5,0-17.2c3.8-0.2,7.8,3.1,8.5,7
			c0.8,5-2,9.1-6.9,10.1C25.9,28.4,25.9,28.4,25.8,28.5z"/>
		<path class="st6" d="M24.5,11.2c0,5.7,0,11.5,0,17.2c-0.4,0-0.8,0-1.2,0c-1.5-0.4-3-0.9-4.3-1.9c-2.7-2.1-3.8-5.8-2.9-9.2
			c0.9-3.2,3.9-5.7,7.2-6.1C23.7,11.3,24.1,11.3,24.5,11.2z"/>
		<path class="st16" d="M50.6,11.3c0,5.7,0,11.5,0,17.2c-0.4,0-0.9-0.1-1.3-0.1c-4.4-0.7-7.6-4.6-7.3-9
			C42.3,14.8,45.9,11.3,50.6,11.3z"/>
		<path class="st16" d="M12.1,51.2c-0.3-0.2-0.7-0.1-0.7-0.7c0-5.5,0-11,0-16.5c0.2,0,0.4,0,0.6,0c4.5,0.6,7.5,3.4,8,7.9
			c0.5,4.2-2.4,8.4-7,9.3c-0.2,0-0.3,0.1-0.5,0.1C12.4,51.2,12.2,51.2,12.1,51.2z"/>
	</g>
</g>
</svg>
