<?xml version="1.0" encoding="utf-8"?>
<!-- Generator: Adobe Illustrator 28.0.0, SVG Export Plug-In . SVG Version: 6.00 Build 0)  -->
<svg version="1.1" id="Слой_1" xmlns="http://www.w3.org/2000/svg" xmlns:xlink="http://www.w3.org/1999/xlink" x="0px" y="0px"
	 viewBox="0 0 75 75" style="enable-background:new 0 0 75 75;" xml:space="preserve">
<style type="text/css">
	.st0{fill:url(#SVGID_1_);}
	.st1{fill:#EEE1DC;}
	.st2{fill:#FEF4F4;}
	.st3{fill:#CCBEB9;}
	.st4{fill:#E53950;}
	.st5{fill:#FE637B;}
	.st6{fill:#AE2538;}
	.st7{fill:#2CA843;}
	.st8{fill:#55D867;}
	.st9{fill:#227F2B;}
	.st10{fill:#FECB80;}
	.st11{fill:#FEA727;}
	.st12{fill:#FEA728;}
</style>
<linearGradient id="SVGID_1_" gradientUnits="userSpaceOnUse" x1="53.817" y1="64.4911" x2="16.9889" y2="1.6711">
	<stop  offset="0" style="stop-color:#F4AF33"/>
	<stop  offset="0.5211" style="stop-color:#FA9B5D"/>
	<stop  offset="1" style="stop-color:#FF8A80"/>
</linearGradient>
<path class="st0" d="M65.3,74H10.1c-5.2,0-9.4-4.2-9.4-9.4V9.5C0.7,4.2,4.9,0,10.1,0h55.1c5.2,0,9.4,4.2,9.4,9.4v55.1
	C74.7,69.8,70.5,74,65.3,74z"/>
<g>
	<path class="st1" d="M26.3,24.5c0.7,0.2,1.3,0.4,1.9,0.7c0.9,0.4,1.8,0.9,2.7,1.5c1.2,0.9,2.2,2,2.6,3.6c0,0.1,0.1,1.3,0.1,1.7
		c-0.1,0.1-0.1,0.1-0.1,0.2c-0.1,0.5-0.3,0.9-0.6,1.3c-0.8,1.3-2,2.2-3.3,2.9c-1.5,0.8-3,1.3-4.6,1.7c-1.2,0.3-2.4,0.5-3.7,0.6
		c-0.7,0.1-1.4,0.1-2.1,0.1l0,0c0-1.1,0-2.2,0-3.4c0.9,0,1.8-0.1,2.6-0.2c1.3-0.3,2.6-0.7,3.6-1.5c0.7-0.6,1.3-1.3,1.3-2.2
		c0-1.6,0-3.2,0-4.9C26.8,25.7,26.7,25.1,26.3,24.5z"/>
	<path class="st2" d="M19.2,35.3c0,1.1,0,2.2,0,3.4c-0.4,0-0.9,0-1.3,0c-1.2,0-2.4-0.2-3.5-0.4c-1.7-0.3-3.3-0.8-4.8-1.5
		c-1-0.5-1.8-1-2.6-1.7c-0.7-0.6-1.2-1.3-1.6-2.1c-0.2-0.4-0.3-0.9-0.4-1.3c0-0.1,0.1-1.2,0.1-1.3C5.1,29.4,5.5,28.6,6,28
		c1.3-1.5,2.9-2.4,4.7-3.1c0.3-0.1,0.6-0.2,1-0.4c0.1,0,0.2,0,0.3,0c-0.3,0.6-0.5,1.2-0.4,1.8c0,1.6,0,3.3,0,4.9
		c0,0.3,0.1,0.5,0.2,0.8c0.3,0.9,1,1.5,1.8,2C15.3,34.9,17.2,35.2,19.2,35.3C19.2,35.2,19.2,35.3,19.2,35.3z"/>
	<path class="st1" d="M4.8,31.5c0.1,0.4,0.2,0.9,0.4,1.3c0.4,0.8,0.9,1.5,1.6,2.1c0.8,0.7,1.7,1.3,2.6,1.7c1.5,0.7,3.2,1.2,4.8,1.5
		c1.2,0.2,2.3,0.4,3.5,0.4c0.4,0,0.9,0,1.3,0c0,0,0,0,0,0c0,1.1,0,2.3,0,3.4c-0.4,0-0.9,0-1.3,0C17.8,42,17.7,42,17.7,42
		c-0.8,0-1.7-0.1-2.5-0.2c-1.5-0.2-2.9-0.6-4.3-1.1C9,39.9,7.3,39,6,37.5c-0.7-0.9-1.2-1.9-1.2-3.1C4.8,33.5,4.8,32.5,4.8,31.5z"/>
	<path class="st3" d="M19.2,42.1c0-1.1,0-2.3,0-3.4c0.7,0,1.4,0,2.1-0.1c1.2-0.1,2.5-0.3,3.7-0.6c1.6-0.4,3.2-0.9,4.6-1.7
		c1.3-0.7,2.4-1.6,3.3-2.9c0.3-0.4,0.4-0.8,0.6-1.3c0-0.1,0-0.2,0.1-0.2c0,1,0,2,0,3c-0.1,0.3-0.1,0.5-0.2,0.8
		c-0.4,1.3-1.3,2.3-2.3,3.1c-1.2,1-2.6,1.6-4.1,2.1c-1.8,0.6-3.6,0.9-5.4,1.1c-0.3,0-0.7,0-1,0.1C20.2,42.1,19.7,42.1,19.2,42.1z"/>
	<path class="st4" d="M26.3,24.5c0.4,0.6,0.5,1.3,0.4,2c-0.1,0.4-0.3,0.8-0.5,1.2c-0.6,0.9-1.5,1.4-2.5,1.8c-1.5,0.6-3,0.8-4.6,0.8
		c0-2.8,0-5.6,0-8.4c1.6,0,3.2,0.2,4.8,0.9C24.9,23.1,25.7,23.6,26.3,24.5z"/>
	<path class="st5" d="M19.2,21.8c0,2.8,0,5.6,0,8.4l0,0c-0.4,0-0.7,0-1.1,0c-1.2-0.1-2.4-0.3-3.5-0.7c-1.4-0.6-2.7-1.4-3-3.1
		c-0.1-0.6,0.1-1.2,0.4-1.8c1.1-1.5,2.6-2.1,4.3-2.5C17.3,21.9,18.2,21.8,19.2,21.8z"/>
	<path class="st6" d="M19.2,30.2c1.6,0,3.1-0.2,4.6-0.8c1-0.4,1.8-0.9,2.5-1.8c0.3-0.3,0.4-0.7,0.5-1.2c0,1.6,0,3.2,0,4.9
		c0,0.9-0.6,1.6-1.3,2.2c-1.1,0.8-2.3,1.3-3.6,1.5c-0.9,0.2-1.7,0.2-2.6,0.2c0,0,0,0,0,0C19.2,33.6,19.2,31.9,19.2,30.2
		C19.2,30.2,19.2,30.2,19.2,30.2z"/>
	<path class="st4" d="M19.2,30.2c0,1.7,0,3.4,0,5c-2,0-3.9-0.3-5.6-1.3c-0.8-0.5-1.5-1.1-1.8-2c-0.1-0.2-0.2-0.5-0.2-0.8
		c0-1.6,0-3.3,0-4.9c0.3,1.7,1.6,2.5,3,3.1c1.1,0.5,2.3,0.7,3.5,0.7C18.5,30.2,18.8,30.2,19.2,30.2z"/>
</g>
<g>
	<path class="st1" d="M63.1,24.5c0.7,0.2,1.3,0.4,1.9,0.7c0.9,0.4,1.8,0.9,2.7,1.5c1.2,0.9,2.2,2,2.6,3.6c0,0.1,0.1,1.3,0.1,1.7
		c-0.1,0.1-0.1,0.1-0.1,0.2c-0.1,0.5-0.3,0.9-0.6,1.3c-0.8,1.3-2,2.2-3.3,2.9c-1.5,0.8-3,1.3-4.6,1.7c-1.2,0.3-2.4,0.5-3.7,0.6
		c-0.7,0.1-1.4,0.1-2.1,0.1l0,0c0-1.1,0-2.2,0-3.4c0.9,0,1.8-0.1,2.6-0.2c1.3-0.3,2.6-0.7,3.6-1.5c0.7-0.6,1.3-1.3,1.3-2.2
		c0-1.6,0-3.2,0-4.9C63.7,25.7,63.5,25.1,63.1,24.5z"/>
	<path class="st2" d="M56,35.3c0,1.1,0,2.2,0,3.4c-0.4,0-0.9,0-1.3,0c-1.2,0-2.4-0.2-3.5-0.4c-1.7-0.3-3.3-0.8-4.8-1.5
		c-1-0.5-1.8-1-2.6-1.7c-0.7-0.6-1.2-1.3-1.6-2.1c-0.2-0.4-0.3-0.9-0.4-1.3c0-0.1,0.1-1.2,0.1-1.3c0.2-0.8,0.6-1.5,1.1-2.2
		c1.3-1.5,2.9-2.4,4.7-3.1c0.3-0.1,0.6-0.2,1-0.4c0.1,0,0.2,0,0.3,0c-0.3,0.6-0.5,1.2-0.4,1.8c0,1.6,0,3.3,0,4.9
		c0,0.3,0.1,0.5,0.2,0.8c0.3,0.9,1,1.5,1.8,2C52.1,34.9,54,35.2,56,35.3C56,35.2,56,35.3,56,35.3z"/>
	<path class="st1" d="M41.6,31.5c0.1,0.4,0.2,0.9,0.4,1.3c0.4,0.8,0.9,1.5,1.6,2.1c0.8,0.7,1.7,1.3,2.6,1.7c1.5,0.7,3.2,1.2,4.8,1.5
		c1.2,0.2,2.3,0.4,3.5,0.4c0.4,0,0.9,0,1.3,0c0,0,0,0,0,0c0,1.1,0,2.3,0,3.4c-0.4,0-0.9,0-1.3,0C54.7,42,54.6,42,54.5,42
		c-0.8,0-1.7-0.1-2.5-0.2c-1.5-0.2-2.9-0.6-4.3-1.1c-1.8-0.7-3.5-1.6-4.8-3.1c-0.7-0.9-1.2-1.9-1.2-3.1
		C41.6,33.5,41.6,32.5,41.6,31.5z"/>
	<path class="st3" d="M56,42.1c0-1.1,0-2.3,0-3.4c0.7,0,1.4,0,2.1-0.1c1.2-0.1,2.5-0.3,3.7-0.6c1.6-0.4,3.2-0.9,4.6-1.7
		c1.3-0.7,2.4-1.6,3.3-2.9c0.3-0.4,0.4-0.8,0.6-1.3c0-0.1,0-0.2,0.1-0.2c0,1,0,2,0,3c-0.1,0.3-0.1,0.5-0.2,0.8
		c-0.4,1.3-1.3,2.3-2.3,3.1c-1.2,1-2.6,1.6-4.1,2.1c-1.8,0.6-3.6,0.9-5.4,1.1c-0.3,0-0.7,0-1,0.1C57,42.1,56.5,42.1,56,42.1z"/>
	<path class="st7" d="M63.1,24.5c0.4,0.6,0.5,1.3,0.4,2c-0.1,0.4-0.3,0.8-0.5,1.2c-0.6,0.9-1.5,1.4-2.5,1.8c-1.5,0.6-3,0.8-4.6,0.8
		c0-2.8,0-5.6,0-8.4c1.6,0,3.2,0.2,4.8,0.9C61.7,23.1,62.5,23.6,63.1,24.5z"/>
	<path class="st8" d="M56,21.8c0,2.8,0,5.6,0,8.4l0,0c-0.4,0-0.7,0-1.1,0c-1.2-0.1-2.4-0.3-3.5-0.7c-1.4-0.6-2.7-1.4-3-3.1
		c-0.1-0.6,0.1-1.2,0.4-1.8c1.1-1.5,2.6-2.1,4.3-2.5C54.1,21.9,55,21.8,56,21.8z"/>
	<path class="st9" d="M56,30.2c1.6,0,3.1-0.2,4.6-0.8c1-0.4,1.8-0.9,2.5-1.8c0.3-0.3,0.4-0.7,0.5-1.2c0,1.6,0,3.2,0,4.9
		c0,0.9-0.6,1.6-1.3,2.2c-1.1,0.8-2.3,1.3-3.6,1.5c-0.9,0.2-1.7,0.2-2.6,0.2c0,0,0,0,0,0C56,33.6,56,31.9,56,30.2
		C56,30.2,56,30.2,56,30.2z"/>
	<path class="st7" d="M56,30.2c0,1.7,0,3.4,0,5c-2,0-3.9-0.3-5.6-1.3c-0.8-0.5-1.5-1.1-1.8-2c-0.1-0.2-0.2-0.5-0.2-0.8
		c0-1.6,0-3.3,0-4.9c0.3,1.7,1.6,2.5,3,3.1c1.1,0.5,2.3,0.7,3.5,0.7C55.3,30.2,55.7,30.2,56,30.2z"/>
</g>
<g>
	<path class="st10" d="M39.2,38.5c0.5-1,1.3-1.5,2.4-1.4c1.1,0,1.9,0.6,2.3,1.6c0.1,0.3,0.1,0.7,0.4,0.9c0,0,0,0,0,0
		c-0.1,0.1,0,0.1,0,0.2l0,0c0,0,0,0.1,0.1,0.1c0.2,0.7,0.5,1.4,0.8,2.1c0.1,0.4,0.4,0.6,0.8,0.6c0.3,0,0.4,0,0.3-0.4
		c-0.5-1.2-0.9-2.4-1.4-3.6c0-0.1-0.1-0.2-0.2-0.3c0.5-0.9,1.3-1.4,2.3-1.5c1.1,0,1.9,0.5,2.4,1.5c0.1,0.2,0.2,0.5,0.3,0.7
		c1.6,4.3,3.3,8.7,4.9,13c0.4,1.1,0.7,2.2,0.7,3.4c0,0.9-0.1,1.8-0.4,2.6c0,0.1-0.1,0.2,0,0.2c-0.3,0.6-0.5,1.1-0.8,1.7
		c-0.3,0.4-0.6,0.8-0.9,1.2c-1,1.2-2.2,2-3.7,2.5c-2.6,1-5.1,1.9-7.7,2.9c-1.9,0.7-3.9,0.6-5.7-0.3c-1-0.5-1.8-1.2-2.6-1.9
		c-3.5-2.6-6.9-5.3-10.4-7.9c-0.9-0.7-1.3-2.1-0.8-3.1c0.5-1.1,1.7-1.8,2.9-1.5c2.4,0.5,4.9,0.9,7.3,1.4c0,0,0.1,0,0.1,0
		c0-0.2-0.1-0.3-0.1-0.5c-2.5-6.6-5-13.2-7.4-19.8c-0.4-1.1-0.3-2,0.5-2.8c1.4-1.4,3.6-0.9,4.3,0.9c1.1,2.9,2.1,5.7,3.2,8.6
		c0.1,0.1,0,0.3,0.2,0.4c0,0,0,0,0,0c-0.1,0.1,0,0.1,0,0.2c0.1,0.1,0.1,0.3,0.1,0.5c0.6,1.7,1.3,3.3,1.9,5c0.1,0.3,0.3,0.5,0.6,0.6
		c0.1,0,0.3,0.1,0.4,0c0.1-0.1,0-0.3,0-0.4c-0.8-2.2-1.7-4.5-2.5-6.7c0-0.1-0.1-0.3-0.2-0.3c0.5-1,1.3-1.5,2.4-1.5
		c1.2,0,2,0.7,2.4,1.8c0.1,0.2,0.1,0.5,0.4,0.7c0,0,0,0,0,0c-0.1,0.1,0,0.1,0,0.2c0.3,1.3,0.9,2.5,1.3,3.8c0.2,0.5,0.5,0.8,0.9,0.8
		c0.2,0,0.3-0.1,0.2-0.3C40.6,42.3,39.9,40.4,39.2,38.5z"/>
	<path class="st11" d="M33.7,38.8c0.1,0.1,0.2,0.2,0.2,0.3c0.8,2.2,1.7,4.5,2.5,6.7c0,0.1,0.2,0.3,0,0.4c-0.1,0.1-0.3,0.1-0.4,0
		c-0.3-0.1-0.5-0.3-0.6-0.6c-0.6-1.7-1.3-3.3-1.9-5c-0.1-0.2,0-0.3-0.1-0.5c0-0.1,0-0.1,0-0.2c0,0,0,0,0,0
		C33.4,39.6,33.4,39.2,33.7,38.8z"/>
	<path class="st12" d="M39.2,38.5c0.7,1.9,1.4,3.7,2.1,5.6c0.1,0.2,0,0.3-0.2,0.3c-0.4,0-0.7-0.2-0.9-0.8c-0.4-1.3-1-2.5-1.3-3.8
		c0-0.1,0-0.1,0-0.2c0,0,0,0,0,0C39,39.3,38.9,38.9,39.2,38.5z"/>
	<path class="st12" d="M44.7,38.4c0.1,0.1,0.1,0.2,0.2,0.3c0.5,1.2,0.9,2.4,1.4,3.6c0.1,0.3,0,0.4-0.3,0.4c-0.4,0-0.6-0.2-0.8-0.6
		c-0.3-0.7-0.6-1.4-0.8-2.1c0,0,0-0.1-0.1-0.1c0,0,0,0,0,0c0.1-0.1,0.1-0.1,0-0.2c0,0,0,0,0,0C44.5,39.2,44.5,38.7,44.7,38.4z"/>
</g>
</svg>
