<?xml version="1.0" encoding="utf-8"?>
<!-- Generator: Adobe Illustrator 28.0.0, SVG Export Plug-In . SVG Version: 6.00 Build 0)  -->
<svg version="1.1" id="Слой_1" xmlns="http://www.w3.org/2000/svg" xmlns:xlink="http://www.w3.org/1999/xlink" x="0px" y="0px"
	 viewBox="0 0 75 75" style="enable-background:new 0 0 75 75;" xml:space="preserve">
<style type="text/css">
	.st0{fill:url(#SVGID_1_);}
	.st1{fill:#808599;}
	.st2{fill:#59D7FE;}
	.st3{fill:#01C2EF;}
	.st4{fill:#9AF47D;}
	.st5{fill:#B3FE87;}
</style>
<linearGradient id="SVGID_1_" gradientUnits="userSpaceOnUse" x1="53.817" y1="64.4911" x2="16.9889" y2="1.6711">
	<stop  offset="0" style="stop-color:#F4AF33"/>
	<stop  offset="0.5211" style="stop-color:#FA9B5D"/>
	<stop  offset="1" style="stop-color:#FF8A80"/>
</linearGradient>
<path class="st0" d="M65.3,74H10.1c-5.2,0-9.4-4.2-9.4-9.4V9.5C0.7,4.2,4.9,0,10.1,0h55.1c5.2,0,9.4,4.2,9.4,9.4v55.1
	C74.7,69.8,70.5,74,65.3,74z"/>
<g>
	<path class="st1" d="M44.2,9.1C45,6.9,46,4.7,46.9,2.5c0.3-0.7,0.9-0.9,1.5-0.6C49,2.2,49.2,2.7,49,3.4c-0.3,1.2-0.3,1.1,0.7,1.7
		c6.8,3.6,11.6,9,14.3,16.2c2,5.4,2.5,11,1.2,16.7c-2.6,10.8-9.1,18.1-19.6,21.9c-2.1,0.8-4.4,1.2-6.6,1.5c-0.5,0-0.5,0.2-0.5,0.6
		c0,1.6,0,3.3,0,4.9c0,0.5,0.2,0.6,0.6,0.6c2.2,0,4.4,0,6.5,0c0.8,0,1.4,0.3,1.7,1c0.3,0.7,0.7,1.4,1.1,2.2c0.4,0.8,0.3,1.1-0.4,1.6
		c-8,0-16,0-24,0c-0.6-0.5-0.7-1-0.3-1.7c0.4-0.7,0.7-1.4,1-2.1c0.3-0.7,0.8-1.1,1.7-1c2.2,0,4.4,0,6.6,0c0.4,0,0.6,0,0.6-0.5
		c0-1.7,0-3.3,0-5c0-0.3,0-0.5-0.4-0.5c-2.4-0.2-4.7-0.7-7-1.5c-0.5-0.2-0.7-0.1-0.8,0.4c-0.1,0.3-0.2,0.6-0.4,0.8
		c-0.3,0.4-0.7,0.5-1.2,0.3c-0.5-0.2-0.7-0.5-0.7-1c0-0.3,0.1-0.5,0.2-0.8c0.9-2.1,1.7-4.2,2.6-6.3c0.7,0.3,1.5,0.6,2.2,0.9
		c-0.4,0.9-0.7,1.8-1.1,2.6c-0.2,0.5-0.1,0.7,0.4,0.8c5,1.6,10.1,1.9,15.2,0.7c5.9-1.4,10.9-4.5,14.8-9.2c5-6.1,7-13.2,6.1-21
		c-0.6-4.5-2.2-8.7-4.9-12.4c-2.7-3.7-6-6.6-10.1-8.7c-0.5-0.2-0.7-0.2-0.9,0.3c-0.3,0.9-0.7,1.8-1.1,2.7
		C45.6,9.7,44.9,9.4,44.2,9.1z"/>
	<path class="st2" d="M44.2,9.1c0.7,0.3,1.4,0.6,2.1,0.9c1.3,0.7,2.5,1.4,3.7,2.2c2.7,2,5,4.3,6.6,7.3c-1.5,0.5-2.6,1.2-3,2.9
		c-0.3,1.2-1.4,1.7-2.6,1.6c-0.4-0.1-0.8-0.1-1.2-0.1c-0.9,0-1.4,0.3-1.8,1.2c-0.4,1-0.8,2,0.2,3c-0.9,0.1-1.7,0.3-2.2,0.8
		c-0.7,0.7-1.3,1.4-1.8,2.2c-0.4,0.7-0.6,1.4-0.6,2.2c0,2.3,1.1,3.8,3.2,4.8c1.6,0.7,2,1.8,1.5,3.5c-0.3,1-0.7,1.9-1,2.9
		c-0.4,1.2-0.1,2.5-0.2,3.7c-1-0.2-2-0.4-3-0.6c-3.4-0.9-6.4-2.6-9.2-4.8c-0.2-0.1-0.3-0.3-0.3-0.5c0.5,0,1,0,1.4-0.5
		c0.4-0.6,0.9-1.2,1.2-1.9c0.7-1.3,0-3.3-1.4-3.9c-0.9-0.3-1.4-0.9-1.7-1.7c-0.3-0.6-0.6-1.2-0.9-1.9c-0.3-0.6-0.7-1.1-1.2-1.6
		c-1.6-1.3-3.4-2.3-5.2-3.4c-0.1-0.1-0.1-0.1-0.2-0.2c-0.1-1.3-0.2-2.6-0.1-3.9c0,0,0-0.1,0-0.1c0.1,0,0.2,0,0.3,0
		c1.1,0.1,1.2,0.2,0.9,1.2c-0.2,0.6,0.1,1.2,0.6,1.4c0.6,0.3,1.3,0.1,1.6-0.6c0.3-0.6,0.6-1.3,0.9-1.9c0.1-0.3,0.4-0.5,0.7-0.7
		c1.7-0.9,3.3-1.7,5-2.6c1.1-0.6,2.1-1.2,3.3-0.4c0.6,0.3,1-0.2,1.3-0.6c0.3-0.4,0.1-0.8-0.1-1.1c-0.4-0.5-0.7-0.9-1.1-1.4
		c-0.2-0.3-0.5-0.6-0.3-1.1c0.2-0.4,0.6-0.4,1-0.3c0.7,0,1.3,0.1,2,0.2c0.6,0.1,0.5-0.4,0.6-0.7c0.1-0.4-0.3-0.3-0.4-0.4
		c-1.4-0.5-2.8-1-4.3-1.5c-0.6-0.2-1.1-0.2-1.7-0.1c-0.9,0.3-1.8,0.5-2.6,0.7c-0.6,0.2-1-0.2-0.9-0.9c0-0.2,0.1-0.4,0.2-0.6
		c0.2-0.7,0-1-0.7-1.3c-0.5-0.2-1-0.2-1.6-0.2c0.4-1,1.3-1.6,1.9-2.5c2.4-0.3,4.8-0.2,7.2,0.2C41.6,8.3,42.9,8.8,44.2,9.1z
		 M51.6,18.5c-0.2,0-0.3,0-0.5,0.1c-0.7,0.5-1.4,1.1-1.8,1.8c-0.3,0.5-0.1,1,0.4,1.3c0.4,0.4,1,0.4,1.4,0c0.5-0.4,1-1,1.5-1.5
		c0.3-0.4,0.3-0.8,0-1.2C52.4,18.7,52.1,18.5,51.6,18.5z"/>
	<path class="st3" d="M34.7,42.2c0,0.2,0.2,0.4,0.3,0.5c2.7,2.2,5.8,3.9,9.2,4.8c1,0.3,2,0.4,3,0.6c0,0,0,0,0,0
		c-0.1,1.5,0.2,2.8,1.5,3.7c-0.7,0.5-1.5,0.9-2.3,1.3c-3.7,1.8-7.5,2.5-11.6,2.3c-2.4-0.1-4.6-0.6-6.8-1.3c-0.7-0.3-1.5-0.6-2.2-0.9
		c-2-1-3.9-2.2-5.6-3.8c-3.8-3.4-6.3-7.5-7.4-12.4C11,28.8,13,21.5,18.7,15.3c0.1-0.1,0.2-0.1,0.3-0.2c0,1.4-0.1,2.8-0.1,4.2
		c0,0.8,0.2,1.7,0.9,2.1c0.6,0.3,0.8,0.7,0.7,1.4c0,0.2,0,0.5,0,0.8c0.1,1.9,0.8,3.4,2.4,4.4c0.9,0.5,1.7,1.1,2.6,1.6
		c0.6,0.3,0.6,0.6,0.2,1.1c-0.7,0.8-0.9,1.8-1.2,2.8c-0.3,1.1,0.4,1.8,0.9,2.6c1.8,2.6,1.8,2.3,0.6,5.3c-0.9,2.3-0.7,4.6-0.5,7
		c0,0.5,0.3,0.9,0.9,1c0.6,0.1,1-0.2,1.1-0.8c0.2-0.7,0.5-1.3,0.7-2c0.2-0.6,0.5-0.9,1.1-1c1.5-0.2,2.6-0.9,3.2-2.2
		c0.1-0.2,0.2-0.3,0.4-0.5c0.3-0.4,0.6-0.7,1.1-0.7c0.1,0,0.2,0.1,0.3,0.1C34.4,42.2,34.5,42.3,34.7,42.2L34.7,42.2z"/>
	<path class="st4" d="M34.1,42c-0.5,0-0.9,0.3-1.1,0.7c-0.1,0.2-0.3,0.3-0.4,0.5c-0.7,1.3-1.8,2.1-3.2,2.2c-0.6,0.1-1,0.4-1.1,1
		c-0.2,0.7-0.5,1.3-0.7,2c-0.2,0.5-0.5,0.8-1.1,0.8c-0.6-0.1-0.8-0.5-0.9-1c-0.2-2.3-0.4-4.7,0.5-7c1.2-3,1.2-2.6-0.6-5.3
		c-0.5-0.8-1.2-1.6-0.9-2.6c0.3-1,0.5-2,1.2-2.8c0.4-0.5,0.4-0.7-0.2-1.1c-0.9-0.5-1.8-1.1-2.6-1.6c-1.6-1-2.3-2.5-2.4-4.4
		c0-0.3,0-0.5,0-0.8c0.1-0.6-0.1-1-0.7-1.4c-0.8-0.4-0.9-1.3-0.9-2.1c0-1.4,0.1-2.8,0.1-4.2c0.8-1,1.8-1.8,2.9-2.6
		c1.9-1.4,3.9-2.5,6.1-3.3c0.2,0.5,0.4,0.9,0.7,1.4c0.3,0.5,0.7,0.6,1.2,0.4c0.4-0.2,0.8-0.4,1.2-0.4c0,0.3-0.2,0.4-0.3,0.6
		c-1.5,2.1-2.5,4.5-3.2,7c-0.5,1.7-0.7,3.4-0.8,5.1c0,0,0,0.1,0,0.1c-0.9,0.1-1.6,0.6-1.9,1.4c-0.3,0.6-0.1,1.1,0.4,1.4
		c0.5,0.4,1.1,0.7,1.7,1c0.1,0.1,0.1,0.1,0.2,0.2c0,0.2,0,0.4,0,0.6c0.5,3.3,1.7,6.3,3.4,9.2C31.4,39,32.7,40.5,34.1,42z"/>
	<path class="st3" d="M30.9,10.6c-0.4,0-0.8,0.3-1.2,0.4c-0.5,0.2-0.9,0.1-1.2-0.4c-0.2-0.5-0.4-0.9-0.7-1.4
		c1.7-0.6,3.4-1.1,5.2-1.2c-0.6,0.9-1.5,1.5-1.9,2.5c0,0,0,0,0,0c-0.1,0-0.1,0.1-0.2,0.1C31,10.5,31,10.5,30.9,10.6z"/>
	<path class="st5" d="M56.6,19.5c1.3,2,2.1,4.2,2.7,6.6c0.3,1.2,0.5,2.3,0.5,3.5c-2-0.9-4-1.7-5.9-2.6c-0.5-0.2-0.8-0.1-1.2,0.2
		c-0.6,0.7-1.1,1.5-2.3,1.6c1.5,0.5,2.3,1.7,3.2,2.8c0.6,0.8,1.4,1.3,2.3,1c1.4-0.4,2.6-0.1,3.9,0.3c0,2.7-0.7,5.2-1.7,7.6
		c-1.1,2.8-2.7,5.4-4.9,7.5c-2,0.2-4,0.2-6.1,0c0,0,0,0,0,0c0.1-1.2-0.2-2.5,0.2-3.7c0.3-1,0.6-2,1-2.9c0.6-1.7,0.1-2.7-1.5-3.5
		c-2.1-0.9-3.2-2.5-3.2-4.8c0-0.8,0.2-1.5,0.6-2.2c0.5-0.8,1.2-1.5,1.8-2.2c0.5-0.6,1.3-0.7,2.2-0.8c-1.1-1-0.6-2-0.2-3
		c0.3-0.8,0.9-1.2,1.8-1.2c0.4,0,0.8,0,1.2,0.1c1.2,0.2,2.4-0.4,2.6-1.6C54,20.7,55.1,20,56.6,19.5z M48.4,28.1L48.4,28.1L48.4,28.1
		L48.4,28.1z"/>
	<path class="st5" d="M30.9,10.6c0,0,0.1,0,0.1-0.1c0.1,0,0.1,0,0.2-0.1c0,0,0,0,0,0c0.5,0,1.1,0,1.6,0.2c0.7,0.2,0.9,0.6,0.7,1.3
		c-0.1,0.2-0.1,0.4-0.2,0.6c-0.1,0.6,0.3,1,0.9,0.9c0.9-0.2,1.8-0.5,2.6-0.7c0.6-0.2,1.1-0.1,1.7,0.1c1.4,0.5,2.9,1,4.3,1.5
		c0.2,0.1,0.6,0,0.4,0.4c-0.1,0.3-0.1,0.8-0.6,0.7c-0.7-0.1-1.3-0.1-2-0.2c-0.4,0-0.7,0-1,0.3c-0.2,0.4,0,0.7,0.3,1.1
		c0.4,0.5,0.7,0.9,1.1,1.4c0.3,0.3,0.5,0.7,0.1,1.1c-0.3,0.4-0.7,1-1.3,0.6c-1.3-0.7-2.3-0.1-3.3,0.4c-1.6,0.9-3.3,1.8-5,2.6
		c-0.3,0.2-0.5,0.4-0.7,0.7c-0.3,0.6-0.6,1.3-0.9,1.9c-0.3,0.6-1,0.8-1.6,0.6c-0.5-0.3-0.8-0.8-0.6-1.4c0.3-1,0.2-1.1-0.9-1.2
		c-0.1,0-0.2,0-0.3,0c0.2-1.7,0.4-3.4,0.8-5.1c0.7-2.5,1.7-4.9,3.2-7C30.7,11,30.9,10.8,30.9,10.6z"/>
	<path class="st5" d="M34.1,42c-1.4-1.5-2.7-3-3.8-4.7c-1.8-2.8-2.9-5.9-3.4-9.2c0-0.2,0-0.4,0-0.6c1.8,1,3.5,2.1,5.2,3.4
		c0.5,0.4,0.9,0.9,1.2,1.6c0.3,0.6,0.6,1.2,0.9,1.9c0.3,0.8,0.9,1.4,1.7,1.7c1.4,0.6,2.1,2.5,1.4,3.9c-0.4,0.7-0.8,1.3-1.2,1.9
		c-0.3,0.5-0.8,0.5-1.4,0.5c0,0,0,0,0,0c-0.1-0.1-0.2-0.1-0.3-0.1C34.3,42.1,34.2,42,34.1,42z"/>
	<path class="st5" d="M51.6,18.5c0.5,0,0.8,0.2,1,0.6c0.2,0.4,0.3,0.9,0,1.2c-0.5,0.5-1,1.1-1.5,1.5c-0.4,0.3-0.9,0.3-1.4,0
		c-0.4-0.4-0.6-0.9-0.4-1.3c0.4-0.8,1.1-1.3,1.8-1.8C51.3,18.5,51.5,18.5,51.6,18.5z"/>
	<path class="st3" d="M26.7,27.2c-0.6-0.3-1.2-0.7-1.7-1c-0.5-0.4-0.7-0.9-0.4-1.4c0.4-0.8,1-1.4,1.9-1.4
		C26.5,24.6,26.6,25.9,26.7,27.2z"/>
	<path class="st4" d="M47.2,48.2c2,0.2,4,0.2,6.1,0c-1.3,1.5-2.8,2.7-4.6,3.7C47.4,50.9,47.1,49.6,47.2,48.2z"/>
	<path class="st2" d="M34.4,42.1c0.1,0,0.2,0,0.3,0.1C34.5,42.3,34.4,42.2,34.4,42.1z"/>
	<path class="st2" d="M31.2,10.4c0,0.1-0.1,0.1-0.2,0.1C31.1,10.5,31.2,10.4,31.2,10.4z"/>
	<path class="st2" d="M59.9,33c-1.3-0.5-2.5-0.7-3.9-0.3c-0.9,0.3-1.7-0.3-2.3-1c-0.9-1.1-1.7-2.3-3.2-2.8c1.1-0.1,1.6-1,2.3-1.6
		c0.4-0.4,0.7-0.5,1.2-0.2c2,0.9,3.9,1.7,5.9,2.6C59.9,30.7,60.1,31.9,59.9,33z"/>
	<polygon class="st2" points="48.4,28.1 48.4,28.1 48.3,28.1 	"/>
</g>
</svg>
