<?xml version="1.0" encoding="utf-8"?>
<!-- Generator: Adobe Illustrator 28.0.0, SVG Export Plug-In . SVG Version: 6.00 Build 0)  -->
<svg version="1.1" id="Слой_1" xmlns="http://www.w3.org/2000/svg" xmlns:xlink="http://www.w3.org/1999/xlink" x="0px" y="0px"
	 viewBox="0 0 75 75" style="enable-background:new 0 0 75 75;" xml:space="preserve">
<style type="text/css">
	.st0{fill:url(#SVGID_1_);}
	.st1{fill:#DE5A49;}
	.st2{fill:#2E9CF4;}
	.st3{fill:#5FD2AE;}
	.st4{fill:#F9F93A;}
</style>
<linearGradient id="SVGID_1_" gradientUnits="userSpaceOnUse" x1="53.817" y1="64.4911" x2="16.9889" y2="1.6711">
	<stop  offset="0" style="stop-color:#F4AF33"/>
	<stop  offset="0.5211" style="stop-color:#FA9B5D"/>
	<stop  offset="1" style="stop-color:#FF8A80"/>
</linearGradient>
<path class="st0" d="M65.3,74H10.1c-5.2,0-9.4-4.2-9.4-9.4V9.5C0.7,4.2,4.9,0,10.1,0h55.1c5.2,0,9.4,4.2,9.4,9.4v55.1
	C74.7,69.8,70.5,74,65.3,74z"/>
<g>
	<path class="st1" d="M5.2,54c3-4.1,6.1-8.1,9.1-12.2c0.7-0.9,1.8-0.8,2.6,0.1c1.5,2,3,4.1,4.6,6.1c1.3,1.8,2.7,3.6,4,5.3
		c0.4,0.5,0.6,1.1,0.3,1.7c-0.3,0.6-0.9,0.9-1.5,0.9c-0.7,0-1.4,0-2.1,0c-0.5,0-0.6,0.1-0.6,0.6c0,3,0,6.1,0,9.1c0,1.5-0.5,2-2,2
		c-2.7,0-5.3,0-8,0c-1.2,0-1.8-0.6-1.8-1.8c0-3.1,0-6.2,0-9.3c0-0.5-0.1-0.7-0.6-0.6c-0.6,0-1.2,0-1.8,0c-0.9,0.1-1.6-0.3-2-1.1
		C5.2,54.6,5.2,54.3,5.2,54z"/>
	<path class="st2" d="M53.5,57c0-3,0-6.1,0-9.1c0-0.6-0.2-0.7-0.7-0.7c-0.7,0-1.3,0-2,0c-0.7,0-1.2-0.2-1.5-0.9
		c-0.3-0.6-0.1-1.2,0.3-1.8c2.9-3.8,5.7-7.6,8.6-11.4c0.8-1.1,1.9-1.1,2.7,0c2.9,3.8,5.7,7.6,8.6,11.4c0.4,0.5,0.6,1.1,0.3,1.7
		c-0.3,0.6-0.8,0.9-1.5,0.9c-0.7,0-1.3,0-2,0c-0.6,0-0.8,0.1-0.8,0.7c0,5.9,0,11.9,0,17.8c0,1.6-0.5,2.1-2.1,2.1c-2.7,0-5.3,0-8,0
		c-1.2,0-1.8-0.6-1.8-1.8C53.5,63,53.5,60,53.5,57z"/>
	<path class="st3" d="M43.4,59.2c0,2.2,0,4.5,0,6.7c0,1.3-0.6,1.8-1.9,1.8c-2.8,0-5.5,0-8.3,0c-1.2,0-1.7-0.6-1.7-1.7
		c0-4.6,0-9.2,0-13.8c0-0.6-0.1-0.7-0.7-0.7c-0.7,0-1.4,0-2.1,0c-0.7,0-1.2-0.3-1.5-0.9c-0.3-0.6-0.2-1.2,0.2-1.7
		c2.8-3.8,5.7-7.6,8.5-11.4c0.9-1.2,1.9-1.1,2.8,0c2.9,3.8,5.7,7.6,8.6,11.4c0.4,0.5,0.5,1,0.3,1.6c-0.3,0.6-0.8,0.9-1.4,0.9
		c-0.8,0-1.5,0-2.3,0c-0.5,0-0.6,0.2-0.6,0.6C43.4,54.5,43.4,56.8,43.4,59.2z"/>
	<path class="st4" d="M24.5,29.7c0,0.5-0.2,0.9-0.6,1.3c-0.9,0.9-1.8,1.7-2.7,2.5c-0.3,0.3-0.4,0.5-0.3,0.9c0.3,1.2,0.5,2.5,0.7,3.7
		c0.1,0.7,0,1.2-0.6,1.6c-0.6,0.4-1.2,0.4-1.8,0.1c-1.1-0.6-2.2-1.2-3.2-1.8c-0.4-0.2-0.6-0.2-1,0c-1.1,0.6-2.1,1.2-3.2,1.8
		c-0.6,0.3-1.2,0.5-1.8,0c-0.6-0.4-0.7-1-0.6-1.7c0.2-1.2,0.4-2.4,0.7-3.6c0.1-0.4,0-0.6-0.3-0.9c-0.9-0.8-1.7-1.6-2.6-2.4
		c-0.6-0.5-0.9-1.1-0.6-1.8c0.2-0.7,0.8-1,1.6-1.1c1.2-0.1,2.5-0.3,3.7-0.5c0.3,0,0.5-0.2,0.6-0.5c0.5-1.1,1-2.3,1.6-3.4
		c0.3-0.7,0.8-1.1,1.5-1.1c0.7,0,1.2,0.5,1.5,1.1c0.5,1.1,1.1,2.2,1.6,3.4c0.1,0.3,0.3,0.4,0.7,0.5c1.3,0.1,2.6,0.3,3.9,0.5
		C24,28.4,24.5,29,24.5,29.7z"/>
	<path class="st4" d="M64,29.4c-0.3,0-0.6-0.1-0.8-0.3c-1.1-0.6-2.2-1.2-3.2-1.8c-0.3-0.2-0.5-0.2-0.9,0c-1.1,0.6-2.2,1.3-3.4,1.9
		c-0.6,0.3-1.2,0.3-1.8-0.1c-0.5-0.4-0.7-0.9-0.5-1.6c0.1-0.6,0.2-1.2,0.3-1.7c0.1-0.4,0.1-0.9,0.3-1.3c0.4-1,0-1.5-0.7-2.1
		c-0.8-0.6-1.5-1.3-2.2-2c-0.5-0.5-0.7-1.1-0.5-1.7c0.2-0.7,0.7-0.9,1.4-1c1.3-0.1,2.5-0.3,3.7-0.5c0.4,0,0.6-0.2,0.7-0.5
		c0.5-1.2,1.1-2.3,1.6-3.5c0.3-0.6,0.7-1,1.4-1c0.7,0,1.1,0.4,1.4,1c0.6,1.2,1.1,2.3,1.6,3.5c0.2,0.3,0.4,0.5,0.7,0.5
		c1.3,0.1,2.5,0.3,3.8,0.5c0.7,0.1,1.1,0.4,1.3,1.1c0.2,0.6,0,1.2-0.5,1.6c-0.9,0.9-1.9,1.8-2.8,2.6c-0.3,0.2-0.3,0.5-0.3,0.8
		c0.2,1.2,0.5,2.4,0.7,3.6C65.7,28.5,65.1,29.4,64,29.4z"/>
	<path class="st4" d="M46.5,24.8c0,0.5-0.2,0.9-0.6,1.3c-0.9,0.8-1.8,1.7-2.7,2.5c-0.3,0.3-0.4,0.5-0.3,0.9c0.2,1.1,0.5,2.3,0.7,3.5
		c0.1,0.7,0.1,1.4-0.5,1.8c-0.6,0.5-1.3,0.3-1.9-0.1c-1-0.6-2.1-1.2-3.1-1.8c-0.3-0.2-0.6-0.2-0.9,0c-1.1,0.6-2.1,1.2-3.2,1.8
		c-0.6,0.3-1.2,0.5-1.8,0c-0.6-0.4-0.8-1-0.6-1.8c0.3-1.2,0.5-2.4,0.7-3.6c0.1-0.3,0-0.5-0.2-0.8C31,27.8,30,26.9,29.1,26
		c-0.5-0.5-0.7-1-0.5-1.6c0.2-0.6,0.7-1,1.4-1.1c1.3-0.1,2.5-0.3,3.8-0.5c0.3,0,0.5-0.2,0.7-0.5c0.5-1.1,1.1-2.3,1.6-3.4
		c0.3-0.6,0.7-1.1,1.5-1.1c0.8,0,1.2,0.4,1.5,1.1c0.5,1.1,1.1,2.2,1.6,3.4c0.1,0.3,0.3,0.5,0.7,0.5c1.3,0.1,2.6,0.3,3.9,0.5
		C46,23.4,46.5,24,46.5,24.8z"/>
</g>
</svg>
