<?xml version="1.0" encoding="utf-8"?>
<!-- Generator: Adobe Illustrator 28.0.0, SVG Export Plug-In . SVG Version: 6.00 Build 0)  -->
<svg version="1.1" id="Слой_1" xmlns="http://www.w3.org/2000/svg" xmlns:xlink="http://www.w3.org/1999/xlink" x="0px" y="0px"
	 viewBox="0 0 75 75" style="enable-background:new 0 0 75 75;" xml:space="preserve">
<style type="text/css">
	.st0{fill:url(#SVGID_1_);}
	.st1{fill:#F35558;}
	.st2{fill:#D8DDFA;}
	.st3{fill:#5BB774;}
	.st4{fill:#FDC35D;}
	.st5{fill:#2196F2;}
</style>
<linearGradient id="SVGID_1_" gradientUnits="userSpaceOnUse" x1="53.817" y1="64.4911" x2="16.9889" y2="1.6711">
	<stop  offset="0" style="stop-color:#F4AF33"/>
	<stop  offset="0.5211" style="stop-color:#FA9B5D"/>
	<stop  offset="1" style="stop-color:#FF8A80"/>
</linearGradient>
<path class="st0" d="M65.3,74H10.1c-5.2,0-9.4-4.2-9.4-9.4V9.5C0.7,4.2,4.9,0,10.1,0h55.1c5.2,0,9.4,4.2,9.4,9.4v55.1
	C74.7,69.8,70.5,74,65.3,74z"/>
<g>
	<path class="st1" d="M31.4,48.7c-2.3-2.5-4.4-5.1-6.3-7.9c-2.3-3.4-4.4-6.9-5.8-10.8c-2.9-8.1-1-15.1,4.8-21.1
		c4.2-4.3,9.5-6.2,15.6-5.9c9.6,0.4,17.7,7.8,19.2,17.2c0.7,4.2-0.2,8.1-1.9,11.8c-2.7,6.2-6.6,11.6-11.2,16.6
		c-0.8,1-1.8,1.9-2.8,2.7c-1,0.9-2,1.7-3.2,2.2c-0.7,0.3-1.4,0.4-2.2,0.1c-1-0.5-1.9-1.1-2.8-1.8C33.5,50.8,32.6,49.7,31.4,48.7z
		 M30.5,21.4c0,4.4,3.6,8,8,8c4.5,0,8.1-3.5,8.2-7.9c0-4.6-3.6-8.3-8.1-8.2C34,13.3,30.5,16.9,30.5,21.4z"/>
	<path class="st2" d="M38.7,71.2c-2.4,0-4.8,0-7.1,0c0.6-2.1,1.1-4.2,1.7-6.4c0.2-0.8,0.2-0.8-0.7-0.8c-7.9,0-15.8,0-23.6,0
		c0.3-1.3,0.7-2.6,1-4c0.2-1,0.5-1.9,0.7-2.9c4.6,0,9.2,0,13.8,0c8.4,0,16.9,0,25.3,0c0.4,0,0.7,0.1,0.9-0.5
		c0.6-2.4,1.2-4.9,1.8-7.3c0.1-0.3,0.1-0.5-0.2-0.6c2.2,0,4.4,0,6.6,0c0.2,0,0.5-0.1,0.7,0.1c-0.1,0.5-0.2,0.9-0.4,1.4
		c-0.9,3.6-1.9,7.3-2.7,10.9c-0.3,1.6-2,2.9-3.7,2.9c-3.9-0.1-7.8,0-11.7,0c-0.4,0-0.6,0.1-0.7,0.5c-0.2,0.9-0.5,1.9-0.7,2.8
		C39.3,68.6,38.8,69.8,38.7,71.2z"/>
	<path class="st3" d="M38.7,71.2c0.1-1.3,0.6-2.6,0.9-3.9c0.2-0.9,0.5-1.9,0.7-2.8c0.1-0.4,0.3-0.5,0.7-0.5c3.9,0,7.8,0,11.7,0
		c1.7,0,3.3-1.3,3.7-2.9c0.8-3.7,1.8-7.3,2.7-10.9c0.1-0.5,0.2-0.9,0.4-1.4c0.8,0.1,1.6,0,2.4,0.1c1.8,0.4,2.9,1.5,3.3,3.2
		c1.2,4.8,2.4,9.6,3.6,14.4c0.6,2.3-1.2,4.7-3.7,4.7C56.3,71.1,47.5,71.2,38.7,71.2z"/>
	<path class="st4" d="M52.2,48.7c0.3,0.1,0.3,0.4,0.2,0.6c-0.6,2.4-1.2,4.9-1.8,7.3c-0.1,0.6-0.5,0.5-0.9,0.5c-8.4,0-16.9,0-25.3,0
		c-4.6,0-9.2,0-13.8,0c0.4-1.5,0.8-3,1.2-4.5c0.6-2.7,2.3-3.8,5-3.9c4.7,0,9.3,0,14,0c0.2,0,0.5,0,0.7,0c1.2,1,2.1,2.2,3.3,3.1
		c0.9,0.7,1.8,1.4,2.8,1.8c0.8,0.3,1.5,0.2,2.2-0.1C41,53,42,52.2,43,51.3c1-0.9,2-1.7,2.8-2.7c0.2,0.1,0.4,0.1,0.6,0.1
		C48.3,48.7,50.2,48.7,52.2,48.7z M13.6,52.4c0.2,0,0.6,0.1,0.5-0.3c0-0.3-0.3-0.2-0.5-0.2c-0.2,0-0.6-0.1-0.5,0.3
		C13.1,52.5,13.4,52.3,13.6,52.4z M16.3,52.4c0.2,0,0.6,0.1,0.5-0.3c0-0.3-0.3-0.2-0.5-0.2c-0.2,0-0.6-0.1-0.5,0.3
		C15.8,52.5,16.1,52.3,16.3,52.4z M19.1,51.8c-0.2,0-0.6-0.1-0.5,0.3c0,0.4,0.3,0.3,0.5,0.2c0.2,0,0.6,0.1,0.5-0.3
		C19.6,51.7,19.3,51.8,19.1,51.8z M21.8,52.4c0.2-0.1,0.5,0.1,0.5-0.3c0-0.4-0.3-0.3-0.5-0.3c-0.2,0-0.5-0.1-0.5,0.2
		C21.2,52.5,21.6,52.3,21.8,52.4z M24.5,52.4c0.2,0,0.6,0.1,0.5-0.3c0-0.3-0.3-0.2-0.5-0.2c-0.2,0-0.6-0.1-0.5,0.3
		C24,52.5,24.3,52.3,24.5,52.4z M27.2,52.4c0.2-0.1,0.5,0.1,0.5-0.3c0-0.4-0.3-0.3-0.5-0.3c-0.2,0-0.6-0.1-0.6,0.3
		C26.7,52.5,27,52.3,27.2,52.4z M30,51.8c-0.2,0-0.6-0.1-0.5,0.3c0,0.4,0.3,0.3,0.5,0.2c0.2,0,0.6,0.1,0.5-0.3
		C30.5,51.7,30.2,51.8,30,51.8z M32.7,51.8c-0.2,0.1-0.5-0.1-0.6,0.3c0,0.4,0.3,0.3,0.5,0.3c0.2,0,0.5,0.1,0.6-0.3
		C33.2,51.7,32.9,51.8,32.7,51.8z"/>
	<path class="st5" d="M8.9,63.9c7.9,0,15.8,0,23.6,0c0.9,0,0.9,0,0.7,0.8c-0.6,2.1-1.1,4.2-1.7,6.4c-6.7,0-13.4,0-20.1,0
		c-2,0-3.6-2.1-3.3-4.2C8.4,65.9,8.7,64.9,8.9,63.9z"/>
	<path class="st2" d="M30.5,21.4c0-4.5,3.6-8.1,8.1-8.1c4.5,0,8.1,3.7,8.1,8.2c0,4.4-3.7,8-8.2,7.9C34,29.4,30.4,25.8,30.5,21.4z"/>
	<path class="st1" d="M13.6,52.4c-0.2,0-0.5,0.1-0.5-0.3c0-0.4,0.3-0.3,0.5-0.3c0.2,0,0.5-0.1,0.5,0.2
		C14.1,52.5,13.8,52.3,13.6,52.4z"/>
	<path class="st1" d="M16.3,52.4c-0.2,0-0.5,0.1-0.5-0.3c0-0.4,0.3-0.3,0.5-0.3c0.2,0,0.5-0.1,0.5,0.2
		C16.9,52.5,16.5,52.3,16.3,52.4z"/>
	<path class="st1" d="M19.1,51.8c0.2,0,0.5-0.1,0.5,0.3c0,0.4-0.3,0.3-0.5,0.3c-0.2,0-0.5,0.1-0.5-0.2
		C18.5,51.7,18.8,51.8,19.1,51.8z"/>
	<path class="st1" d="M21.8,52.4c-0.2-0.1-0.6,0.1-0.6-0.3c0-0.3,0.3-0.2,0.5-0.2c0.2,0,0.6-0.1,0.5,0.3
		C22.3,52.5,22,52.3,21.8,52.4z"/>
	<path class="st1" d="M24.5,52.4c-0.2,0-0.5,0.1-0.5-0.3c0-0.4,0.3-0.3,0.5-0.3c0.2,0,0.5-0.1,0.5,0.2C25,52.5,24.7,52.3,24.5,52.4z
		"/>
	<path class="st1" d="M27.2,52.4c-0.2,0-0.5,0.1-0.5-0.3c0-0.4,0.3-0.3,0.6-0.3c0.2,0,0.5-0.1,0.5,0.3
		C27.8,52.5,27.4,52.3,27.2,52.4z"/>
	<path class="st1" d="M30,51.8c0.2,0,0.5-0.1,0.5,0.3c0,0.4-0.3,0.3-0.5,0.3c-0.2,0-0.5,0.1-0.5-0.2C29.4,51.7,29.7,51.8,30,51.8z"
		/>
	<path class="st1" d="M32.7,51.8c0.2,0,0.5-0.1,0.5,0.3c0,0.4-0.4,0.2-0.6,0.3c-0.2,0-0.5,0.1-0.5-0.3
		C32.2,51.7,32.5,51.9,32.7,51.8z"/>
</g>
</svg>
