<?xml version="1.0" encoding="utf-8"?>
<!-- Generator: Adobe Illustrator 28.0.0, SVG Export Plug-In . SVG Version: 6.00 Build 0)  -->
<svg version="1.1" id="Слой_1" xmlns="http://www.w3.org/2000/svg" xmlns:xlink="http://www.w3.org/1999/xlink" x="0px" y="0px"
	 viewBox="0 0 75 75" style="enable-background:new 0 0 75 75;" xml:space="preserve">
<style type="text/css">
	.st0{fill:url(#SVGID_1_);}
	.st1{fill:#D8DDFA;}
	.st2{fill:#BBCDFA;}
	.st3{fill:#9EBAFA;}
	.st4{fill:#485C66;}
	.st5{fill:#8FA3E9;}
	.st6{fill:#5CB775;}
	.st7{fill:#FDB6BC;}
	.st8{fill:#FBA1BC;}
	.st9{fill:#453E64;}
</style>
<linearGradient id="SVGID_1_" gradientUnits="userSpaceOnUse" x1="53.817" y1="64.9673" x2="16.9889" y2="2.1473">
	<stop  offset="1.773163e-07" style="stop-color:#132F5F"/>
	<stop  offset="0.4795" style="stop-color:#1D4082"/>
	<stop  offset="1" style="stop-color:#2651A5"/>
</linearGradient>
<path class="st0" d="M65.3,74.5H10.1c-5.2,0-9.4-4.2-9.4-9.4V9.9c0-5.2,4.2-9.4,9.4-9.4h55.1c5.2,0,9.4,4.2,9.4,9.4v55.1
	C74.7,70.3,70.5,74.5,65.3,74.5z"/>
<g>
	<path class="st1" d="M23.3,61.9c-2.6,0-5.3,0-7.9,0c-2.2,0-3.8-1.3-4.4-3.4c0-0.2-0.1-0.4-0.1-0.5c0-11.3,0-22.7,0-34
		c0-0.1,0-0.2,0-0.2c3.9,0,7.8,0,11.6,0c2.9,0,4.7-1.8,4.7-4.7c0-3.7,0-7.3,0-11c0-0.2,0.1-0.5-0.1-0.7c0.2-0.2,0.4-0.1,0.7-0.1
		c7.2,0,14.4,0,21.7,0c2.5,0,4.4,2.2,4.4,4.4c-0.1,3.3,0,6.6,0,10c0,0.2-0.1,0.5,0.1,0.7c-0.6,0.7-1.4,1.3-1.9,2
		c-0.2,0.1-0.3,0.2-0.5,0.4C46.3,30.1,41,35.4,35.7,40.7c-0.1,0.1-0.3,0.2-0.4,0.5c-0.9,0.7-1.7,1.5-2.4,2.3c-0.8,0.9-0.6,2-0.6,3.1
		c0,1.3,0,2.7,0,4c0,0.5-0.1,0.9,0.1,1.4c0.1,0.8,0.7,1.4,1.5,1.4c1.7,0,3.5,0,5.2,0c0.5,0,0.9,0,1.4,0c0.6,0,1.2-0.1,1.6-0.6
		c0.8-0.8,1.6-1.6,2.4-2.4c0.2-0.1,0.3-0.3,0.5-0.4c2.8-2.8,5.7-5.7,8.5-8.5c0.2,0.2,0.1,0.5,0.1,0.7c0,5.1-0.1,10.2,0,15.4
		c0,2.3-2,4.4-4.4,4.4C40.7,61.9,32,61.9,23.3,61.9z M20.4,29.5c-0.5,0-0.9,0-1.4,0c-1.5,0-2.7,1-3,2.5c-0.2,1.2-0.2,2.5,0,3.7
		c0.2,1.7,1.5,2.7,3.2,2.7c0.9,0,1.7,0,2.6,0c1.7,0,3-1.3,3.1-3c0-1,0-1.9,0-2.9c0-1.7-1.3-2.9-3-3C21.4,29.5,20.9,29.5,20.4,29.5z
		 M24.8,48.8c0-0.5,0-0.9,0-1.4c0-1.5-1-2.7-2.4-2.9c-1.2-0.2-2.5-0.2-3.7,0c-1.5,0.2-2.5,1.2-2.7,2.7c-0.1,1.2-0.2,2.4,0,3.5
		c0.2,1.7,1.4,2.6,3.1,2.7c0.9,0,1.9,0,2.8,0c1.6,0,2.9-1.3,3-3C24.9,49.8,24.8,49.3,24.8,48.8z M40.2,23.8c2.5,0,5.1,0,7.6,0
		c0.4,0,0.8,0,0.8-0.5c0-0.5-0.4-0.5-0.8-0.5c-0.1,0-0.1,0-0.2,0c-4.9,0-9.9,0-14.8,0c-0.2,0-0.4,0-0.6,0c-0.3,0.1-0.4,0.2-0.4,0.5
		c0,0.2,0.2,0.4,0.4,0.4c0.2,0,0.3,0,0.5,0C35.3,23.8,37.7,23.8,40.2,23.8z M32.6,30.9c-1.1,0-2.2,0-3.3,0c-0.4,0-0.7,0.1-0.7,0.5
		c0,0.4,0.3,0.5,0.7,0.5c2.2,0,4.3,0,6.5,0c0.4,0,0.7-0.1,0.7-0.5c0-0.5-0.4-0.5-0.7-0.5C34.8,30.9,33.7,30.9,32.6,30.9z M35.6,19.3
		c1.1,0,2.1,0,3.2,0c0.3,0,0.7-0.1,0.7-0.5c0-0.4-0.3-0.5-0.7-0.5c-2.1,0-4.1,0-6.2,0c-0.3,0-0.6,0.1-0.7,0.5c0,0.4,0.3,0.5,0.7,0.5
		C33.5,19.3,34.6,19.3,35.6,19.3z M31.1,36.6c0.6,0,1.3,0,1.9,0c0.3,0,0.6-0.1,0.6-0.5c0-0.4-0.3-0.5-0.6-0.5c-1.3,0-2.5,0-3.8,0
		c-0.3,0-0.6,0.1-0.6,0.5c0,0.4,0.3,0.5,0.6,0.5C29.9,36.6,30.5,36.6,31.1,36.6z M31.8,13c0.2,0,0.6,0.1,0.5-0.3
		c0-0.3-0.3-0.3-0.5-0.3c-0.2,0-0.5-0.1-0.5,0.3C31.3,13.1,31.6,12.9,31.8,13z M34.3,13c0.2,0,0.6,0.1,0.6-0.3
		c0-0.3-0.3-0.3-0.5-0.3c-0.2,0-0.5-0.1-0.5,0.3C33.8,13.1,34.1,13,34.3,13z M39.2,13c0.2,0,0.6,0.1,0.6-0.3c0-0.3-0.3-0.3-0.5-0.3
		c-0.2,0-0.5-0.1-0.6,0.3C38.7,13,39,13,39.2,13z M41.7,12.4c-0.2,0-0.5-0.1-0.5,0.3c0,0.4,0.3,0.3,0.5,0.3c0.2,0,0.5,0.1,0.5-0.3
		C42.3,12.3,42,12.4,41.7,12.4z M46.6,13c0.2,0,0.6,0.1,0.6-0.3c0-0.3-0.3-0.3-0.5-0.3c-0.2,0-0.5-0.1-0.6,0.3
		C46.2,13,46.4,13,46.6,13z M49.2,13c0.2,0,0.5,0,0.5-0.3c0-0.4-0.3-0.3-0.5-0.3c-0.2,0-0.5-0.1-0.5,0.3C48.6,13.1,49,12.9,49.2,13z
		 M44.2,13c0.2,0,0.5,0.1,0.5-0.3c0-0.4-0.3-0.3-0.5-0.3c-0.2,0-0.5-0.1-0.5,0.3C43.7,13,43.9,13,44.2,13z M51.6,13
		c0.2,0,0.5,0.1,0.5-0.3c0-0.3-0.2-0.3-0.4-0.3c-0.2,0-0.5-0.1-0.5,0.3C51.1,13,51.3,13,51.6,13z M36.7,13c0.2,0,0.5,0,0.5-0.3
		c0-0.4-0.3-0.3-0.5-0.3c-0.2,0-0.5,0-0.5,0.3C36.3,13.1,36.6,12.9,36.7,13z M29.3,13c0.2,0,0.5,0.1,0.5-0.3c0-0.4-0.3-0.3-0.5-0.3
		c-0.2,0-0.5-0.1-0.5,0.3C28.8,13,29.1,13,29.3,13z M13.4,57.7c0.1-0.1,0.5,0.1,0.5-0.3c0-0.3-0.2-0.3-0.4-0.2
		c-0.2,0-0.5-0.1-0.6,0.2C12.9,57.8,13.2,57.7,13.4,57.7z M15.9,57.2c-0.2,0-0.5-0.1-0.5,0.3c0,0.3,0.2,0.2,0.4,0.2
		c0.2,0,0.5,0.1,0.5-0.2C16.4,57.2,16.1,57.3,15.9,57.2z M18.4,57.7c0.2-0.1,0.5,0.1,0.5-0.3c0-0.3-0.2-0.3-0.4-0.2
		c-0.2,0-0.5-0.1-0.5,0.2C17.9,57.8,18.2,57.7,18.4,57.7z M20.9,57.7c0.2,0,0.5,0.1,0.5-0.3c0-0.3-0.3-0.2-0.4-0.2
		c-0.2,0-0.5-0.1-0.5,0.2C20.4,57.8,20.7,57.7,20.9,57.7z M23.3,57.7c0.2-0.1,0.5,0.1,0.5-0.3c0-0.3-0.2-0.3-0.4-0.2
		c-0.2,0-0.5-0.1-0.6,0.2C22.8,57.8,23.1,57.7,23.3,57.7z M25.8,57.7c0.2-0.1,0.5,0.1,0.5-0.2c0-0.3-0.2-0.3-0.4-0.2
		c-0.2,0-0.5-0.1-0.6,0.2C25.3,57.8,25.6,57.7,25.8,57.7z M28.3,57.7c0.2-0.1,0.5,0.1,0.5-0.2c0-0.3-0.3-0.2-0.5-0.2
		c-0.2,0-0.5-0.1-0.5,0.2C27.8,57.8,28.1,57.7,28.3,57.7z M30.8,57.2c-0.2,0.1-0.5-0.1-0.5,0.3c0,0.3,0.2,0.3,0.4,0.2
		c0.2,0,0.5,0.1,0.5-0.2C31.3,57.2,31,57.3,30.8,57.2z M33.3,57.7c0.2,0,0.5,0.1,0.5-0.2c0-0.3-0.3-0.3-0.4-0.3
		c-0.2,0-0.5-0.1-0.5,0.3C32.8,57.8,33.1,57.7,33.3,57.7z M35.8,57.2c-0.2,0.1-0.5-0.1-0.5,0.2c0,0.3,0.3,0.3,0.5,0.2
		c0.2,0,0.5,0.1,0.5-0.2C36.3,57.2,36,57.2,35.8,57.2z M38.2,57.2c-0.2,0.1-0.5-0.1-0.5,0.3c0,0.3,0.3,0.2,0.5,0.2
		c0.2,0,0.5,0.1,0.5-0.2C38.7,57.2,38.4,57.3,38.2,57.2z M40.7,57.7c0.2-0.1,0.5,0.1,0.5-0.3c0-0.3-0.3-0.2-0.5-0.2
		c-0.2,0-0.5-0.1-0.5,0.2C40.2,57.8,40.5,57.7,40.7,57.7z M43.2,57.2c-0.1,0.1-0.5-0.1-0.5,0.2c0,0.3,0.3,0.3,0.5,0.2
		c0.2,0,0.5,0.1,0.5-0.2C43.7,57.2,43.4,57.2,43.2,57.2z M45.6,57.7c0.2-0.1,0.5,0.1,0.5-0.3c0-0.3-0.2-0.3-0.4-0.2
		c-0.2,0-0.5-0.1-0.5,0.2C45.1,57.8,45.4,57.7,45.6,57.7z M48.1,57.7c0.2,0,0.5,0.1,0.5-0.3c0-0.3-0.3-0.2-0.5-0.2
		c-0.2,0-0.5-0.1-0.5,0.2C47.6,57.8,47.9,57.7,48.1,57.7z M50.6,57.7c0.1-0.1,0.4,0.1,0.5-0.2c0-0.4-0.3-0.3-0.5-0.3
		c-0.2,0-0.5-0.1-0.4,0.3C50.1,57.8,50.4,57.7,50.6,57.7z"/>
	<path class="st2" d="M63.3,37c0,0.2,0,0.5,0,0.7c0,9,0,18,0,27c0,2.9-1.9,4.7-4.7,4.7c-10.3,0-20.6,0-30.9,0c-2.2,0-4-1.5-4.4-3.6
		c0-0.1,0-0.2,0-0.4c10,0,19.9,0,29.9,0c2.6,0,4.4-1.9,4.4-4.4c0-6,0-12,0-18c0-0.4,0.1-0.7,0.4-1c1.6-1.6,3.2-3.2,4.8-4.8
		C63,37.2,63.1,37.1,63.3,37z"/>
	<path class="st3" d="M63.3,37c-0.2,0-0.3,0.2-0.5,0.4c-1.6,1.6-3.2,3.2-4.8,4.8c-0.3,0.3-0.4,0.6-0.4,1c0,6,0,12,0,18
		c0,2.5-1.8,4.4-4.4,4.4c-10,0-19.9,0-29.9,0c0-1.2,0-2.4,0-3.6c8.7,0,17.4,0,26.1,0c2.5,0,4.5-2.1,4.4-4.4c-0.1-5.1,0-10.2,0-15.4
		c0-0.2,0.1-0.5-0.1-0.7c2.4-2.4,4.8-4.8,7.1-7.2c0.2-0.2,0.4-0.3,0.4-0.6c0.3,0,0.4-0.2,0.5-0.4c0.5-0.5,1-1,1.6-1.5
		C63.4,33.6,63.4,35.3,63.3,37z"/>
	<path class="st3" d="M27.2,7.5c0.2,0.2,0.1,0.4,0.1,0.7c0,3.7,0,7.3,0,11c0,2.9-1.8,4.7-4.7,4.7c-3.9,0-7.8,0-11.6,0
		c0,0,0.1-0.1,0.1-0.1C16.4,18.2,21.8,12.9,27.2,7.5z"/>
	<path class="st3" d="M55,21.4c1.5-1.5,3-3.1,4.5-4.6c1-0.9,2.6-0.8,3.5,0.2c1.2,1.1,2.3,2.3,3.4,3.4c0.3,0.3,0.8,0.6,1,1
		c-0.2,0.3,0.1,0.6,0.1,0.9c0.1,1-0.3,1.8-1,2.5c-1.4,1.4-2.8,2.7-4.1,4.2c0,0-0.1,0-0.1,0c-0.2-0.2-0.3-0.4-0.5-0.5
		C59.7,26.1,57.4,23.8,55,21.4z"/>
	<path class="st4" d="M55,21.4c2.3,2.3,4.6,4.7,7,7c0.2,0.2,0.3,0.4,0.5,0.5c-0.2,0.1-0.3,0.3-0.5,0.4c-0.8,0.8-1.6,1.7-2.5,2.4
		c0,0-0.1,0-0.1,0c-0.1-0.2-0.3-0.3-0.5-0.5c-2.3-2.3-4.6-4.6-6.9-6.9c0.5-0.8,1.3-1.3,1.9-2C54.3,22.1,54.7,21.8,55,21.4z"/>
	<path class="st2" d="M62.6,29c1.3-1.5,2.7-2.8,4.1-4.2c0.7-0.7,1.1-1.5,1-2.5c0-0.3-0.3-0.6-0.1-0.9c0.5,0.5,1.1,1,1.5,1.6
		c0.7,1,0.8,2.3,0,3.2c-1.5,1.6-3,3.2-4.7,4.7C63.8,30.2,63.2,29.6,62.6,29z"/>
	<path class="st5" d="M62.6,29c0.6,0.6,1.2,1.2,1.8,1.8c-0.3,0.3-0.7,0.7-1,1c-0.5,0.5-1,1-1.6,1.5c-0.2,0.2-0.3,0.4-0.5,0.4
		c-0.6-0.6-1.3-1.2-1.8-1.9c0.9-0.7,1.7-1.6,2.5-2.4c0.2-0.2,0.3-0.3,0.5-0.4C62.5,29,62.6,29,62.6,29z"/>
	<path class="st3" d="M52.1,24.5c2.3,2.3,4.6,4.6,6.9,6.9c0.2,0.2,0.3,0.3,0.5,0.5c0,0.3-0.3,0.4-0.5,0.6
		c-4.8,4.8-9.6,9.6-14.4,14.4c-0.2,0.2-0.3,0.3-0.5,0.5c0-0.2,0-0.4,0-0.7c0-0.2-0.1-0.3-0.3-0.3c-0.6,0-1.1-0.1-1.7,0.1
		c-1.7-0.1-2.4-0.6-2.6-2c0-0.4,0-0.7,0-1.1c0-1.8,0-1.8-1.8-1.6c0,0-0.1,0-0.1,0c-0.8,0-1.5-0.1-2.1-0.6c0-0.2,0.2-0.3,0.4-0.5
		c5.3-5.3,10.6-10.6,15.9-15.9C51.7,24.7,51.9,24.6,52.1,24.5z"/>
	<path class="st6" d="M20.4,29.5c0.5,0,0.9,0,1.4,0c1.7,0,3,1.3,3,3c0,1,0,1.9,0,2.9c0,1.7-1.3,3-3.1,3c-0.9,0-1.7,0-2.6,0
		c-1.7,0-3-1-3.2-2.7c-0.2-1.2-0.2-2.5,0-3.7c0.3-1.5,1.5-2.5,3-2.5C19.5,29.5,19.9,29.5,20.4,29.5z M20,35.4c0.1,0,0.2-0.1,0.3-0.1
		c0.6-0.6,1.3-1.3,1.9-1.9c0.2-0.2,0.2-0.5,0-0.7c-0.2-0.2-0.5-0.2-0.7,0c-0.3,0.2-0.5,0.5-0.8,0.8C20.5,33.7,20.3,34,20,34
		c-0.3,0.1-0.4-0.3-0.7-0.5c-0.2-0.2-0.5-0.2-0.7,0c-0.2,0.2-0.2,0.5,0,0.7c0.2,0.2,0.4,0.4,0.6,0.6C19.5,35.1,19.7,35.3,20,35.4z"
		/>
	<path class="st6" d="M24.8,48.8c0,0.5,0,1,0,1.5c0,1.7-1.3,2.9-3,3c-0.9,0-1.9,0-2.8,0c-1.7,0-2.9-1-3.1-2.7
		c-0.2-1.2-0.2-2.4,0-3.5c0.2-1.5,1.2-2.5,2.7-2.7c1.2-0.1,2.5-0.2,3.7,0c1.4,0.3,2.4,1.5,2.4,2.9C24.9,47.9,24.8,48.4,24.8,48.8z
		 M22.3,48c0-0.2-0.1-0.3-0.3-0.4c-0.2-0.1-0.4,0-0.5,0.1c-0.3,0.3-0.6,0.5-0.8,0.8c-0.6,0.6-0.6,0.6-1.3,0.1
		c-0.2-0.2-0.5-0.3-0.7,0c-0.2,0.2-0.2,0.5,0,0.7c0.3,0.3,0.5,0.6,0.8,0.8c0.4,0.4,0.7,0.4,1.1,0c0.5-0.5,1-1,1.6-1.6
		C22.2,48.3,22.4,48.2,22.3,48z"/>
	<path class="st7" d="M39.4,44.5c0.2,1.4,0.9,1.9,2.6,2c0.1,0.7,0.1,1.4,0.6,1.9c0.1,0.1,0.1,0.3,0,0.4c-0.7,0.7-1.4,1.5-2.2,2.1
		c-0.8,0.7-1.9,0.6-2.9,0.6c0,0-0.1,0-0.1,0c-1.2-1.2-2.4-2.4-3.6-3.6c-0.5-0.4-0.8-1-1.4-1.3c0-1.1-0.2-2.2,0.6-3.1
		c0.7-0.9,1.5-1.7,2.4-2.3c0.6,0.5,1.3,0.6,2.1,0.6c0,0.1,0,0.3,0,0.4C37.6,44,38,44.5,39.4,44.5z"/>
	<path class="st2" d="M44.1,47.3c0.2-0.2,0.3-0.3,0.5-0.5c4.8-4.8,9.6-9.6,14.4-14.4c0.2-0.2,0.4-0.3,0.5-0.6c0,0,0.1,0,0.1,0
		c0.5,0.7,1.2,1.2,1.8,1.9c0,0.3-0.3,0.4-0.4,0.6c-2.4,2.4-4.8,4.8-7.1,7.2c-2.8,2.8-5.7,5.7-8.5,8.5c-0.2,0.2-0.3,0.3-0.5,0.4
		C44.3,50,44,49.6,44,49C44,48.5,44.1,47.9,44.1,47.3z"/>
	<path class="st8" d="M44.1,47.3c0,0.6,0,1.1,0,1.7c0,0.6,0.3,1,0.6,1.4c-0.8,0.8-1.6,1.6-2.4,2.4c-0.4,0.4-1,0.6-1.6,0.6
		c-0.5,0-0.9,0-1.4,0c-0.6-0.6-1.2-1.2-1.7-1.9c1,0,2.1,0.1,2.9-0.6c0.8-0.7,1.5-1.4,2.2-2.1c0.1-0.1,0.2-0.2,0-0.4
		c-0.5-0.5-0.5-1.3-0.6-1.9c0.6-0.2,1.1,0,1.7-0.1c0.2,0,0.3,0.1,0.3,0.3C44,46.9,44,47.1,44.1,47.3z"/>
	<path class="st4" d="M40.2,23.8c-2.5,0-5,0-7.4,0c-0.2,0-0.3,0-0.5,0c-0.3,0-0.4-0.2-0.4-0.4c0-0.3,0.1-0.5,0.4-0.5
		c0.2,0,0.4,0,0.6,0c4.9,0,9.9,0,14.8,0c0.1,0,0.1,0,0.2,0c0.4,0,0.8,0,0.8,0.5c0,0.5-0.4,0.5-0.8,0.5
		C45.3,23.8,42.7,23.8,40.2,23.8z"/>
	<path class="st4" d="M32.4,46.6c0.5,0.3,0.9,0.9,1.4,1.3c1.2,1.2,2.4,2.4,3.6,3.6c-1.5,0-2.9,0-4.4,0c-0.4,0-0.6,0.1-0.5,0.5
		c-0.2-0.5-0.1-0.9-0.1-1.4C32.4,49.3,32.4,47.9,32.4,46.6z"/>
	<path class="st9" d="M32.5,52c-0.1-0.4,0.1-0.5,0.5-0.5c1.5,0,2.9,0,4.4,0c0,0,0.1,0,0.1,0c0.6,0.6,1.2,1.2,1.7,1.9
		c-1.7,0-3.5,0-5.2,0C33.2,53.4,32.7,52.8,32.5,52z"/>
	<path class="st4" d="M32.6,30.9c1.1,0,2.1,0,3.2,0c0.4,0,0.8,0,0.7,0.5c0,0.4-0.4,0.5-0.7,0.5c-2.2,0-4.3,0-6.5,0
		c-0.4,0-0.7-0.1-0.7-0.5c0-0.5,0.3-0.5,0.7-0.5C30.5,30.9,31.5,30.9,32.6,30.9z"/>
	<path class="st4" d="M35.6,19.3c-1,0-2,0-3,0c-0.4,0-0.7-0.1-0.7-0.5c0-0.4,0.3-0.5,0.7-0.5c2.1,0,4.1,0,6.2,0
		c0.4,0,0.7,0.1,0.7,0.5c0,0.4-0.3,0.5-0.7,0.5C37.7,19.3,36.6,19.3,35.6,19.3z"/>
	<path class="st4" d="M31.1,36.6c-0.6,0-1.2,0-1.8,0c-0.3,0-0.6-0.1-0.6-0.5c0-0.4,0.3-0.5,0.6-0.5c1.3,0,2.5,0,3.8,0
		c0.3,0,0.6,0.1,0.6,0.5c0,0.4-0.3,0.5-0.6,0.5C32.4,36.6,31.7,36.6,31.1,36.6z"/>
	<path class="st5" d="M31.8,13c-0.2,0-0.5,0.1-0.5-0.3c0-0.4,0.3-0.3,0.5-0.3c0.2,0,0.5-0.1,0.5,0.3C32.4,13,32,13,31.8,13z"/>
	<path class="st5" d="M34.3,13c-0.2,0-0.5,0.1-0.5-0.3c0-0.4,0.3-0.3,0.5-0.3c0.2,0,0.5,0,0.5,0.3C34.8,13,34.5,13,34.3,13z"/>
	<path class="st5" d="M39.2,13c-0.2,0-0.5,0.1-0.5-0.3c0-0.4,0.3-0.3,0.6-0.3c0.2,0,0.5,0,0.5,0.3C39.8,13,39.4,13,39.2,13z"/>
	<path class="st5" d="M41.7,12.4c0.2,0,0.6-0.1,0.5,0.3c0,0.3-0.3,0.3-0.5,0.3c-0.2,0-0.5,0.1-0.5-0.3
		C41.2,12.3,41.5,12.4,41.7,12.4z"/>
	<path class="st5" d="M46.6,13c-0.2,0-0.5,0.1-0.5-0.3c0-0.4,0.3-0.3,0.6-0.3c0.2,0,0.5,0,0.5,0.3C47.2,13,46.9,13,46.6,13z"/>
	<path class="st5" d="M49.2,13c-0.2,0-0.5,0.1-0.5-0.3c0-0.4,0.3-0.3,0.5-0.3c0.2,0,0.6-0.1,0.5,0.3C49.7,13,49.4,13,49.2,13z"/>
	<path class="st5" d="M44.2,13c-0.2,0-0.5,0-0.5-0.3c0-0.4,0.3-0.3,0.5-0.3c0.2,0,0.5-0.1,0.5,0.3C44.7,13.1,44.4,13,44.2,13z"/>
	<path class="st5" d="M51.6,13c-0.2,0-0.5,0-0.5-0.3c0-0.4,0.3-0.3,0.5-0.3c0.2,0,0.4,0,0.4,0.3C52.1,13.1,51.8,12.9,51.6,13z"/>
	<path class="st5" d="M36.7,13c-0.2,0-0.5,0.1-0.5-0.3c0-0.4,0.2-0.3,0.5-0.3c0.2,0,0.5-0.1,0.5,0.3C37.2,13,37,13,36.7,13z"/>
	<path class="st5" d="M29.3,13c-0.2,0-0.5,0-0.5-0.3c0-0.4,0.3-0.3,0.5-0.3c0.2,0,0.5-0.1,0.5,0.3C29.8,13.1,29.5,13,29.3,13z"/>
	<path class="st5" d="M13.4,57.7c-0.2,0-0.5,0-0.5-0.3c0-0.3,0.4-0.2,0.6-0.2c0.2,0,0.4,0,0.4,0.2C13.9,57.9,13.6,57.7,13.4,57.7z"
		/>
	<path class="st5" d="M15.9,57.2c0.2,0,0.5-0.1,0.5,0.3c0,0.4-0.3,0.2-0.5,0.2c-0.2,0-0.4,0.1-0.4-0.2
		C15.4,57.1,15.7,57.3,15.9,57.2z"/>
	<path class="st5" d="M18.4,57.7c-0.2,0-0.5,0.1-0.4-0.3c0-0.4,0.3-0.2,0.5-0.2c0.2,0,0.4-0.1,0.4,0.2
		C18.9,57.9,18.5,57.7,18.4,57.7z"/>
	<path class="st5" d="M20.9,57.7c-0.2,0-0.5,0.1-0.5-0.3c0-0.4,0.3-0.2,0.5-0.2c0.2,0,0.4-0.1,0.4,0.2C21.4,57.8,21,57.7,20.9,57.7z
		"/>
	<path class="st5" d="M23.3,57.7c-0.2,0-0.5,0-0.4-0.3c0-0.3,0.4-0.2,0.6-0.2c0.2,0,0.4,0,0.4,0.2C23.8,57.9,23.5,57.7,23.3,57.7z"
		/>
	<path class="st5" d="M25.8,57.7c-0.2,0-0.5,0-0.4-0.3c0.1-0.3,0.4-0.2,0.6-0.2c0.2,0,0.4,0,0.4,0.2C26.3,57.9,26,57.7,25.8,57.7z"
		/>
	<path class="st5" d="M28.3,57.7c-0.2,0-0.5,0-0.4-0.3c0-0.3,0.3-0.2,0.5-0.2c0.2,0,0.5-0.1,0.5,0.2C28.8,57.9,28.4,57.7,28.3,57.7z
		"/>
	<path class="st5" d="M30.8,57.2c0.2,0,0.5-0.1,0.4,0.3c0,0.4-0.3,0.2-0.5,0.2c-0.2,0-0.4,0.1-0.4-0.2
		C30.3,57.1,30.6,57.3,30.8,57.2z"/>
	<path class="st5" d="M33.3,57.7c-0.2,0-0.5,0.1-0.5-0.2c0-0.4,0.3-0.2,0.5-0.3c0.2,0,0.5-0.1,0.4,0.3
		C33.7,57.8,33.4,57.7,33.3,57.7z"/>
	<path class="st5" d="M35.8,57.2c0.2,0,0.5,0,0.4,0.3c0,0.3-0.3,0.2-0.5,0.2c-0.2,0-0.5,0.1-0.5-0.2C35.3,57.1,35.6,57.3,35.8,57.2z
		"/>
	<path class="st5" d="M38.2,57.2c0.2,0,0.5-0.1,0.4,0.3c0,0.3-0.3,0.2-0.5,0.2c-0.2,0-0.5,0.1-0.5-0.2
		C37.7,57.1,38.1,57.3,38.2,57.2z"/>
	<path class="st5" d="M40.7,57.7c-0.2,0-0.5,0.1-0.4-0.3c0-0.3,0.3-0.2,0.5-0.2c0.2,0,0.5-0.1,0.5,0.2
		C41.2,57.8,40.9,57.7,40.7,57.7z"/>
	<path class="st5" d="M43.2,57.2c0.2,0,0.5,0,0.5,0.3c0,0.3-0.3,0.2-0.5,0.2c-0.2,0-0.5,0.1-0.5-0.2C42.7,57.1,43.1,57.3,43.2,57.2z
		"/>
	<path class="st5" d="M45.6,57.7c-0.2,0-0.5,0.1-0.4-0.3c0-0.4,0.3-0.2,0.5-0.2c0.2,0,0.4-0.1,0.4,0.2
		C46.1,57.9,45.8,57.7,45.6,57.7z"/>
	<path class="st5" d="M48.1,57.7c-0.2,0-0.5,0.1-0.5-0.3c0-0.3,0.3-0.2,0.5-0.2c0.2,0,0.5-0.1,0.5,0.2
		C48.6,57.8,48.3,57.7,48.1,57.7z"/>
	<path class="st5" d="M50.6,57.7c-0.2,0-0.5,0.1-0.5-0.2c0-0.3,0.3-0.3,0.4-0.3c0.2,0,0.5-0.1,0.5,0.3
		C51.1,57.8,50.8,57.7,50.6,57.7z"/>
	<path class="st8" d="M39.4,44.5c-1.4,0-1.8-0.5-1.9-2.2c0-0.1,0-0.3,0-0.4c0,0,0.1,0,0.1,0c1.9-0.2,1.9-0.2,1.8,1.6
		C39.4,43.8,39.4,44.1,39.4,44.5z"/>
	<path class="st1" d="M20,35.4c-0.4-0.1-0.5-0.3-0.7-0.5c-0.2-0.2-0.4-0.4-0.6-0.6c-0.2-0.2-0.3-0.5,0-0.7c0.2-0.2,0.5-0.2,0.7,0
		c0.2,0.2,0.4,0.6,0.7,0.5c0.3-0.1,0.5-0.4,0.7-0.6c0.3-0.3,0.5-0.5,0.8-0.8c0.2-0.2,0.5-0.2,0.7,0c0.2,0.2,0.2,0.5,0,0.7
		c-0.6,0.7-1.3,1.3-1.9,1.9C20.2,35.3,20.1,35.4,20,35.4z"/>
	<path class="st1" d="M22.3,48c0,0.2-0.1,0.3-0.2,0.5c-0.5,0.5-1,1-1.6,1.6c-0.4,0.4-0.7,0.4-1.1,0c-0.3-0.3-0.6-0.5-0.8-0.8
		c-0.2-0.2-0.2-0.5,0-0.7c0.2-0.2,0.5-0.2,0.7,0c0.7,0.6,0.7,0.5,1.3-0.1c0.3-0.3,0.5-0.6,0.8-0.8c0.1-0.1,0.3-0.2,0.5-0.1
		C22.2,47.6,22.3,47.8,22.3,48z"/>
</g>
</svg>
