<?xml version="1.0" encoding="utf-8"?>
<!-- Generator: Adobe Illustrator 28.0.0, SVG Export Plug-In . SVG Version: 6.00 Build 0)  -->
<svg version="1.1" id="Слой_1" xmlns="http://www.w3.org/2000/svg" xmlns:xlink="http://www.w3.org/1999/xlink" x="0px" y="0px"
	 viewBox="0 0 75 75" style="enable-background:new 0 0 75 75;" xml:space="preserve">
<style type="text/css">
	.st0{fill:url(#SVGID_1_);}
	.st1{fill:#DAD7DC;}
	.st2{fill:#63677D;}
	.st3{fill:#838B9F;}
	.st4{fill:#484C59;}
</style>
<linearGradient id="SVGID_1_" gradientUnits="userSpaceOnUse" x1="53.817" y1="64.9673" x2="16.9889" y2="2.1473">
	<stop  offset="1.773163e-07" style="stop-color:#132F5F"/>
	<stop  offset="0.4795" style="stop-color:#1D4082"/>
	<stop  offset="1" style="stop-color:#2651A5"/>
</linearGradient>
<path class="st0" d="M65.3,74.5H10.1c-5.2,0-9.4-4.2-9.4-9.4V9.9c0-5.2,4.2-9.4,9.4-9.4h55.1c5.2,0,9.4,4.2,9.4,9.4v55.1
	C74.7,70.3,70.5,74.5,65.3,74.5z"/>
<g>
	<path class="st1" d="M50.9,27.9c0,1,0,2,0,3.1c-2.7,0-5.4,0-8.1,0c-0.6,0-1.1,0.2-1.4,0.6c-0.3,0.5-0.4,1-0.1,1.5
		c0.3,0.6,0.8,0.8,1.4,0.8c2.7,0,5.5,0,8.2,0c0,1.2,0,2.3,0,3.5c-0.3,0-0.5,0-0.8,0c-7.4,0-14.7,0-22.1,0c-0.8,0-1.6,0-2.4,0
		c0-1.2,0-2.3,0-3.5c2.8,0,5.5,0,8.3,0c1,0,1.6-0.6,1.6-1.5c0-0.9-0.6-1.5-1.6-1.5c-2.8,0-5.5,0-8.3,0c0-1,0-2.1,0-3.1
		c2.7,0,5.5,0,8.2,0c1,0,1.6-0.6,1.6-1.5c0-0.9-0.6-1.5-1.6-1.5c-2.7,0-5.5,0-8.2,0c0-1,0-2.1,0-3.1c2.8,0,5.7,0,8.5,0
		c0.8,0,1.3-0.5,1.4-1.4c0-1-0.6-1.6-1.7-1.6c-2.7,0-5.4,0-8.1,0c0-1-0.1-2,0.3-3c2.6,0,5.2,0,7.8,0c1.1,0,1.7-0.6,1.7-1.5
		c0-1-0.6-1.4-1.7-1.4c-2.3,0-4.6,0-6.9,0c1.4-3.1,3.8-5.2,6.9-6.5c0.9-0.4,1.9-0.6,2.9-0.7c0.2,0,0.3-0.1,0.3-0.3
		c0.9,0,1.8,0,2.7,0c0,0.3,0.3,0.2,0.5,0.3c4.3,0.7,7.5,2.9,9.5,6.8c0.1,0.1,0.1,0.3,0.1,0.4c-0.3,0-0.5,0-0.8,0c-2.1,0-4.2,0-6.3,0
		c-0.8,0-1.3,0.5-1.5,1.3c-0.1,0.6,0.4,1.3,1.1,1.5c0.3,0.1,0.6,0.1,0.9,0.1c2.3,0,4.6,0,6.9,0c0.3,0,0.5,0.1,0.8-0.1
		c0.2,1,0.2,2.1,0.2,3.1c-2.6,0-5.2,0-7.7,0c-0.3,0-0.7,0-1,0.1c-0.6,0.2-1.1,0.7-1.1,1.3c0,0.7,0.3,1.2,0.9,1.4
		c0.3,0.1,0.6,0.1,0.9,0.1c2.7,0,5.4,0,8.1,0c0,1,0,2,0,3.1c-2.7,0-5.4,0-8.1,0c-1,0-1.7,0.6-1.8,1.5c0,0.9,0.7,1.5,1.8,1.5
		C45.5,27.9,48.2,27.9,50.9,27.9z"/>
	<path class="st2" d="M53.7,38.3c-0.1-0.7,0.2-0.9,0.9-0.9c1.1,0.1,2.2,0,3.2,0c0.3,0,0.5,0,0.5,0.4c-0.1,3.3,0.2,6.6-0.2,9.9
		c-0.8,6.6-4.1,11.6-9.7,15c-2.1,1.3-4.4,2.1-6.8,2.5C41.2,65.4,41,65.5,41,66c0,2.8,0,5.7,0,8.5c-1.9,0-3.8,0-5.7,0
		c0-2.8,0-5.6,0-8.3c0-0.6-0.2-0.8-0.8-0.9c-6.6-1.3-11.4-5-14.5-10.9c-1.4-2.7-2-5.6-2-8.7c0-2.5,0-5,0-7.5c0-0.5,0.1-0.7,0.6-0.6
		c1.1,0,2.2,0.1,3.3,0c0.8-0.1,1,0.2,0.9,0.9c0,0.4,0,0.8,0,1.2c-0.1,1-0.1,1.1-1.1,1.1c-0.4,0-0.5,0.1-0.5,0.5c0,0.8,0,1.6,0,2.4
		c0,1.8,0,3.6,0.4,5.4c2,9,10.2,14.6,19.4,13.2C48,61,53.7,55.3,54.8,48.4c0.4-2.3,0.2-4.7,0.3-7c0-0.6-0.1-0.9-0.7-0.7
		c-0.5,0.1-0.8-0.1-0.7-0.6c0-0.1,0-0.3,0-0.4C53.7,39.2,53.7,38.8,53.7,38.3z"/>
	<path class="st2" d="M25.6,37.5c0.8,0,1.6,0,2.4,0c7.4,0,14.7,0,22.1,0c0.3,0,0.5,0,0.8,0c0.1,0,0.2,0.1,0.3,0
		c0.8-0.2,1,0.2,0.9,0.9c0,0.4,0,0.8,0,1.3c-0.1,1.1-0.1,1.1-1.1,1.1c-8.5,0-17,0-25.4,0c-1.1,0-1.1,0-1.1-1c0.1-0.4,0.1-0.9,0-1.3
		C24.2,37.2,25.1,37.6,25.6,37.5z"/>
	<path class="st3" d="M25.6,18.9c2.7,0,5.4,0,8.1,0c1.1,0,1.7,0.6,1.7,1.6c0,0.8-0.5,1.4-1.4,1.4c-2.8,0-5.7,0-8.5,0
		C25.6,20.8,25.6,19.9,25.6,18.9z"/>
	<path class="st3" d="M25.6,24.9c2.7,0,5.5,0,8.2,0c1,0,1.6,0.6,1.6,1.5c0,0.9-0.6,1.5-1.6,1.5c-2.7,0-5.5,0-8.2,0
		C25.6,26.9,25.6,25.9,25.6,24.9z"/>
	<path class="st3" d="M25.6,31c2.8,0,5.5,0,8.3,0c1,0,1.6,0.6,1.6,1.5c0,0.9-0.6,1.5-1.6,1.5c-2.8,0-5.5,0-8.3,0
		C25.6,33,25.6,32,25.6,31z"/>
	<path class="st3" d="M26.8,12.9c2.3,0,4.6,0,6.9,0c1.1,0,1.7,0.5,1.7,1.4c0,0.9-0.6,1.5-1.7,1.5c-2.6,0-5.2,0-7.8,0
		C25.9,14.8,26.3,13.8,26.8,12.9z"/>
	<path class="st3" d="M24.4,38.3c0.1,0.4,0.1,0.9,0,1.3c-0.5,0-1,0-1.4,0c0-0.4,0-0.8,0-1.2C23.5,38.4,24,38.3,24.4,38.3z"/>
	<path class="st3" d="M50.9,34c-2.7,0-5.5,0-8.2,0c-0.6,0-1.1-0.2-1.4-0.8c-0.3-0.5-0.2-1,0.1-1.5c0.3-0.5,0.8-0.6,1.4-0.6
		c2.7,0,5.4,0,8.1,0C51,32,51,33,50.9,34z"/>
	<path class="st3" d="M50.9,27.9c-2.7,0-5.4,0-8.1,0c-1.1,0-1.8-0.6-1.8-1.5c0-0.9,0.7-1.5,1.8-1.5c2.7,0,5.4,0,8.1,0
		C50.9,25.9,51.1,26.9,50.9,27.9z"/>
	<path class="st3" d="M50.9,21.9c-2.7,0-5.4,0-8.1,0c-0.3,0-0.6,0-0.9-0.1c-0.6-0.3-0.9-0.8-0.9-1.4c0-0.6,0.5-1.1,1.1-1.3
		c0.3-0.1,0.7-0.1,1-0.1c2.6,0,5.2,0,7.7,0C51,19.9,51,20.9,50.9,21.9z"/>
	<path class="st3" d="M50.7,15.7c-0.2,0.2-0.5,0.1-0.8,0.1c-2.3,0-4.6,0-6.9,0c-0.3,0-0.6,0-0.9-0.1c-0.7-0.2-1.2-0.9-1.1-1.5
		c0.1-0.8,0.7-1.3,1.5-1.3c2.1,0,4.2,0,6.3,0c0.3,0,0.5,0,0.8,0C50.3,13.7,50.5,14.7,50.7,15.7z"/>
	<path class="st3" d="M52.1,39.6c0-0.4,0-0.8,0-1.3c0.5,0,1,0,1.6,0c0,0.4,0,0.9,0,1.3C53.2,39.6,52.6,39.6,52.1,39.6z"/>
	<path class="st4" d="M51,40.7c0,1.6,0,3.3,0,4.9c-0.1,6-4.1,10.9-10,12.2c-7.1,1.6-14.4-3.5-15.2-10.8c-0.2-2.1,0-4.3-0.1-6.4
		C34,40.7,42.5,40.7,51,40.7z"/>
</g>
</svg>
