<?xml version="1.0" encoding="utf-8"?>
<!-- Generator: Adobe Illustrator 28.0.0, SVG Export Plug-In . SVG Version: 6.00 Build 0)  -->
<svg version="1.1" id="Слой_1" xmlns="http://www.w3.org/2000/svg" xmlns:xlink="http://www.w3.org/1999/xlink" x="0px" y="0px"
	 viewBox="0 0 75 75" style="enable-background:new 0 0 75 75;" xml:space="preserve">
<style type="text/css">
	.st0{fill:url(#SVGID_1_);}
	.st1{fill:#D2DBFA;}
	.st2{fill:#2B428C;}
	.st3{fill:#E8EEFE;}
	.st4{fill:#BDC7F6;}
	.st5{fill:#FB995D;}
</style>
<linearGradient id="SVGID_1_" gradientUnits="userSpaceOnUse" x1="53.817" y1="64.9673" x2="16.9889" y2="2.1473">
	<stop  offset="1.773163e-07" style="stop-color:#132F5F"/>
	<stop  offset="0.4795" style="stop-color:#1D4082"/>
	<stop  offset="1" style="stop-color:#2651A5"/>
</linearGradient>
<path class="st0" d="M65.3,74.5H10.1c-5.2,0-9.4-4.2-9.4-9.4V9.9c0-5.2,4.2-9.4,9.4-9.4h55.1c5.2,0,9.4,4.2,9.4,9.4v55.1
	C74.7,70.3,70.5,74.5,65.3,74.5z"/>
<g>
	<path class="st1" d="M14.2,20.3c0-1.8,0-3.7,0-5.5c0-0.4,0.1-0.6,0.6-0.6c3.9-0.1,7.6,0.9,11.1,2.5c2.9,1.3,5.5,3,8,5
		c1.2,0.9,2.3,2,3.5,3c0.2,0.2,0.4,0.3,0.3,0.6c0,12.5,0,25,0,37.5c-0.3-0.1-0.6-0.3-0.9-0.5c0-0.2-0.2-0.4-0.3-0.5
		c-0.5-0.5-1-1-1.5-1.4c-2.8-2.3-5.7-4.3-9.1-5.8C22.5,53,18.9,52.1,15,52c-0.6,0-0.8-0.2-0.8-0.8C14.3,40.9,14.2,30.6,14.2,20.3z
		 M19.3,41c-0.5,0-0.7,0.1-1,0.4c-0.5,0.7-0.1,1.5,0.8,1.7c1.1,0.2,2.2,0.5,3.3,0.8c3.9,1.3,7.4,3.3,10.6,5.9
		c0.6,0.5,1.3,0.4,1.7-0.1c0.4-0.5,0.2-1.1-0.4-1.6c-3.2-2.5-6.6-4.5-10.4-5.9C22.5,41.7,20.9,41.3,19.3,41z M19.4,22.7
		c-0.8,0-1.2,0.3-1.3,0.9c-0.1,0.6,0.3,1,0.9,1.2c1.2,0.3,2.4,0.5,3.5,0.9c3.8,1.3,7.3,3.3,10.5,5.8c0.7,0.5,1.3,0.5,1.7,0
		c0.4-0.5,0.3-1.1-0.3-1.6c-3-2.4-6.3-4.4-9.9-5.7C22.8,23.5,21.1,23,19.4,22.7z M35,39.5c0-0.4-0.2-0.7-0.5-0.9
		c-0.8-0.6-1.6-1.2-2.5-1.8c-3.8-2.6-7.9-4.5-12.5-5.3c-0.7-0.1-1.2,0.2-1.3,0.8c-0.1,0.5,0.3,1.1,0.9,1.2c0.3,0.1,0.7,0.1,1,0.2
		c4.5,1,8.5,3.1,12.2,5.9c0.4,0.3,0.7,0.6,1.1,0.9C34.1,40.8,35,40.3,35,39.5z"/>
	<path class="st2" d="M36.8,62.3c0.3,0.2,0.5,0.4,0.9,0.5c0.2,0,0.3-0.2,0.5-0.3c0.2-0.1,0.4-0.2,0.6-0.4c0.1-0.1,0.3-0.1,0.4-0.2
		c5-2.7,10.3-4.3,16-4.5c3.1-0.1,6.1,0.2,9.1,0.9c0.9,0.2,0.8,0.3,0.8-0.5c0-10.4,0-20.8,0-31.2c0-0.2,0-0.4,0-0.6
		c1.1-0.1,2.3-0.1,3.4,0c0.6,0,0.9,0.4,0.9,1c0,0.1,0,0.3,0,0.4c0,12.4,0,24.8,0,37.1c0,1.2-0.3,1.4-1.4,1.4c-7.9,0-15.8,0-23.7,0
		c-0.9,0-1.8-0.2-2.6-0.6c-1.2-0.6-2.4-1.1-3.6-1.7c-0.4-0.2-0.7-0.2-1,0c-1.3,0.6-2.5,1.2-3.8,1.8c-0.6,0.3-1.3,0.5-2,0.5
		c-8.1,0-16.1,0-24.2,0c-0.9,0-1.2-0.4-1.2-1.3c0-12.5,0-25,0-37.5c0-0.9,0.3-1.2,1.2-1.2c1.1,0,2.1,0,3.2,0c0,10.7,0,21.3,0,32
		c0,0.5,0,0.7,0.6,0.5c3.7-0.9,7.5-1.2,11.4-0.8c2.9,0.3,5.7,0.9,8.5,1.9C32.9,60.3,34.9,61.3,36.8,62.3z"/>
	<path class="st3" d="M38.2,62.5c-0.2,0.1-0.3,0.3-0.5,0.3c0-12.5,0-25,0-37.5c1.7-3,3.6-5.9,5.8-8.6c1.5-1.9,3.1-3.6,4.9-5.2
		c1.9-1.7,3.9-3.2,6.3-4.2c0.9-0.4,0.9-0.4,0.9,0.6c0,2.3,0,4.6,0,6.9c0,9.8,0,19.6,0,29.4c0,0.5-0.1,0.8-0.7,1
		c-1.1,0.4-2.1,1-3.1,1.6c-2.5,1.6-4.7,3.7-6.7,6c-2.2,2.5-4.1,5.2-5.9,8C38.9,61.3,38.4,61.8,38.2,62.5z"/>
	<path class="st1" d="M38.2,62.5c0.2-0.7,0.6-1.2,1-1.8c1.7-2.8,3.7-5.5,5.9-8c2-2.3,4.2-4.3,6.7-6c1-0.6,2-1.2,3.1-1.6
		c0.5-0.2,0.7-0.5,0.7-1c0-9.8,0-19.6,0-29.4c1.7-0.4,3.5-0.5,5.3-0.5c0.4,0,0.4,0.2,0.4,0.6c0,1.9,0,3.7,0,5.6c0,10.3,0,20.7,0,31
		c0,0.6-0.2,0.7-0.7,0.7c-1.5-0.1-3,0.1-4.4,0.4c-4,0.8-7.7,2.4-11.1,4.6c-1.9,1.2-3.7,2.7-5.4,4.1c-0.3,0.3-0.7,0.5-0.8,0.9
		C38.7,62.3,38.5,62.4,38.2,62.5z"/>
	<path class="st4" d="M36.8,62.3c-2-1-4-2-6-2.7c-2.8-1-5.6-1.6-8.5-1.9c-3.9-0.4-7.7-0.1-11.4,0.8c-0.6,0.2-0.6,0-0.6-0.5
		c0-10.7,0-21.3,0-32c0-1.4,0-2.9,0-4.3c0-0.4,0.1-0.6,0.5-0.7c1.2-0.2,2.3-0.6,3.5-0.6c0,10.3,0,20.6,0,30.9c0,0.6,0.2,0.8,0.8,0.8
		c3.8,0,7.4,0.9,10.9,2.5c3.3,1.5,6.3,3.6,9.1,5.8c0.5,0.4,1,0.9,1.5,1.4C36.7,61.9,36.9,62,36.8,62.3z"/>
	<path class="st4" d="M38.8,62.1c0.1-0.5,0.5-0.7,0.8-0.9c1.7-1.5,3.5-2.9,5.4-4.1c3.4-2.2,7.1-3.8,11.1-4.6
		c1.5-0.3,2.9-0.5,4.4-0.4c0.6,0,0.7-0.2,0.7-0.7c0-10.3,0-20.7,0-31c1.2,0.1,2.4,0.4,3.5,0.7c0.3,0.1,0.4,0.3,0.4,0.6
		c0,1.5,0,2.9,0,4.4c0,0.2,0,0.4,0,0.6c0,10.4,0,20.8,0,31.2c0,0.8,0.1,0.8-0.8,0.5c-3-0.7-6.1-1-9.1-0.9c-5.7,0.3-11,1.8-16,4.5
		C39.1,62,39,62.1,38.8,62.1z"/>
	<path class="st5" d="M19.3,41c1.6,0.3,3.2,0.7,4.7,1.3c3.8,1.4,7.2,3.4,10.4,5.9c0.6,0.5,0.7,1.1,0.4,1.6c-0.4,0.5-1.1,0.5-1.7,0.1
		c-3.2-2.5-6.7-4.6-10.6-5.9c-1.1-0.4-2.2-0.6-3.3-0.8c-1-0.2-1.3-1-0.8-1.7C18.6,41.1,18.8,41,19.3,41z"/>
	<path class="st5" d="M19.4,22.7c1.7,0.3,3.4,0.8,5.1,1.4c3.6,1.4,6.9,3.3,9.9,5.7c0.6,0.5,0.8,1.1,0.3,1.6c-0.4,0.5-1,0.5-1.7,0
		c-3.2-2.5-6.6-4.5-10.5-5.8c-1.2-0.4-2.4-0.7-3.5-0.9c-0.6-0.1-1-0.6-0.9-1.2C18.2,23,18.7,22.7,19.4,22.7z"/>
	<path class="st5" d="M35,39.5c0,0.8-0.9,1.3-1.6,0.9c-0.4-0.2-0.8-0.6-1.1-0.9c-3.7-2.7-7.7-4.9-12.2-5.9c-0.3-0.1-0.7-0.1-1-0.2
		c-0.6-0.2-1-0.7-0.9-1.2c0.1-0.6,0.7-0.9,1.3-0.8c4.6,0.8,8.7,2.8,12.5,5.3c0.8,0.6,1.6,1.2,2.5,1.8C34.7,38.8,35,39.1,35,39.5z"/>
</g>
</svg>
