<?xml version="1.0" encoding="utf-8"?>
<!-- Generator: Adobe Illustrator 28.0.0, SVG Export Plug-In . SVG Version: 6.00 Build 0)  -->
<svg version="1.1" id="Слой_1" xmlns="http://www.w3.org/2000/svg" xmlns:xlink="http://www.w3.org/1999/xlink" x="0px" y="0px"
	 viewBox="0 0 75 75" style="enable-background:new 0 0 75 75;" xml:space="preserve">
<style type="text/css">
	.st0{fill:url(#SVGID_1_);}
	.st1{fill:#DEE6F3;}
	.st2{fill:#C6CEE0;}
	.st3{fill:#CC0101;}
	.st4{fill:#FE4D4D;}
</style>
<linearGradient id="SVGID_1_" gradientUnits="userSpaceOnUse" x1="53.817" y1="64.9673" x2="16.9889" y2="2.1473">
	<stop  offset="1.773163e-07" style="stop-color:#132F5F"/>
	<stop  offset="0.4795" style="stop-color:#1D4082"/>
	<stop  offset="1" style="stop-color:#2651A5"/>
</linearGradient>
<path class="st0" d="M65.3,74.5H10.1c-5.2,0-9.4-4.2-9.4-9.4V9.9c0-5.2,4.2-9.4,9.4-9.4h55.1c5.2,0,9.4,4.2,9.4,9.4v55.1
	C74.7,70.3,70.5,74.5,65.3,74.5z"/>
<g>
	<path class="st1" d="M36.3,53.3c0.1,0.1,0.2,0.1,0.3,0.2c3.1,3.1,6.2,6.2,9.3,9.3c0.8,0.8,0.8,1.6,0,2.3c-1,1-2.1,2.1-3.1,3.1
		c-0.2,0.2-0.5,0.4-0.7,0.5c-0.3,0-0.6,0-1,0c-3.4-3.2-6.7-6.6-10-9.9c-0.1-0.1-0.1-0.1-0.1-0.2C32.7,56.9,34.5,55.1,36.3,53.3z"/>
	<path class="st2" d="M44.5,26.5c0.3,0,0.4,0.2,0.6,0.4c4.4,4.4,10.5,10.4,15,14.8c0.7,0.7,1,1.5,0.8,2.4c-0.2,1-1,1.4-1.9,1.7
		c-2.4,0.6-4.7,1.2-7.1,1.8c-4.1,1-8.2,2-12.2,3.1c-0.2,0.1-0.5,0.1-0.7,0.1c-0.2-0.1-0.3-0.3-0.5-0.4c-2.4-2.4-6.4-6.2-8.8-8.6
		c0,0,1.7,1.4,1.7,1.4c0.2-0.2-1.4-1.9-1.2-2c4.7-4.7,9.3-9.3,14-14C44.2,26.8,44.3,26.6,44.5,26.5z"/>
	<path class="st1" d="M46.2,28c-0.2,0.2-0.3,0.4-0.5,0.5c-4.7,4.7-9.3,9.3-14,14c-0.2,0.2-0.3,0.4-0.5,0.5c-0.2-0.1-0.3-0.3-0.5-0.4
		c-2.4-2.4-4.8-4.8-7.2-7.2c0.9-3.5,1.7-7,2.6-10.4c0.8-3.2,1.7-6.5,2.5-9.7c0.2-0.9,0.6-1.5,1.5-1.8c0.9-0.2,1.6,0,2.3,0.7
		c4.4,4.4,8.7,8.8,13.1,13.2C45.7,27.5,46.1,27.6,46.2,28z"/>
	<path class="st3" d="M31.2,43.1c2.4,2.4,4.7,4.7,7.1,7.1c0.2,0.2,0.3,0.3,0.5,0.4c-0.4,0.6-1,1-1.4,1.6c-0.4,0.4-0.7,0.8-1.1,1.2
		c-1.8,1.8-3.5,3.5-5.3,5.3c-0.9,0.8-1.7,1.7-2.6,2.5c-1.2,1.2-2.3,1.2-3.5,0c-0.1-0.1-0.3-0.3-0.4-0.4c-0.2-0.2-0.3-0.4-0.5-0.6
		c-1.6-1.7-3.3-3.3-4.9-5c3.9-3.9,7.8-7.8,11.7-11.7C30.8,43.4,31,43.2,31.2,43.1z"/>
	<path class="st4" d="M31.2,43.1c-0.3,0-0.4,0.3-0.6,0.5c-3.9,3.9-7.8,7.8-11.7,11.7c-1.2-1.2-2.4-2.4-3.6-3.6
		c-0.6-0.6-1.1-1.2-1.8-1.7c-0.2-0.4-0.5-0.6-0.8-0.9c-0.8-0.9-0.8-2.1,0-2.9c3.6-3.6,7.1-7.1,10.7-10.7c0,0,0.1,0,0.1-0.1
		c2.4,2.4,4.8,4.8,7.2,7.2c0.2,0.2,0.3,0.3,0.5,0.4C31.2,43.1,31.3,43.1,31.2,43.1z"/>
	<path class="st2" d="M13.6,49.9c0.7,0.5,1.2,1.1,1.8,1.7c1.2,1.2,2.4,2.4,3.6,3.6c1.6,1.7,3.3,3.3,4.9,5c0.2,0.2,0.3,0.4,0.5,0.6
		c-1.2,1.2-2.4,2.4-3.6,3.6c-0.7,0.7-1.3,0.7-2,0c-3-3-5.9-6-8.9-9c-0.6-0.6-0.6-1.3,0-1.9C11.1,52.4,12.3,51.2,13.6,49.9z"/>
	<path class="st2" d="M61.1,13.1c1.3,1.1,2.2,2.5,3.1,3.9c1.3,2.1,2.1,4.4,2.5,6.8c0.2,1.1,0.3,2.1,0.3,3.2c0,1.2-0.8,2-1.8,2
		c-1.1,0-1.9-0.8-1.9-2c0-1.7-0.2-3.3-0.8-4.9c-0.8-2.4-2-4.4-3.7-6.2c-0.1-0.1-0.1-0.2-0.2-0.3C59.5,14.8,60.3,13.9,61.1,13.1z"/>
	<path class="st1" d="M61.1,13.1c-0.8,0.9-1.6,1.7-2.5,2.5c-1.5-1.4-3.1-2.6-4.9-3.4c-1.7-0.7-3.4-1.2-5.2-1.3
		c-0.5,0-1.1-0.1-1.6-0.1c-0.9-0.1-1.6-1-1.6-1.8c0-0.9,0.9-1.8,1.7-1.8c3.5,0,6.8,0.8,9.8,2.6c1.3,0.7,2.5,1.7,3.6,2.6
		C60.7,12.6,60.9,12.8,61.1,13.1z"/>
	<path class="st2" d="M55.9,18.2c1.8,1.5,2.8,3.5,3.4,5.7c0.3,1.1,0.4,2.2,0.4,3.3c0,0.9-0.8,1.7-1.8,1.8c-0.9,0-1.8-0.8-1.8-1.7
		c0-2.5-0.8-4.6-2.5-6.5c0-0.3,0.2-0.4,0.4-0.6C54.6,19.6,55.3,19,55.9,18.2z"/>
	<path class="st1" d="M55.9,18.2c-0.6,0.8-1.4,1.4-2,2.1c-0.2,0.2-0.4,0.3-0.4,0.6c-1.3-1.3-2.7-2.2-4.5-2.6c-0.6-0.1-1.3-0.2-2-0.2
		c-0.9,0-1.7-0.8-1.8-1.6c-0.1-0.9,0.4-1.8,1.2-2c0.7-0.2,1.4-0.1,2.1,0c2.4,0.3,4.5,1.2,6.4,2.7C55.3,17.6,55.6,17.9,55.9,18.2z"/>
</g>
</svg>
