<?xml version="1.0" encoding="utf-8"?>
<!-- Generator: Adobe Illustrator 28.0.0, SVG Export Plug-In . SVG Version: 6.00 Build 0)  -->
<svg version="1.1" id="Слой_1" xmlns="http://www.w3.org/2000/svg" xmlns:xlink="http://www.w3.org/1999/xlink" x="0px" y="0px"
	 viewBox="0 0 75 75" style="enable-background:new 0 0 75 75;" xml:space="preserve">
<style type="text/css">
	.st0{fill:url(#SVGID_1_);}
	.st1{fill:#FEDF77;}
	.st2{fill:#FEEEAB;}
	.st3{fill:#E8F8B5;}
	.st4{fill:#DAF080;}
	.st5{fill:#F5E98F;}
</style>
<linearGradient id="SVGID_1_" gradientUnits="userSpaceOnUse" x1="53.7691" y1="64.9954" x2="16.941" y2="2.1754">
	<stop  offset="1.773163e-07" style="stop-color:#132F5F"/>
	<stop  offset="0.4795" style="stop-color:#1D4082"/>
	<stop  offset="1" style="stop-color:#2651A5"/>
</linearGradient>
<path class="st0" d="M65.3,74.5H10.1c-5.2,0-9.4-4.2-9.4-9.4V9.9c0-5.2,4.2-9.4,9.4-9.4h55.1c5.2,0,9.4,4.2,9.4,9.4V65
	C74.7,70.3,70.5,74.5,65.3,74.5z"/>
<g>
	<path class="st1" d="M65,14.1c0.8,0.4,1.3,1.1,1.6,2c0.1,0.2,0.1,0.4,0.2,0.6c0,9.9-0.2,29.8-0.2,29.9c-0.4,1.6-2,2.7-3.7,2.7
		c-0.7,0-1.4,0-2.2,0c-0.4,0-0.5,0.1-0.5,0.5c0,2.7,0,5.5,0,8.2c0,0.8-0.3,1.2-1,1.5c-0.6,0.2-0.9-0.1-1.2-0.4c-1-1-2-2-2.9-2.9
		c-0.1-0.1-0.3-0.3-0.5-0.4c-0.9-1-1.9-1.9-2.9-2.9c-1.2-1.2-2.4-2.4-3.6-3.6c0-0.1-0.1-0.1-0.1,0c-0.9,0-1.7,0-2.6,0
		c-7.8,0-15.5,0-23.3,0c-1.5,0-2.8-0.6-3.6-1.9c0.3,0,0.6,0,0.9,0c12.9,0,25.8,0,38.8,0c0.4,0,0.9,0,1.3-0.1
		c3.1-0.4,5.5-3.2,5.5-6.4c0-8.6,0-17.2,0-25.7C64.9,14.8,64.9,14.4,65,14.1z"/>
	<path class="st2" d="M65,14.1c-0.1,0.3,0.1,0.7,0.1,1c0,8.6,0.1,17.3,0.1,25.8c0,3.1-2.4,5.9-5.5,6.4c-0.4,0.1-1.2,0.2-1.6,0.2
		c-12.6,0-25.5-0.1-38.8-0.1c-0.3,0-0.6,0-0.9,0c-0.4-0.6-0.5-1.3-0.5-2c0-4.3,0-8.6,0-12.9c0-4.1,0-8.3,0-12.4c0-1,0-1.9,0-2.9
		c-0.1-1.9,1.7-3.7,3.7-3.7c5.1,0,10.3,0,15.4,0c8.6,0,17.2,0,25.8,0C63.6,13.5,64.4,13.6,65,14.1z"/>
	<path class="st3" d="M18,20.1c0,4.1,0,8.3,0,12.4c0,4.3,0,8.6,0,12.9c0,0.7,0.1,1.3,0.5,1.9c0.8,1.3,2,1.9,3.6,1.9
		c7.8,0,15.5,0,23.3,0c0.7,0.7,1.4,1.5,2.1,2.2c0.5,0.6,0.5,1.4,0,2c-0.4,0.4-0.8,0.5-1.3,0.5c-12.3,0-24.6,0-37,0
		c-0.4-0.5-0.6-1.1-0.6-1.7c0-9.5,0-19.1,0-28.6c0-1.7,1.7-3.4,3.5-3.4C14.1,20.1,16,20.1,18,20.1z"/>
	<path class="st4" d="M9.2,53.9c12.3,0,24.6,0,37,0c0.5,0,1-0.1,1.3-0.5c0.5-0.6,0.5-1.4,0-2c-0.7-0.7-1.4-1.5-2.1-2.2
		c0.9,0,1.7,0,2.6,0h0.1c1.2,1.2,2.4,2.4,3.6,3.6c1,1,2,1.9,2.9,2.9c-8.8,0-17.6,0-26.4,0c-0.5,0-0.8,0.1-1.2,0.5
		c-3.1,3.1-6.2,6.2-9.3,9.3c-0.8,0.8-1.6,0.8-2.2,0.1c-0.3-0.3-0.3-0.6-0.3-0.9c0-2.8,0-5.5,0-8.3c0-0.5-0.1-0.7-0.6-0.6
		c-0.9,0-1.8,0.1-2.7,0C10.7,55.6,9.8,55,9.2,53.9z"/>
	<path class="st5" d="M48.1,49.2L48.1,49.2C48,49.2,48,49.2,48.1,49.2z"/>
</g>
</svg>
