<?xml version="1.0" encoding="utf-8"?>
<!-- Generator: Adobe Illustrator 28.0.0, SVG Export Plug-In . SVG Version: 6.00 Build 0)  -->
<svg version="1.1" id="Слой_1" xmlns="http://www.w3.org/2000/svg" xmlns:xlink="http://www.w3.org/1999/xlink" x="0px" y="0px"
	 viewBox="0 0 75 75" style="enable-background:new 0 0 75 75;" xml:space="preserve">
<style type="text/css">
	.st0{fill:url(#SVGID_1_);}
	.st1{fill:#E3202E;}
	.st2{fill:#F2EEF1;}
	.st3{fill:#D3172E;}
	.st4{fill:#FDDAA5;}
	.st5{fill:#E1E1E1;}
	.st6{fill:#FDCE85;}
	.st7{fill:#FDC065;}
	.st8{fill:#FDA615;}
	.st9{fill:#FDC166;}
	.st10{fill:#FDDAA4;}
</style>
<linearGradient id="SVGID_1_" gradientUnits="userSpaceOnUse" x1="53.7691" y1="10.0046" x2="16.941" y2="72.8246" gradientTransform="matrix(1 0 0 -1 0 75)">
	<stop  offset="1.773163e-07" style="stop-color:#132F5F"/>
	<stop  offset="0.4795" style="stop-color:#1D4082"/>
	<stop  offset="1" style="stop-color:#2651A5"/>
</linearGradient>
<path class="st0" d="M65.3,74.5H10.1c-5.2,0-9.4-4.2-9.4-9.4V9.9c0-5.2,4.2-9.4,9.4-9.4h55.1c5.2,0,9.4,4.2,9.4,9.4V65
	C74.7,70.3,70.5,74.5,65.3,74.5z"/>
<g>
	<path class="st1" d="M42.2,74.5c-2.4,0-4.8,0-7.2,0c-0.3-6.5-0.5-13-0.8-19.5c-0.1-3.5-0.3-7-0.4-10.5c0-1.5-0.2-3-0.1-4.5
		c3.3,0,6.6,0,9.9,0c0,0.4,0,0.9,0,1.3c-0.1,3.5-0.3,7-0.4,10.5C42.8,59.4,42.5,66.9,42.2,74.5z"/>
	<path class="st2" d="M42.2,74.5c0.3-7.6,0.6-15.1,0.9-22.7c0.1-3.5,0.3-7,0.4-10.5c0-0.4,0-0.9,0-1.3c2.9,0,5.8,0,8.7,0
		c-0.1,0.9-0.1,1.8-0.2,2.7c-0.3,4.8-0.6,9.6-1,14.4c-0.2,3.5-0.5,6.9-0.7,10.4c-0.2,2.3-0.3,4.6-0.4,6.9
		C47.3,74.5,44.8,74.5,42.2,74.5z"/>
	<path class="st2" d="M33.6,40.1c-0.1,1.5,0.1,3,0.1,4.5c0.1,3.5,0.3,7,0.4,10.5c0.3,6.5,0.5,13,0.8,19.5c-2.6,0-5.2,0-7.7,0
		c-0.3-4.2-0.5-8.3-0.8-12.5c-0.3-4.8-0.6-9.6-1-14.4c-0.2-2.5-0.4-5-0.5-7.5C27.8,40.1,30.7,40.1,33.6,40.1z"/>
	<path class="st1" d="M24.9,40.1c0.2,2.5,0.4,5,0.5,7.5c0.3,4.8,0.7,9.6,1,14.4c0.3,4.2,0.5,8.3,0.8,12.5c-1.9,0-3.8,0-5.7,0
		c-1.4-0.6-1.8-1.6-1.9-3C19,65.6,18.3,59.8,17.7,54c-0.5-4.5-0.9-8.9-1.4-13.4c0-0.2,0-0.4,0-0.6C19.2,40.1,22.1,40.1,24.9,40.1z"
		/>
	<path class="st1" d="M49.9,74.5c0.1-2.3,0.3-4.6,0.4-6.9c0.2-3.5,0.5-6.9,0.7-10.4c0.3-4.8,0.6-9.6,1-14.4c0.1-0.9,0.1-1.8,0.2-2.7
		c1.8,0,3.6,0,5.3,0c-0.1,1.1-0.2,2.1-0.3,3.2c-0.1,1.4-0.3,2.9-0.5,4.3c-0.1,1.4-0.3,2.7-0.4,4.1c-0.2,1.5-0.3,2.9-0.5,4.4
		c-0.1,1.4-0.3,2.8-0.4,4.1c-0.1,1.4-0.3,2.9-0.5,4.3c-0.1,1-0.2,1.9-0.3,2.9c-0.2,1.5-0.3,3-0.5,4.5c-0.1,0.5-0.2,1-0.5,1.5
		c-0.2,0.5-0.8,0.6-1,1.1C51.8,74.5,50.9,74.5,49.9,74.5z"/>
	<path class="st3" d="M52.5,74.5c0.2-0.5,0.8-0.6,1-1.1s0.4-1,0.5-1.5c0.1-1.5,0.3-3,0.5-4.5c0.1-1,0.2-1.9,0.3-2.9
		c0.1-1.4,0.3-2.9,0.5-4.3c0.1-1.4,0.3-2.8,0.4-4.1c0.2-1.5,0.3-2.9,0.5-4.4c0.1-1.4,0.3-2.7,0.4-4.1c0.2-1.4,0.3-2.9,0.5-4.3
		c0.1-1.1,0.2-2.1,0.3-3.2c1.1,0,2.1,0,3.2-0.1c0.1,1.2-0.2,2.3-0.3,3.5c-0.2,1.8-0.4,3.6-0.6,5.4c-0.2,2.2-0.5,4.5-0.7,6.7
		s-0.4,4.4-0.7,6.6c-0.2,2.2-0.5,4.5-0.7,6.7c-0.1,0.9-0.3,1.8-0.3,2.7c0,1.4-0.6,2.3-1.9,2.8C54.4,74.5,53.4,74.5,52.5,74.5z"/>
	<path class="st4" d="M14.9,34.2c-0.1-0.8-0.4-1.9-0.4-2.7c-0.1-2.7,1.8-5.2,4.5-6c0.5-0.1,0.6-0.3,0.4-0.8
		c-0.9-3.6,1.5-7.1,5.1-7.7c0.6-0.1,1.2-0.1,1.8,0c0.4,0.1,0.6,0,0.6-0.5c0.1-3.4,3.1-6.2,6.6-6c1.8,0.1,3.4,0.9,4.5,2.3
		c0.3,0.4,0.5,0.4,0.8,0c1-1.2,2.2-1.9,3.7-2.2l0.1,0.1c2.2,0.6,3.6,2.1,4.5,4.2c0.5,1.2,0.8,2.5,0.8,3.9c0,0.4,0.2,0.6,0.5,0.5
		c0.5-0.2,1.1-0.1,1.6-0.1c1.4,0.1,2.7,0.7,3.7,1.8c1.2,1.4,1.6,3.1,1.2,4.9c-0.2,0.9-0.2,1,0.8,1.2c2.7,0.6,4.4,3.1,3.8,5.6
		c-0.1,0.4-0.3,0.7-0.2,1.1c-2.9,0-5.8,0-8.6,0c0.6-1.7-0.3-3.4-2-4.1c-0.3-0.1-0.4-0.1-0.4-0.5c0.3-2.3-1.1-3.9-3.5-3.9
		c-0.3,0-0.4-0.1-0.5-0.4c-0.2-1.4-1-2.4-2.4-2.7c-0.7-0.2-1.6-0.3-2.2,0.3c-0.5,0-0.8,0.3-1.1,0.7c-0.2,0.3-0.3,0.3-0.5,0
		c-0.4-0.5-0.8-0.8-1.4-1c-1.9-0.7-4,0.6-4.3,2.8c0,0.2,0.1,0.5-0.4,0.4c-2-0.4-3.7,1.4-3.4,3.6c0.1,0.5,0,0.6-0.4,0.7
		c-1.6,0.6-2.5,2.8-2,4.5C22.4,34.2,18.7,34.2,14.9,34.2z M52.3,24.9c0,0.1,0,0.1,0,0.2c0,0.7,0.3,1,0.9,1.1c0.4,0,0.9-0.4,1-0.9
		c0.2-0.5,0.1-1,0-1.5c-0.4-2.1-2.8-3.5-4.7-2.8c-0.6,0.2-0.9,0.7-0.8,1.2c0.1,0.5,0.6,0.8,1.2,0.7C51.4,22.7,52.3,23.4,52.3,24.9z"
		/>
	<path class="st5" d="M50.9,33.8c2.9,0,5.8,0,8.6,0c0.9,0,1.7,0,2.6,0c0.5,0,1,0,1.4,0c0.7,0,1.2,0.5,1.2,1.2c0,1.3,0,2.6,0,3.9
		c0,0.7-0.5,1.2-1.2,1.2c-0.9,0-1.9,0-2.8,0c-1.1,0-2.1,0-3.2,0.1c-1.8,0-3.6,0-5.3,0c-2.9,0-5.8,0-8.7,0c-3.3,0-6.6,0-9.9,0
		c-2.9,0-5.8,0-8.7,0c-2.8,0-5.7,0-8.5,0c-1,0-1.9,0-2.9,0c-0.7,0-1.1-0.5-1.2-1.1c0-1.3,0-2.7,0-4c0-0.6,0.5-1.1,1.1-1.1
		c0.5,0,0.9,0,1.4,0c3.8,0,7.6,0,11.4,0c7.6,0,15.1,0,22.7,0c0.1,0,0.1,0,0.2,0C49.7,33.8,50.3,33.8,50.9,33.8z"/>
	<path class="st6" d="M61.8,33.8c-0.9,0-1.7,0-2.6,0c-0.1-0.4,0.2-0.7,0.2-1.1c0.6-2.5-1.1-5-3.8-5.6c-1-0.2-1-0.2-0.8-1.2
		c0.4-1.8,0-3.5-1.2-4.9c-0.9-1.1-2.2-1.7-3.7-1.8c-0.5,0-1.1-0.1-1.6,0.1c-0.4,0.1-0.5-0.1-0.5-0.5c0-1.3-0.3-2.6-0.8-3.9
		c-0.9-2.1-2.3-3.6-4.5-4.2l-0.1-0.1c1.9-0.4,3.6,0.1,5.1,1.3c1.4,1.2,2.2,2.7,2.3,4.6c0,0.4,0.1,0.6,0.6,0.5
		c3.6-0.6,7.1,2.2,7.2,5.9c0,0.6,0,1.3-0.2,1.9c-0.1,0.4,0.1,0.5,0.3,0.6c2.4,0.7,3.9,2.3,4.5,4.7C62.4,31.4,62.3,32.6,61.8,33.8z"
		/>
	<path class="st7" d="M48.9,34c-0.1,0-0.1,0-0.2,0c-8,0-15.7,0-23.7,0c-0.5-1.8,0.3-3.8,2.1-4.5c0.4-0.2,0.5-0.3,0.4-0.7
		c-0.3-2.3,1.5-4.2,3.8-3.9c0.4,0.1,0.3-0.2,0.4-0.4c0.3-2.2,2.5-3.6,4.5-2.9c0.6,0.2,1,0.5,1.5,1c0.2,0.3,0.3,0.3,0.5,0
		c0.3-0.4,0.6-0.7,1.2-0.7c0.1,0,0.2,0,0.2,0c1.7,0.6,2.7,1.8,2.9,3.6c0.1,1,0.2,1.2,1.3,1.2c1.7,0,2.7,1.2,2.6,2.9c0,1,0,1,0.9,1.5
		c0.1,0,0.2,0.1,0.3,0.1C48.7,31.7,48.9,32.8,48.9,34z M36.4,26.3c-1.8-0.1-3.7,1.5-3.7,3.5c0,0.7,0.4,1.4,1,1.4s1-0.5,1-1.3
		c0-0.7,0.4-1.2,0.9-1.5c0.4-0.2,0.8-0.2,1.3,0c0.7,0.2,1.2,0,1.4-0.6c0.2-0.5-0.1-1-0.7-1.3C37.2,26.3,36.7,26.2,36.4,26.3z"/>
	<path class="st8" d="M48.9,34c0-1.2-0.2-2.1-1.3-2.8c-0.1-0.1-0.2-0.1-0.3-0.1c-1-0.4-1-0.4-1-1.5c0.1-1.8-1-3-2.7-3
		c-1.1,0-1.2-0.1-1.3-1.2c-0.2-1.9-1.3-3-3-3.6c-0.1,0-0.2,0-0.2,0c0.8-0.6,1.6-0.5,2.4-0.3c1.5,0.4,2.5,1.4,2.7,2.8
		c0.1,0.3,0,0.5,0.4,0.5c2.6,0,4.1,1.7,3.8,4.2c-0.1,0.4,0.1,0.4,0.4,0.5c1.8,0.8,2.8,2.6,2.1,4.4C50.2,34,49.5,34,48.9,34z"/>
	<path class="st9" d="M52.2,25c0-1.6-1-2.3-2.5-2c-0.6,0.1-1.2-0.2-1.3-0.7c-0.1-0.6,0.2-1.1,0.8-1.3c2.1-0.7,4.6,0.7,5,3
		c0.1,0.5,0.2,1.1,0,1.6c-0.2,0.5-0.6,1-1.1,1c-0.5-0.1-0.8-0.4-1-1.2C52.2,25.1,52.2,25,52.2,25z"/>
	<path class="st10" d="M36.4,26.3c0.4,0,0.9-0.1,1.3,0c0.6,0.2,0.9,1,0.7,1.5c-0.2,0.6-0.6,0.8-1.4,0.6c-0.4-0.1-0.8-0.2-1.3,0
		c-0.5,0.3-0.9,0.7-0.9,1.5s-0.4,1.3-1,1.3s-1-0.5-1-1.4C32.8,27.7,34.6,26,36.4,26.3z"/>
</g>
</svg>
