<?xml version="1.0" encoding="utf-8"?>
<!-- Generator: Adobe Illustrator 28.0.0, SVG Export Plug-In . SVG Version: 6.00 Build 0)  -->
<svg version="1.1" id="Слой_1" xmlns="http://www.w3.org/2000/svg" xmlns:xlink="http://www.w3.org/1999/xlink" x="0px" y="0px"
	 viewBox="0 0 75 75" style="enable-background:new 0 0 75 75;" xml:space="preserve">
<style type="text/css">
	.st0{fill:url(#SVGID_1_);}
	.st1{fill:#81CB8E;}
	.st2{fill:#FEDF7D;}
	.st3{fill:#FECF64;}
	.st4{fill:#407092;}
	.st5{fill:#375F7E;}
	.st6{fill:#EBBE6C;}
	.st7{fill:#EABE6C;}
	.st8{fill:#12C184;}
	.st9{fill:#AAD781;}
	.st10{fill:#A9D780;}
	.st11{fill:#E9B14D;}
	.st12{fill:#EBBD6B;}
</style>
<linearGradient id="SVGID_1_" gradientUnits="userSpaceOnUse" x1="53.7691" y1="10.0046" x2="16.941" y2="72.8246" gradientTransform="matrix(1 0 0 -1 0 75)">
	<stop  offset="1.773163e-07" style="stop-color:#132F5F"/>
	<stop  offset="0.4795" style="stop-color:#1D4082"/>
	<stop  offset="1" style="stop-color:#2651A5"/>
</linearGradient>
<path class="st0" d="M65.3,74.5H10.1c-5.2,0-9.4-4.2-9.4-9.4V9.9c0-5.2,4.2-9.4,9.4-9.4h55.1c5.2,0,9.4,4.2,9.4,9.4V65
	C74.7,70.3,70.5,74.5,65.3,74.5z"/>
<g>
	<path class="st1" d="M62.4,46.9c0-0.1,0.1-0.2,0.1-0.2c0.2,0,0.4-0.1,0.5-0.3c1.1-0.8,1.7-1.9,2.2-3c0.7-1.7,0.8-3.5,1-5.3
		c0.4-0.4,0.8-0.9,1.1-1.3c0.3-0.4,0.6-0.4,0.9-0.1c0,0.6,0,1.1,0,1.7c-0.3,0.9-0.2,1.8-0.4,2.6c-0.3,2-0.7,3.8-2,5.4
		c-0.5,0.7-1.2,1.1-1.9,1.5c-0.4,0-0.8-0.1-1.1-0.4C62.7,47.2,62.7,46.9,62.4,46.9z"/>
	<path class="st2" d="M20.9,17.3c0-1.6,0-3.1,0-4.7c0-1,0.4-1.3,1.4-1.3c4.5,0,9.1,0,13.6,0c4,0,8,0,12,0c0,1.4,0,2.8,0,4.2
		c0,2.4-0.1,4.8-0.6,7.1c-0.5,2.2-1.1,4.4-2.2,6.4c-1,1.9-2.1,3.7-3.2,5.5c-1.4,2.3-3.1,4.4-5.7,5.5c-2.1,0.9-4.2,1.1-6.4,0.9
		c-1-0.1-2.3-0.7-3.3-1c-0.2-0.4-0.4-0.8-0.6-1.2c-0.4-0.6-0.7-1.4-1.1-2c-0.7-1.4-1.4-2.9-2-4.3c-1.4-3.6-1.8-7.3-1.7-11.1
		C20.9,20.1,20.9,18.7,20.9,17.3z M30.7,29.7c0.4,1.2,1.2,2.1,2.2,2.9c2.6,2,6.6,1.7,8.9-0.6c1.6-1.6,2.3-3.5,2.2-5.7
		c-0.1-2.3-2-4.9-4.1-5.7c-2.1-0.9-4.2-0.8-6.2,0.3C30.6,22.5,29.2,26.6,30.7,29.7z"/>
	<path class="st3" d="M26.6,40c1,0.2,2,0.6,3,0.8c2.2,0.3,4.4,0,6.4-0.9c2.5-1.1,4.3-3.1,5.7-5.4c1.1-1.9,2.3-3.6,3.3-5.5
		c1-2,1.8-4.1,2.3-6.3c0.5-2.3,0.6-4.7,0.6-7.1c0-1.4,0-2.8,0-4.2c1.6,0,3.2,0,4.8,0c0.7,0,1.2,0.5,1.2,1.4c0,1,0,2.1,0,3.1
		c0,1.6,0,1.5,1.6,1.6c1.4,0,2.8-0.1,4.1,0.3c1.4,0.4,2.6,1,3.6,1.9l0.1,0.1l0,0c0,0.1,0.1,0.3,0.1,0.4c1.4,2.3,1.7,4.8,1,7.5
		c-0.5,1.6-1.3,3-2.6,4.1c-2.1,1.7-4.4,3.4-6.6,5.1c-1.5,1.2-3.2,2.3-5.1,2.5c-1.4,0.1-2.3,0.6-2.8,1.9c-1.2,1.9-2.7,3.5-4.7,4.6
		c-0.9,0.5-1.9,0.8-2.8,1.1c-0.7,0.1-1.5,0.3-2.2,0.2c-0.5-0.1-0.6,0.1-0.6,0.6c0,1.2,0,2.4,0,3.6c0,1,0.3,1.8,1,2.5
		c0.9,0.9,1.9,1.6,2.9,2.3c0.6,0.4,0.7,1,0.2,1.6C41,57.9,41,58,40.9,58.1c-0.1,0-0.2,0-0.2,0C40.5,58,40.3,58,40.1,58
		c-3.2,0-6.5,0-9.7,0c-0.8-0.5-0.9-1.1-0.2-1.7c0.7-0.6,1.5-1.2,2.3-1.8c1.2-0.9,1.7-2,1.7-3.5c0-1.2,0-2.5,0-3.7
		c0-0.3,0-0.5-0.4-0.6c-3.1-0.9-5.3-2.8-6.9-5.5C27,40.6,26.8,40.3,26.6,40z M50,36.8c1.1,0.1,2.5-0.4,3.6-1.2
		c2.3-1.7,4.6-3.4,6.8-5.2c1.6-1.3,2.3-3,1.8-5.1c-0.5-2-1.7-3.2-3.7-3.7c-1.1-0.3-2.3-0.1-3.4-0.1c-1.3,0-1.3,0-1.3,1.3
		c0.1,2.9-0.3,5.8-1.3,8.6C51.9,33.2,51.1,35,50,36.8z"/>
	<path class="st4" d="M40.8,57.7c0.1,0,0.2,0,0.2,0c0.9,0.1,1.8,0,2.7,0c0.2,0,0.5,0,0.7,0c0,2.1,0,4.2,0,6.3c0,0.9-0.4,1.3-1.3,1.3
		c-5.3,0-10.6,0-15.9,0c0-0.9,0-1.8,0-2.7c0-0.7,0-1.4,0-2.1c0-0.6,0-1.2,0-1.8c0-0.7,0.4-1.1,1.1-1.1s1.5,0,2.2,0
		c1.3,0,2.6,0,3.9,0C36.6,57.8,38.7,57.7,40.8,57.7z"/>
	<path class="st3" d="M24.6,36.8c0.4,0.6,0.8,1.3,1.2,1.9c-0.8,0-1.7,0-2.5-0.1c-1.6-0.2-3-0.8-4.3-1.7c-1.8-1.3-3.5-2.6-5.2-3.9
		c-1-0.8-2.2-1.5-3.1-2.4c-1.1-1.2-1.9-2.7-2.3-4.3c0-0.2,0-0.3-0.2-0.4c0.3-4.8,4.2-8.5,8.9-8.6c1.2,0,2.5,0,3.7,0
		c0,1.4,0,2.8,0,4.1c-1.5,0-3-0.2-4.5,0.1c-2.1,0.4-3.4,1.7-3.9,3.8s0.3,3.8,2,5.2c2.2,1.7,4.4,3.3,6.6,5
		C22,36.3,23.2,36.8,24.6,36.8z"/>
	<path class="st5" d="M27.1,65.2c5.3,0,10.6,0,15.9,0c0.9,0,1.3-0.4,1.3-1.3c0-2.1,0-4.2,0-6.3c0.6,0,1.2,0,1.8,0
		c0.8,0,1.1,0.4,1.2,1.1c0,0.6,0,1.2,0,1.8c0,0.7,0,1.3,0,2c0,1.4,0,2.8,0,4.2c0,1.2-0.4,1.5-1.5,1.5c-5.8,0-11.5,0-17.3,0
		c-1.1,0-1.4-0.4-1.4-1.5C27,66.2,27,65.7,27.1,65.2z"/>
	<path class="st6" d="M47.4,40.9c0.5-1.2,1.4-1.7,2.8-1.9c2-0.2,3.6-1.3,5.1-2.5c2.2-1.7,4.4-3.3,6.6-5.1c1.3-1,1.9-2.6,2.4-4.2
		c0.7-2.6,0.3-4.6-1.2-7c-0.1-0.1-0.4-0.6-0.4-0.7c1.1,0.8,1.9,1,3,3.2c1.6,3.9,0.6,8.1-2.7,10.7c-2.4,1.9-4.9,3.8-7.4,5.6
		c-1.7,1.2-3.6,1.8-5.7,1.8C49.1,40.9,48.2,40.9,47.4,40.9z"/>
	<path class="st6" d="M8.2,25.9c0.2,0,0.2,0.2,0.2,0.4c0.4,1.6,1.2,3.1,2.3,4.3c0.9,0.9,2,1.6,3.1,2.4c1.7,1.3,3.5,2.7,5.2,3.9
		c1.3,0.9,2.7,1.5,4.3,1.7c0.8,0.1,1.7,0.1,2.5,0.1c0.2,0.4,0.5,0.8,0.7,1.2c0.2,0.3,0.4,0.6,0.6,1c-1.3-0.1-2.6,0.1-3.9-0.1
		C21.6,40.6,20,40,18.7,39c-2.5-1.9-5.1-3.8-7.5-5.8c-1.7-1.4-2.7-3.3-3-5.5C8.2,27.1,8.1,26.5,8.2,25.9z"/>
	<path class="st7" d="M43.7,57.7c-0.9,0-1.8,0.1-2.7,0c0.1-0.1-0.2-0.2-0.1-0.3c0.4-0.6,0.4-0.8-0.2-1.3c-1-0.7-2.1-1.4-3-2.3
		c-0.7-0.7-0.7-1.9-0.7-2.9c0-1.2-0.1-2.5-0.1-3.7c0-0.5,0.5-0.5,0.9-0.5c0.7,0.1,1.5-0.2,2.2-0.2c0,1.5-0.1,3,0.1,4.5
		c0.1,1.4,0.8,2.4,1.9,3.2c0.7,0.5,1.3,1,2,1.5C44.6,56.4,44.6,57.1,43.7,57.7z"/>
	<path class="st8" d="M27.3,60.7c0,0.7,0,1.4,0,2.1c-0.4-0.2-0.8-0.3-1.2-0.5c0-1.2-0.3-1.6-1.5-1.8c-0.7-0.1-1.4,0-2.2,0
		c-1.4-0.8-2.7-1.8-4-2.8c0-0.2,0.1-0.4,0.1-0.6c0.2-0.5,0.1-0.9-0.3-1.2c-0.3-0.3-0.7-0.4-1.1-0.5c-0.4,0-0.9,0-1.3,0
		c-1.6-1.8-3.1-3.6-4.3-5.7c-0.3-0.6-0.6-1.2-0.9-1.8c0.8,0,1.2-0.4,1.5-1c0.7,1.2,1.3,2.4,2.1,3.5c0.1,1.1,0.2,2.2,1,3.2
		c0.5,0.8,1,0.9,1.8,0.3c1.1,1.1,2.2,2.2,3.5,3.1c0,0.5-0.1,0.9,0.1,1.4c0.2,1.1,0.9,1.4,1.9,1c0.3-0.1,0.5-0.4,0.8-0.4
		C24.7,59.5,25.9,60.2,27.3,60.7z"/>
	<path class="st8" d="M47.5,62.7c0-0.7,0-1.3,0-2c1.3-0.5,2.6-1.1,3.8-1.9c0.3,0.1,0.5,0.4,0.8,0.5c1,0.5,1.8,0,1.9-1.1
		c0-0.4-0.1-0.8,0.1-1.2c1.2-0.9,2.3-2,3.4-3.1c0.9,0.5,1.4,0.4,2-0.4c0.6-0.9,0.8-2,0.8-3.1c0.8-1,1.4-2.2,2.1-3.4
		c0.3,0,0.3,0.4,0.4,0.5c0.3,0.3,0.7,0.5,1.1,0.4c-1.3,2.5-2.9,4.8-4.8,6.9c-0.2,0.2-0.3,0.4-0.5,0.6c-0.4,0-0.7,0-1.1,0
		c-0.6,0.1-1.3,0.2-1.6,1c-0.3,0.5,0.2,0.9,0.1,1.3c-1.3,1.1-2.6,2-4,2.8c-0.6,0-1.2-0.1-1.9,0s-1.4,0.2-1.7,0.9
		c-0.2,0.3,0,0.6-0.1,0.8S47.9,62.5,47.5,62.7z"/>
	<path class="st1" d="M12.2,46.8c-0.3,0.6-0.8,1.1-1.5,1c-0.1-0.1-0.3-0.2-0.4-0.3c0.2-0.7,0.2-1.5,0-2.2c-0.4-2.7-2.1-4.6-3.8-6.5
		c-0.1-0.7-0.2-1.3-0.2-2c0-0.2,0.1-0.4,0.3-0.5c0.2-0.1,0.3,0,0.4,0.1c1.8,2,3.7,3.9,4.7,6.5C12.3,44.3,12.4,45.5,12.2,46.8z"/>
	<path class="st1" d="M23.4,58.8c-0.3,0-0.6,0.3-0.8,0.4c-1,0.5-1.7,0.1-1.9-1c0.2,0,0.4-0.1,0.6-0.3c0.7-0.7,1.3-1.5,1.7-2.4
		c0.7-1.6,0.9-3.4,1.1-5.1c0.4-0.6,0.9-1.1,1.4-1.6c0.1-0.1,0.3-0.2,0.5-0.1c0.2,0.1,0.2,0.2,0.2,0.4C26,52.2,26,55.4,24,58
		C23.8,58.3,23.5,58.4,23.4,58.8z"/>
	<path class="st1" d="M24.6,60.5c1.2,0.2,1.5,0.6,1.5,1.8c-1.4,2.1-3.5,2.8-5.9,3c-1.4,0.1-2.9,0.2-4.3,0.2c-0.3,0-0.6,0-0.8-0.3
		c-0.1-0.3,0.2-0.5,0.4-0.7c0.4-0.3,0.7-0.6,1.1-0.8c0.6,0.1,1.3-0.1,1.9-0.1c1.8-0.1,3.5-0.5,4.9-1.6
		C23.9,61.6,24.6,61.2,24.6,60.5z"/>
	<path class="st1" d="M17.2,55.4c0.4,0,0.8,0.2,1.1,0.5c0.3,0.3,0.5,0.7,0.3,1.2c-0.1,0.2-0.1,0.4-0.1,0.6c-0.4,0.1-0.5,0.4-0.7,0.6
		c-1.4,1.2-3,1.7-4.7,1.9c-1.5,0.2-3,0.2-4.5,0.2c-0.3,0-0.7,0-0.8-0.3c-0.1-0.4,0.2-0.5,0.4-0.7c0.4-0.3,0.7-0.6,1.1-0.8
		c0.6,0.1,1.1-0.1,1.7-0.1c1.7-0.1,3.2-0.4,4.6-1.3C16.3,56.8,17,56.3,17.2,55.4z"/>
	<path class="st1" d="M60.3,50.3c0,1.1-0.2,2.2-0.8,3.1c-0.6,0.9-1.1,1-2,0.4c0-0.1-0.1-0.1-0.1-0.2c0.1-0.3,0.3-0.5,0.4-0.8
		c1.1-2.8,0.3-5.4-0.7-7.9c0.1-0.7,0.3-1.3,0.6-1.9c0.1-0.2,0.2-0.4,0.4-0.4s0.3,0.1,0.4,0.3c0.8,2.4,1.9,4.7,1.9,7.2
		C60.3,50.1,60.3,50.2,60.3,50.3z"/>
	<path class="st1" d="M17.1,53.8c-0.9,0.5-1.4,0.4-1.8-0.3c0.8-0.9,1-2,1.1-3.1c0.2-1.9-0.3-3.7-0.9-5.5c0.1-0.7,0.4-1.3,0.7-1.9
		c0.1-0.2,0.2-0.4,0.5-0.3c0.3,0.1,0.4,0.3,0.4,0.5c0.4,1.3,0.8,2.7,1.1,4.1c0.3,1.5,0.4,3,0,4.5C18,52.4,17.7,53.2,17.1,53.8z"/>
	<path class="st1" d="M54.2,56.8c-0.2,0.4-0.1,0.8-0.1,1.2c-0.1,1.2-0.9,1.7-1.9,1.1c0.5-3.4-1.4-5.8-3.5-8.1
		c-0.1-0.6-0.1-1.2-0.2-1.9c0-0.2,0-0.4,0.3-0.5c0.2-0.1,0.4,0,0.5,0.1c1.7,1.9,3.6,3.7,4.5,6.2C53.9,55.7,54,56.3,54.2,56.8z"/>
	<path class="st1" d="M48.6,62.2c0-0.3-0.1-0.6,0.1-0.8c0.8,0.4,1.6,0.9,2.5,1.1c1.9,0.5,3.9,0.5,5.9,0.5c0.9,0.5,1.6,1.1,2.3,1.7
		c0.4,0.3,0.2,0.7-0.2,0.8c-0.2,0-0.4,0-0.6,0c-1.7,0-3.4-0.1-5-0.3C51.5,64.8,49.8,64,48.6,62.2z"/>
	<path class="st1" d="M56.2,57.6c0-0.4-0.5-0.8-0.1-1.3c0.6,0.2,1.2,0.7,1.8,0.9c2.1,0.7,4.3,0.7,6.5,0.7c0.9,0.5,1.6,1.1,2.3,1.7
		c0.4,0.3,0.2,0.7-0.2,0.8c-0.1,0-0.2,0-0.2,0c-2-0.1-4.1,0-6-0.5c-1.5-0.3-2.8-1-3.8-2.1C56.4,57.7,56.3,57.6,56.2,57.6z"/>
	<path class="st9" d="M6.5,38.9c1.7,1.9,3.4,3.8,3.8,6.5c0.1,0.7,0.1,1.5,0,2.2c-1-0.5-1.6-1.3-2.1-2.2c-0.9-1.4-1.2-3-1.4-4.6
		C6.6,40.2,6.6,39.5,6.5,38.9z"/>
	<path class="st9" d="M66.3,38c-0.2,1.8-0.3,3.6-1,5.3c-0.5,1.2-1.1,2.3-2.2,3c-0.2,0.1-0.3,0.2-0.5,0.3c-0.4-1.8,0.1-3.4,1-4.9
		C64.2,40.4,65.2,39.2,66.3,38z"/>
	<path class="st10" d="M57.1,63c-2,0-4,0-5.9-0.5c-0.9-0.2-1.7-0.7-2.5-1.1c0.3-0.7,1-0.9,1.7-0.9c0.6,0,1.2,0,1.9,0
		C54,61,55.6,61.8,57.1,63C57,62.9,57,62.9,57.1,63z"/>
	<path class="st10" d="M64.5,57.9c-2.2,0-4.4,0-6.5-0.7c-0.6-0.2-1.2-0.6-1.8-0.9c0.3-0.7,0.9-0.9,1.6-1c0.3-0.1,0.7,0,1.1,0
		c1.6,0.1,3,0.7,4.3,1.5C63.5,57.2,64,57.5,64.5,57.9z"/>
	<path class="st9" d="M48.6,51.1c2.1,2.3,4,4.7,3.5,8.1c-0.3,0-0.5-0.4-0.8-0.5C49.2,56.6,48.8,53.9,48.6,51.1z"/>
	<path class="st9" d="M24.6,60.5c0,0.8-0.7,1.1-1.2,1.5c-1.4,1.1-3.1,1.5-4.9,1.6c-0.6,0-1.3,0.2-1.9,0.1c1.8-1.4,3.6-2.7,5.8-3.2
		C23.2,60.5,23.9,60.4,24.6,60.5z"/>
	<path class="st9" d="M17.2,55.4c-0.2,0.9-1,1.4-1.7,1.8c-1.4,0.9-3,1.2-4.6,1.3c-0.6,0-1.1,0.1-1.7,0.1c1.8-1.4,3.6-2.8,5.9-3.2
		c0.3,0,0.5-0.1,0.8-0.1C16.4,55.3,16.8,55.4,17.2,55.4z"/>
	<path class="st9" d="M57.1,44.8c1,2.6,1.8,5.2,0.7,7.9c-0.1,0.3-0.3,0.5-0.4,0.8c-0.8-1-1.1-2.1-1.2-3.4
		C56.1,48.3,56.6,46.6,57.1,44.8z"/>
	<path class="st10" d="M15.5,44.8c0.5,1.8,1,3.6,0.9,5.5c-0.1,1.1-0.3,2.2-1.1,3.1c-0.7-0.9-0.9-2-1-3.2
		C14.3,48.3,14.9,46.6,15.5,44.8z"/>
	<path class="st9" d="M24.1,50.5c-0.2,1.7-0.4,3.5-1.1,5.1c-0.4,0.9-1,1.7-1.7,2.4c-0.2,0.2-0.4,0.2-0.6,0.3
		c-0.2-0.4-0.1-0.9-0.1-1.4c0.2-1.8,1-3.4,2.1-4.8C23.2,51.6,23.6,51,24.1,50.5z"/>
	<path class="st7" d="M40.8,57.6c-2.1,0-4.3,0-6.4,0c-1.3,0-2.6,0-3.9,0v-0.1c3.2,0,6.5,0,9.7,0C40.4,57.5,40.7,57.5,40.8,57.6z"/>
	<path class="st11" d="M39.9,20.6c2.2,0.8,4,3.5,4.1,5.7s-0.5,4.1-2.2,5.7c-2.4,2.5-6.2,2.6-8.9,0.6c-1-0.8-1.8-1.7-2.2-2.9
		c1.4,0.3,2.7,0.5,4.1,0.2c0.3,0.5,0.6,0.4,1,0.2c0.7-0.4,1.4-1,2.3-0.3c0.2,0.1,0.4,0.3,0.6,0.4c0.5,0.2,0.9,0,0.8-0.5
		c0-0.1,0-0.3-0.1-0.4c-0.2-0.9-0.3-1.7,0.7-2.2l0,0c0.2-0.3,0.6-0.5,0.5-0.9s-0.6-0.4-1-0.4c0,0,0,0-0.1,0l0,0
		c0.5-1.3,0.6-2.6,0.4-4C40,21.4,39.6,21,39.9,20.6z"/>
	<path class="st12" d="M34.8,29.9c-1.4,0.3-2.8,0.1-4.1-0.2c-1.5-3.1-0.1-7.2,3-8.8c2-1.1,4.1-1.2,6.2-0.3C39.6,21,40,21.4,40,21.7
		c0.2,1.4,0.1,2.7-0.4,4c-0.8,0-1.4-0.1-1.7-1c-0.1-0.2-0.2-0.4-0.3-0.7c-0.1-0.2-0.2-0.4-0.5-0.4s-0.4,0.2-0.5,0.4
		c-0.4,1.1-1,1.8-2.3,1.8c-0.2,0-0.6-0.1-0.7,0.3c-0.1,0.4,0.1,0.6,0.3,0.8c0.9,0.6,1.2,1.5,0.8,2.5C34.8,29.5,34.8,29.7,34.8,29.9z
		"/>
	<path class="st2" d="M34.5,30.3c0-0.2,0.1-0.4,0.1-0.7c0.3-1.1,0.1-2.1-0.9-2.8c-0.3-0.2-0.6-0.4-0.3-0.9c0.1-0.3,0.4-0.3,0.8-0.3
		c1.5,0.1,2.1-0.8,2.6-2c0.1-0.2,0.2-0.4,0.6-0.4c0.3,0,0.4,0.2,0.6,0.4c0.1,0.2,0.2,0.4,0.3,0.8c0.2,1,1,1.1,1.9,1.1l0,0
		c-0.4,0.4-0.8,1-1.3,1.3c-0.6,0.4-0.7,1.1-0.6,1.8c0.1,0.4,0.4,1,0.1,1.5c-1-0.8-1.7-0.1-2.6,0.3C35.2,30.7,34.7,30.8,34.5,30.3z"
		/>
	<path class="st3" d="M38.2,30.2c0.3-0.6,0-1-0.1-1.5C38,28,38,27.4,38.6,26.9c0.4-0.4,0.9-0.9,1.3-1.3c0,0,0,0,0.1,0
		c0.4,0,0.9,0,1.1,0.4c0.1,0.4-0.3,0.7-0.6,1l0,0c-1.1,0.6-1,1.5-0.8,2.5c0,0.1,0.1,0.3,0.1,0.4c0,0.6-0.4,0.9-0.9,0.6
		C38.5,30.5,38.4,30.3,38.2,30.2z"/>
</g>
</svg>
