<?xml version="1.0" encoding="utf-8"?>
<!-- Generator: Adobe Illustrator 28.0.0, SVG Export Plug-In . SVG Version: 6.00 Build 0)  -->
<svg version="1.1" id="Слой_1" xmlns="http://www.w3.org/2000/svg" xmlns:xlink="http://www.w3.org/1999/xlink" x="0px" y="0px"
	 viewBox="0 0 75 75" style="enable-background:new 0 0 75 75;" xml:space="preserve">
<style type="text/css">
	.st0{fill:url(#SVGID_1_);}
	.st1{fill:#FFFFFF;}
	.st2{fill:#DAD7DA;}
	.st3{fill:#EBE9EB;}
	.st4{fill:#DA4655;}
	.st5{fill:#FE8086;}
	.st6{fill:#E4646E;}
	.st7{fill:#E4656F;}
	.st8{fill:#FD989D;}
</style>
<linearGradient id="SVGID_1_" gradientUnits="userSpaceOnUse" x1="53.7691" y1="10.0046" x2="16.941" y2="72.8246" gradientTransform="matrix(1 0 0 -1 0 75)">
	<stop  offset="1.773163e-07" style="stop-color:#132F5F"/>
	<stop  offset="0.4795" style="stop-color:#1D4082"/>
	<stop  offset="1" style="stop-color:#2651A5"/>
</linearGradient>
<path class="st0" d="M65.3,74.5H10.1c-5.2,0-9.4-4.2-9.4-9.4V9.9c0-5.2,4.2-9.4,9.4-9.4h55.1c5.2,0,9.4,4.2,9.4,9.4V65
	C74.7,70.3,70.5,74.5,65.3,74.5z"/>
<g>
	<g>
		<path class="st1" d="M22.4,24.4c0.1,1.1-1.3,0.5,0.2,0.9c0.7,0.2,1.5,0.4,2.2,0.6c1.7,0.4,3.5,0.5,5.3,0.5c1.8,0,3.6-0.3,5.3-0.6
			c0.8-0.1,1.5-0.3,2.3-0.5c0.4-0.1,0.7-0.2,1.1-0.3c0.2-0.1,0.3-0.1,0.4,0c-0.7-0.4-0.9-0.5-0.5-0.1c0.4-1.4,0.7-2.8,1.1-4.2
			c-1.9,0.4-3.8-0.4-5.6-0.9c-2.1-0.6-4.3-1.1-6.6-1s-4.5,0.5-6.7,1s-4.1,1.3-4.4,3.8c-0.1,1.3,1.3,2.5,2.5,2.5
			c1.5,0,2.4-1.2,2.5-2.5c0-0.1,0-0.2,0-0.2c-0.1,0.4-0.2,0.8-0.3,1.3c-0.1,0.3-0.6,0.2-0.1,0.2c0.3,0,0.9-0.2,1.2-0.3
			c0.9-0.2,1.9-0.4,2.8-0.6c1.6-0.3,3.3-0.4,4.9-0.2c1.8,0.3,3.4,0.9,5.1,1.4c2,0.5,4,0.6,6,0.2s2.2-2.8,1.1-4.2
			c-1.7-2.2-4.6-1.1-6.8-0.6c-2.1,0.5-4.3,0.8-6.5,0.7c-1,0-2-0.1-3-0.3c-1-0.2-2.1-0.6-3.1-0.8c-2.6-0.4-5.6,1.2-5.5,4.1
			c0.1,1.3,1.1,2.5,2.5,2.5C21.2,26.9,22.5,25.7,22.4,24.4L22.4,24.4z"/>
	</g>
</g>
<g>
	<path class="st2" d="M63.9,65.5c-0.3,0.8-0.9,1.2-1.6,1.5c-0.2,0.1-0.4,0.1-0.4,0.3c-8.6,0-26.1-0.3-26.3-0.3
		c-1.4-0.7-2.3-1.8-2.3-3.3c0-1.6,0-3.1,0-4.7c0-0.3-0.2-0.6-0.2-0.9c0-6,0.3-12.4,0.3-18.3c0-1.4,0.8-2.5,2.1-3.2
		c0,7.7,0,15.8,0,23.5c0,0.7,0.1,1.3,0.3,1.9c0.7,1.9,2.9,3.5,5,3.5C48.4,65.5,56.1,65.5,63.9,65.5z"/>
	<path class="st3" d="M63.9,65.5c-7.7,0-15.5,0-23.2,0c-2.1,0-4.2-1.5-5-3.5c-0.2-0.6-0.3-1.2-0.3-1.9c0-7.7,0-15.5,0-23.2
		c0.6-0.4,1.3-0.5,2.1-0.5c4.4,0,8.9,0,13.3,0c3.3,0,6.6,0,9.9,0c1.5,0,2.7,0.7,3.4,2.2c0.2,0.5,0.3,1,0.3,1.5c0,7.9,0,15.7,0,23.6
		C64.4,64.4,64.3,65,63.9,65.5z M54.4,60.1c0,1.5,1.2,2.8,2.7,2.8s2.8-1.3,2.8-2.7c0-1.5-1.3-2.7-2.7-2.7
		C55.6,57.4,54.4,58.6,54.4,60.1z M40.7,46.5c1.5,0,2.7-1.2,2.7-2.7s-1.2-2.7-2.7-2.7s-2.8,1.3-2.8,2.7C38,45.2,39.2,46.5,40.7,46.5
		z M51.6,51.9c0-1.5-1.2-2.7-2.7-2.7s-2.7,1.2-2.7,2.7s1.2,2.7,2.7,2.7C50.5,54.6,51.6,53.5,51.6,51.9z"/>
	<path class="st4" d="M29.8,60.3c-0.9,0.1-1.7-0.2-2.4-0.7C22,56.3,16.6,53,11.1,49.7c-1.5-0.9-2.2-2.3-2.2-4c0-6.7,0-13.5,0-20.2
		c0-0.8,0.2-1.6,0.6-2.2c1.2,0.7,2.3,1.4,3.5,2.1c4.4,2.7,8.9,5.4,13.3,8.1c1.2,0.7,2.3,1.5,3.5,2.1c0,5.3,0,10.6,0,15.8
		C29.8,54.4,29.8,57.3,29.8,60.3z M20.9,43c-0.2-1.5-0.6-2.8-2-3.7c-0.8-0.5-1.7-0.2-1.9,0.8c-0.3,1.5,0.3,2.8,1.3,4
		c0.5,0.5,1.1,0.9,1.8,0.6C20.8,44.4,20.8,43.6,20.9,43z"/>
	<path class="st5" d="M29.8,35.6c-1.2-0.6-2.4-1.4-3.5-2.1c-4.4-2.7-8.9-5.4-13.3-8.1c-1.2-0.7-2.3-1.4-3.5-2.1
		c0.3-0.7,0.9-1.2,1.5-1.6c5.5-3.3,11-6.7,16.5-10c1.5-0.9,3.1-0.9,4.6,0c5.5,3.3,10.9,6.6,16.3,9.9c0.7,0.4,1.4,1,1.7,1.8
		c-0.1,0-0.2,0.1-0.2,0.1c-1.6,1-3.1,1.9-4.7,2.9c-4,2.5-8.1,4.9-12.1,7.4C32,34.3,31,35.1,29.8,35.6z M29.9,20.9
		c-0.8,0-1.6,0.2-2.1,0.5c-1.2,0.8-1.2,1.9,0,2.7c1.4,0.8,2.9,0.8,4.3,0c1.1-0.6,1.1-1.9,0-2.6C31.4,21.1,30.7,20.9,29.9,20.9z
		 M20.6,24.7c0.7,0,1.4-0.1,2.1-0.6c1.1-0.7,1.1-1.9,0-2.6c-1.2-0.8-3.3-0.8-4.5,0.1c-0.9,0.7-0.9,1.7,0,2.4
		C18.9,24.5,19.7,24.7,20.6,24.7z M39.2,24.7c0.7,0,1.5-0.1,2.1-0.6c1.1-0.7,1.1-1.8,0-2.6c-1.2-0.8-3.3-0.8-4.5,0.1
		c-0.9,0.7-0.9,1.7,0,2.4C37.5,24.5,38.3,24.7,39.2,24.7z"/>
	<path class="st6" d="M29.8,35.6c1.2-0.5,2.2-1.3,3.3-1.9c4.1-2.4,8.1-4.9,12.1-7.4c1.6-1,3.1-1.9,4.7-2.9c0.1,0,0.2-0.1,0.2-0.1
		c0.4,0.7,0.6,1.4,0.6,2.2c0,3.6,0,7.3,0,10.9c-4.4,0-8.9,0-13.3,0c-0.7,0-1.5,0.1-2.1,0.5c-1.3,0.7-1.8,1.8-1.9,3.2
		c0,6,0,12,0,17.9c0,0.3,0,0.5,0,0.8c-0.5,0.3-1,0.6-1.5,0.9c-0.7,0.3-1.4,0.6-2.1,0.5c0-3,0-5.9,0-8.9
		C29.8,46.1,29.8,40.9,29.8,35.6z"/>
	<path class="st7" d="M54.4,60.1c0-1.5,1.2-2.7,2.7-2.7s2.7,1.3,2.7,2.7c0,1.5-1.3,2.7-2.8,2.7C55.6,62.9,54.4,61.6,54.4,60.1z"/>
	<path class="st7" d="M40.7,46.5c-1.5,0-2.7-1.2-2.7-2.7s1.3-2.7,2.8-2.7s2.7,1.2,2.7,2.7S42.3,46.5,40.7,46.5z"/>
	<path class="st7" d="M51.6,51.9c0,1.5-1.2,2.7-2.7,2.7s-2.7-1.2-2.7-2.7s1.2-2.7,2.7-2.7C50.5,49.2,51.6,50.4,51.6,51.9z"/>
	<path class="st8" d="M20.9,43c-0.1,0.7-0.1,1.4-0.8,1.7c-0.7,0.3-1.3-0.1-1.8-0.6c-1-1.1-1.6-2.4-1.3-4c0.2-1,1-1.3,1.9-0.8
		C20.3,40.2,20.7,41.5,20.9,43z"/>
</g>
</svg>
